<svg xmlns="http://www.w3.org/2000/svg" version="1.1" xmlns:xlink="http://www.w3.org/1999/xlink" width="512" height="512" x="0" y="0" viewBox="0 0 512 512" style="enable-background:new 0 0 512 512" xml:space="preserve" class=""><g><path d="M114.758 44.137v99.289l19.82-36.348a17.641 17.641 0 0 1 15.492-9.203h.012a17.647 17.647 0 0 1 15.492 9.191l24.637 45.176 14.984-27.484a17.658 17.658 0 0 1 15.5-9.203c6.461 0 12.407 3.53 15.5 9.203l19.82 36.37L256 44.138zm79.449 61.793c-14.625 0-26.484-11.856-26.484-26.48 0-14.63 11.859-26.485 26.484-26.485s26.484 11.855 26.484 26.484c-.02 14.617-11.863 26.465-26.484 26.48zm0 0" fill="#000000" opacity="1" data-original="#000000" class=""></path><path d="M114.758 180.305v5.074h73.402l-38.082-69.852zM200.262 170.68l8.015 14.699h40.848l-28.434-52.172zM203.035 79.45a8.829 8.829 0 1 1-17.658-.002 8.829 8.829 0 0 1 17.658.001zm0 0" fill="#000000" opacity="1" data-original="#000000" class=""></path><path d="M503.172 0H8.828A8.829 8.829 0 0 0 0 8.828v211.863c0 4.875 3.953 8.825 8.828 8.825h494.344c4.875 0 8.828-3.95 8.828-8.825V8.828A8.829 8.829 0 0 0 503.172 0zM76.863 143.828a8.83 8.83 0 0 1-3.898 14.89 8.835 8.835 0 0 1-8.586-2.41L29.07 121a8.829 8.829 0 0 1 0-12.484L64.38 73.207a8.828 8.828 0 0 1 12.375.11 8.824 8.824 0 0 1 .11 12.37l-29.071 29.07zm196.793 41.55a17.52 17.52 0 0 1-4.187 11.282c-.106.14-.219.266-.336.406a17.546 17.546 0 0 1-13.133 5.97H114.758c-9.746-.013-17.645-7.911-17.656-17.657V44.137c.011-9.746 7.91-17.645 17.656-17.653H256c9.746.008 17.645 7.907 17.656 17.653zm70.621-26.48h-44.14a8.829 8.829 0 0 1 0-17.656h44.14c4.875 0 8.825 3.953 8.825 8.828s-3.95 8.828-8.825 8.828zm26.48-35.312h-70.62a8.829 8.829 0 0 1 0-17.656h70.62a8.829 8.829 0 0 1 0 17.656zm26.485-35.309h-97.105a8.829 8.829 0 0 1 0-17.656h97.105a8.829 8.829 0 0 1 0 17.656zm17.656-35.312H300.137a8.829 8.829 0 0 1 0-17.656h114.761c4.875 0 8.825 3.953 8.825 8.828s-3.95 8.828-8.825 8.828zM482.93 121l-35.309 35.309a8.829 8.829 0 0 1-12.484-12.48l29.07-29.071-29.07-29.07a8.824 8.824 0 0 1 .11-12.372 8.828 8.828 0 0 1 12.374-.109l35.309 35.309a8.829 8.829 0 0 1 0 12.484zM220.691 317.793c0 9.75-7.906 17.656-17.656 17.656s-17.656-7.906-17.656-17.656 7.906-17.656 17.656-17.656 17.656 7.906 17.656 17.656zM326.621 317.793c0 9.75-7.906 17.656-17.656 17.656s-17.656-7.906-17.656-17.656 7.906-17.656 17.656-17.656 17.656 7.906 17.656 17.656zM432.55 317.793c0 9.75-7.902 17.656-17.652 17.656-9.753 0-17.656-7.906-17.656-17.656s7.903-17.656 17.656-17.656c9.75 0 17.653 7.906 17.653 17.656zM150.07 317.793c0-29.25-23.715-52.965-52.968-52.965-29.25 0-52.965 23.715-52.965 52.965 0 29.254 23.715 52.965 52.965 52.965 29.246-.024 52.945-23.723 52.968-52.965zm-70.62 0c0-9.75 7.902-17.656 17.652-17.656 9.753 0 17.656 7.906 17.656 17.656s-7.903 17.656-17.656 17.656c-9.739-.031-17.625-7.918-17.653-17.656zm0 0" fill="#000000" opacity="1" data-original="#000000" class=""></path></g></svg>