<svg width="42" height="42" viewBox="0 0 42 42" fill="none" xmlns="http://www.w3.org/2000/svg">
<rect width="42" height="42" fill="#087FF5"/>
<path d="M29.1906 19.323C28.9024 19.0334 28.5598 18.8038 28.1823 18.6476C27.8049 18.4913 27.4003 18.4114 26.9918 18.4125H26.7668V15.3218C26.7668 12.1646 24.1984 9.59625 21.0414 9.59625H20.8298C17.6728 9.59625 15.1043 12.1646 15.1043 15.3218V18.4123H14.8793C14.4707 18.4112 14.0661 18.4912 13.6887 18.6475C13.3112 18.8038 12.9686 19.0334 12.6804 19.323C12.3908 19.6111 12.1612 19.9538 12.0049 20.3313C11.8486 20.7088 11.7686 21.1135 11.7698 21.522V29.2942C11.7698 30.1249 12.0932 30.9058 12.6804 31.4929C12.9685 31.7826 13.3112 32.0123 13.6886 32.1686C14.066 32.325 14.4707 32.4049 14.8793 32.4037H26.9918C27.8224 32.4037 28.6033 32.0803 29.1908 31.4929C29.4804 31.2048 29.71 30.8622 29.8663 30.4848C30.0226 30.1074 30.1025 29.7027 30.1014 29.2942V21.522C30.1025 21.1134 30.0226 20.7087 29.8662 20.3313C29.7099 19.9538 29.4802 19.6111 29.1906 19.323ZM16.6043 15.3218C16.6043 12.9919 18.4997 11.0963 20.8298 11.0963H21.0414C23.3713 11.0963 25.2668 12.9919 25.2668 15.3218V18.4123H16.6043V15.3218ZM28.6014 29.2942C28.6001 29.7208 28.4308 30.1297 28.1301 30.4322C27.9809 30.5821 27.8035 30.701 27.6081 30.782C27.4128 30.8629 27.2033 30.9043 26.9918 30.9037H14.8793C14.6677 30.9043 14.4582 30.8629 14.2628 30.7819C14.0674 30.7009 13.8901 30.582 13.7409 30.432C13.591 30.283 13.4722 30.1057 13.3912 29.9104C13.3103 29.7151 13.269 29.5056 13.2696 29.2942V21.522C13.269 21.3105 13.3103 21.101 13.3912 20.9056C13.4722 20.7102 13.591 20.5328 13.7409 20.3837C13.8901 20.2338 14.0674 20.1149 14.2628 20.034C14.4582 19.9531 14.6676 19.9117 14.8791 19.9123H26.9916C27.4215 19.9123 27.8258 20.0798 28.1297 20.3835C28.2797 20.5327 28.3985 20.7101 28.4795 20.9055C28.5604 21.1009 28.6018 21.3105 28.6013 21.522L28.6014 29.2942Z" fill="white"/>
<path d="M20.9355 23.337C20.7366 23.337 20.5458 23.416 20.4052 23.5567C20.2645 23.6973 20.1855 23.8881 20.1855 24.087V26.7293C20.1855 26.9282 20.2645 27.1189 20.4052 27.2596C20.5458 27.4002 20.7366 27.4793 20.9355 27.4793C21.1344 27.4793 21.3252 27.4002 21.4658 27.2596C21.6065 27.1189 21.6855 26.9282 21.6855 26.7293V24.087C21.6855 23.8881 21.6065 23.6973 21.4658 23.5567C21.3252 23.416 21.1344 23.337 20.9355 23.337Z" fill="white"/>
</svg>
