<svg width="188" height="59" viewBox="0 0 188 59" fill="none" xmlns="http://www.w3.org/2000/svg">
<path d="M31.0641 53.083C31.0641 53.5308 30.9562 53.9506 30.7403 54.3425C30.5324 54.7343 30.2005 55.0501 29.7447 55.29C29.2969 55.5299 28.7292 55.6499 28.0415 55.6499H26.6381V58.8644H24.9589V50.4922H28.0415C28.6892 50.4922 29.2409 50.6041 29.6967 50.828C30.1525 51.0519 30.4924 51.3598 30.7163 51.7516C30.9482 52.1434 31.0641 52.5872 31.0641 53.083ZM27.9695 54.2945C28.4333 54.2945 28.7772 54.1905 29.0011 53.9826C29.225 53.7667 29.3369 53.4668 29.3369 53.083C29.3369 52.2674 28.8811 51.8596 27.9695 51.8596H26.6381V54.2945H27.9695Z" fill="#4A4B4D"/>
<path d="M39.789 57.2691H36.4545L35.9027 58.8644H34.1395L37.1502 50.4802H39.1053L42.116 58.8644H40.3408L39.789 57.2691ZM39.3332 55.9257L38.1217 52.4233L36.9103 55.9257H39.3332Z" fill="#4A4B4D"/>
<path d="M49.9583 58.8644L48.1111 55.6019H47.3195V58.8644H45.6402V50.4922H48.7828C49.4305 50.4922 49.9823 50.6081 50.4381 50.84C50.8939 51.0639 51.2337 51.3718 51.4576 51.7636C51.6895 52.1474 51.8055 52.5792 51.8055 53.059C51.8055 53.6108 51.6455 54.1106 51.3257 54.5584C51.0058 54.9982 50.53 55.302 49.8983 55.47L51.9014 58.8644H49.9583ZM47.3195 54.3425H48.7228C49.1786 54.3425 49.5185 54.2345 49.7424 54.0186C49.9663 53.7947 50.0782 53.4868 50.0782 53.095C50.0782 52.7112 49.9663 52.4153 49.7424 52.2074C49.5185 51.9915 49.1786 51.8836 48.7228 51.8836H47.3195V54.3425Z" fill="#4A4B4D"/>
<path d="M55.3154 54.6663C55.3154 53.8427 55.4993 53.107 55.8671 52.4593C56.243 51.8036 56.7507 51.2958 57.3905 50.936C58.0382 50.5681 58.7618 50.3842 59.5615 50.3842C60.4971 50.3842 61.3167 50.6241 62.0204 51.1039C62.7241 51.5837 63.2159 52.2474 63.4957 53.095H61.5646C61.3727 52.6952 61.1008 52.3953 60.749 52.1954C60.4051 51.9955 60.0053 51.8955 59.5495 51.8955C59.0617 51.8955 58.6259 52.0115 58.2421 52.2434C57.8662 52.4673 57.5704 52.7872 57.3545 53.203C57.1466 53.6188 57.0426 54.1066 57.0426 54.6663C57.0426 55.2181 57.1466 55.7058 57.3545 56.1297C57.5704 56.5455 57.8662 56.8693 58.2421 57.1012C58.6259 57.3251 59.0617 57.4371 59.5495 57.4371C60.0053 57.4371 60.4051 57.3371 60.749 57.1372C61.1008 56.9293 61.3727 56.6254 61.5646 56.2256H63.4957C63.2159 57.0812 62.7241 57.7489 62.0204 58.2287C61.3247 58.7005 60.5051 58.9364 59.5615 58.9364C58.7618 58.9364 58.0382 58.7565 57.3905 58.3966C56.7507 58.0288 56.243 57.521 55.8671 56.8733C55.4993 56.2256 55.3154 55.4899 55.3154 54.6663Z" fill="#4A4B4D"/>
<path d="M69.0082 51.8476V53.9466H71.8269V55.278H69.0082V57.497H72.1868V58.8644H67.329V50.4802H72.1868V51.8476H69.0082Z" fill="#4A4B4D"/>
<path d="M77.791 57.533H80.5498V58.8644H76.1117V50.4922H77.791V57.533Z" fill="#4A4B4D"/>
<path d="M92.1997 50.4922C93.0793 50.4922 93.851 50.6641 94.5147 51.008C95.1864 51.3518 95.7021 51.8436 96.062 52.4833C96.4298 53.115 96.6137 53.8507 96.6137 54.6903C96.6137 55.5299 96.4298 56.2656 96.062 56.8973C95.7021 57.521 95.1864 58.0048 94.5147 58.3487C93.851 58.6925 93.0793 58.8644 92.1997 58.8644H89.273V50.4922H92.1997ZM92.1397 57.4371C93.0193 57.4371 93.699 57.1972 94.1788 56.7174C94.6586 56.2376 94.8985 55.5619 94.8985 54.6903C94.8985 53.8187 94.6586 53.139 94.1788 52.6512C93.699 52.1554 93.0193 51.9075 92.1397 51.9075H90.9523V57.4371H92.1397Z" fill="#4A4B4D"/>
<path d="M101.949 51.8476V53.9466H104.768V55.278H101.949V57.497H105.127V58.8644H100.27V50.4802H105.127V51.8476H101.949Z" fill="#4A4B4D"/>
<path d="M110.732 57.533H113.49V58.8644H109.052V50.4922H110.732V57.533Z" fill="#4A4B4D"/>
<path d="M118.636 50.4922V58.8644H116.957V50.4922H118.636Z" fill="#4A4B4D"/>
<path d="M130.215 50.4922L127.144 58.8644H125.105L122.034 50.4922H123.833L126.136 57.1492L128.427 50.4922H130.215Z" fill="#4A4B4D"/>
<path d="M135.3 51.8476V53.9466H138.118V55.278H135.3V57.497H138.478V58.8644H133.62V50.4802H138.478V51.8476H135.3Z" fill="#4A4B4D"/>
<path d="M146.721 58.8644L144.874 55.6019H144.082V58.8644H142.403V50.4922H145.546C146.193 50.4922 146.745 50.6081 147.201 50.84C147.657 51.0639 147.997 51.3718 148.221 51.7636C148.452 52.1474 148.568 52.5792 148.568 53.059C148.568 53.6108 148.408 54.1106 148.089 54.5584C147.769 54.9982 147.293 55.302 146.661 55.47L148.664 58.8644H146.721ZM144.082 54.3425H145.486C145.942 54.3425 146.281 54.2345 146.505 54.0186C146.729 53.7947 146.841 53.4868 146.841 53.095C146.841 52.7112 146.729 52.4153 146.505 52.2074C146.281 51.9915 145.942 51.8836 145.486 51.8836H144.082V54.3425Z" fill="#4A4B4D"/>
<path d="M159.143 50.4922L156.312 55.9497V58.8644H154.633V55.9497L151.79 50.4922H153.686L155.485 54.3185L157.272 50.4922H159.143Z" fill="#4A4B4D"/>
<path d="M125.573 3.09461V28.2114H120.535V11.8747L113.806 28.2114H109.992L103.227 11.8747V28.2114H98.189V3.09461H103.91L111.899 21.7702L119.887 3.09461H125.573Z" fill="#4A4B4D"/>
<path d="M135.267 5.90136C134.38 5.90136 133.636 5.62548 133.036 5.07373C132.461 4.49798 132.173 3.7903 132.173 2.95068C132.173 2.11105 132.461 1.41537 133.036 0.863613C133.636 0.287871 134.38 0 135.267 0C136.155 0 136.887 0.287871 137.462 0.863613C138.062 1.41537 138.362 2.11105 138.362 2.95068C138.362 3.7903 138.062 4.49798 137.462 5.07373C136.887 5.62548 136.155 5.90136 135.267 5.90136ZM137.75 8.27629V28.2114H132.712V8.27629H137.75Z" fill="#4A4B4D"/>
<path d="M155.934 7.98842C158.309 7.98842 160.228 8.74408 161.691 10.2554C163.154 11.7427 163.886 13.8298 163.886 16.5166V28.2114H158.848V17.2003C158.848 15.617 158.452 14.4055 157.661 13.5659C156.869 12.7023 155.79 12.2705 154.422 12.2705C153.031 12.2705 151.927 12.7023 151.112 13.5659C150.32 14.4055 149.924 15.617 149.924 17.2003V28.2114H144.887V8.27629H149.924V10.7592C150.596 9.89557 151.448 9.22387 152.479 8.74408C153.535 8.24031 154.686 7.98842 155.934 7.98842Z" fill="#4A4B4D"/>
<path d="M182.89 25.3686C182.339 26.2802 181.439 27.0479 180.192 27.6716C178.944 28.2713 177.601 28.5712 176.161 28.5712C174.914 28.5712 173.786 28.3193 172.779 27.8155C171.771 27.3118 170.98 26.6161 170.404 25.7285C169.828 24.8409 169.54 23.8213 169.54 22.6698C169.54 20.8227 170.224 19.3113 171.591 18.1359C172.983 16.9604 175.058 16.3727 177.817 16.3727H182.89C182.842 15.1012 182.47 14.0937 181.775 13.35C181.103 12.5824 180.168 12.1985 178.968 12.1985C177.913 12.1985 177.037 12.4864 176.341 13.0621C175.646 13.6139 175.202 14.3936 175.01 15.4011H169.972C170.212 13.9617 170.728 12.6783 171.519 11.5508C172.335 10.3993 173.391 9.51174 174.686 8.88802C176.005 8.24031 177.481 7.91645 179.112 7.91645C180.791 7.91645 182.303 8.2643 183.646 8.95999C185.013 9.65567 186.081 10.6512 186.849 11.9466C187.616 13.2421 188 14.7654 188 16.5166V28.2114H182.89V25.3686ZM177.637 24.505C178.476 24.505 179.292 24.3251 180.084 23.9653C180.899 23.6054 181.571 23.0657 182.099 22.346C182.626 21.6263 182.89 20.7747 182.89 19.7911V19.6472H178.104C176.953 19.6472 176.089 19.8751 175.514 20.3309C174.962 20.7867 174.686 21.3864 174.686 22.1301C174.686 22.8498 174.938 23.4255 175.442 23.8573C175.969 24.2891 176.701 24.505 177.637 24.505Z" fill="#4A4B4D"/>
<path d="M1.90715 21.1225C4.21011 19.2034 6.04529 17.6081 7.41268 16.3367C8.78007 15.0413 9.91956 13.6979 10.8311 12.3065C11.7427 10.9151 12.1985 9.54772 12.1985 8.20433C12.1985 6.98087 11.9107 6.0213 11.3349 5.32562C10.7592 4.62993 9.87158 4.28208 8.67211 4.28208C7.47265 4.28208 6.54907 4.6899 5.90136 5.50554C5.25365 6.29718 4.9178 7.38869 4.89381 8.78007H0C0.0959569 5.90136 0.947575 3.71833 2.55486 2.231C4.18612 0.743667 6.2492 0 8.74408 0C11.4789 0 13.5779 0.731673 15.0413 2.19502C16.5046 3.63437 17.2363 5.54152 17.2363 7.91645C17.2363 9.78762 16.7325 11.5748 15.725 13.2781C14.7174 14.9813 13.5659 16.4686 12.2705 17.7401C10.9751 18.9875 9.28384 20.4988 7.19678 22.274H17.812V26.4482H0.0359838V22.7058L1.90715 21.1225Z" fill="#2D6A4F"/>
<path d="M48.4782 6.58505C50.9251 6.58505 52.8922 7.34071 54.3795 8.85204C55.8908 10.3394 56.6465 12.4264 56.6465 15.1132V26.808H51.6087V15.7969C51.6087 14.2376 51.2129 13.0502 50.4213 12.2345C49.6296 11.3949 48.5501 10.9751 47.1827 10.9751C45.8153 10.9751 44.7238 11.3949 43.9082 12.2345C43.1166 13.0502 42.7207 14.2376 42.7207 15.7969V26.808H37.683V15.7969C37.683 14.2376 37.2872 13.0502 36.4955 12.2345C35.7039 11.3949 34.6244 10.9751 33.257 10.9751C31.8656 10.9751 30.7621 11.3949 29.9465 12.2345C29.1548 13.0502 28.759 14.2376 28.759 15.7969V26.808H23.7212V6.87292H28.759V9.28384C29.4067 8.44422 30.2343 7.78451 31.2419 7.30473C32.2734 6.82494 33.4009 6.58505 34.6244 6.58505C36.1837 6.58505 37.575 6.9209 38.7985 7.5926C40.0219 8.24031 40.9695 9.17589 41.6412 10.3993C42.2889 9.24786 43.2245 8.32427 44.448 7.62858C45.6954 6.9329 47.0388 6.58505 48.4782 6.58505Z" fill="#2D6A4F"/>
<path d="M75.6406 23.9653C75.0889 24.8769 74.1893 25.6445 72.9418 26.2682C71.6944 26.868 70.351 27.1678 68.9117 27.1678C67.6642 27.1678 66.5367 26.9159 65.5292 26.4122C64.5216 25.9084 63.73 25.2127 63.1542 24.3251C62.5785 23.4375 62.2906 22.418 62.2906 21.2665C62.2906 19.4193 62.9743 17.908 64.3417 16.7325C65.7331 15.557 67.8082 14.9693 70.5669 14.9693H75.6406C75.5927 13.6979 75.2208 12.6903 74.5251 11.9466C73.8534 11.179 72.9179 10.7952 71.7184 10.7952C70.6629 10.7952 69.7873 11.083 69.0916 11.6588C68.3959 12.2105 67.9521 12.9902 67.7602 13.9977H62.7224C62.9623 12.5584 63.4781 11.275 64.2697 10.1475C65.0854 8.99597 66.1409 8.10837 67.4363 7.48465C68.7557 6.83694 70.2311 6.51308 71.8623 6.51308C73.5416 6.51308 75.0529 6.86093 76.3963 7.55662C77.7637 8.2523 78.8312 9.24786 79.5989 10.5433C80.3665 11.8387 80.7504 13.362 80.7504 15.1132V26.808H75.6406V23.9653ZM70.387 23.1017C71.2266 23.1017 72.0423 22.9217 72.8339 22.5619C73.6495 22.2021 74.3212 21.6623 74.849 20.9426C75.3768 20.2229 75.6406 19.3713 75.6406 18.3878V18.2438H70.8548C69.7033 18.2438 68.8397 18.4717 68.2639 18.9275C67.7122 19.3833 67.4363 19.983 67.4363 20.7267C67.4363 21.4464 67.6882 22.0221 68.192 22.4539C68.7197 22.8857 69.4514 23.1017 70.387 23.1017Z" fill="#2D6A4F"/>
</svg>
