<svg xmlns="http://www.w3.org/2000/svg" version="1.1" xmlns:xlink="http://www.w3.org/1999/xlink" width="512" height="512" x="0" y="0" viewBox="0 0 48 48" style="enable-background:new 0 0 512 512" xml:space="preserve" class="hovered-paths"><g><path d="M43.46 26.24a25.071 25.071 0 0 1-5.08-1.91q-.75-.375-1.38-.72c-.83-.46-1.49-.87-1.92-1.15a.3.3 0 0 0-.08-.04 2 2 0 0 0-2.08.04 29.7 29.7 0 0 1-8.38 3.78A2.016 2.016 0 0 0 23 28.19v1.71a14.986 14.986 0 0 0 6.68 12.48l.93.62 2.28 1.52a1.935 1.935 0 0 0 .59.26h.01a1.472 1.472 0 0 0 .51.08 2.039 2.039 0 0 0 1.11-.34l3.21-2.14A14.986 14.986 0 0 0 45 29.9v-1.71a2.016 2.016 0 0 0-1.54-1.95zm-5.75 5.47-4 4a1.014 1.014 0 0 1-1.42 0l-2-2a1 1 0 0 1 1.42-1.42l1.29 1.3 3.29-3.3a1 1 0 0 1 1.42 1.42z" fill="#212e34" opacity="1" data-original="#000000" class="hovered-path"></path><path d="M35.58 13.24 27.03 4.5A4.994 4.994 0 0 0 26 3.7V11a3.009 3.009 0 0 0 3 3h7.19a5.49 5.49 0 0 0-.61-.76zM36.94 16H29a5 5 0 0 1-5-5V3.04a3.272 3.272 0 0 0-.54-.04H8a5 5 0 0 0-5 5v32a5 5 0 0 0 5 5h22.01l-1.44-.96A16.967 16.967 0 0 1 21 29.9v-1.71A4 4 0 0 1 22.59 25H10a1 1 0 0 1 0-2h17.74a31.621 31.621 0 0 0 4.09-2.22 4.04 4.04 0 0 1 3.96-.21l.07.03.3.18c.21.14.49.31.84.52v-4.56a4.524 4.524 0 0 0-.06-.74zM21 36a1 1 0 0 1-1 1H10a1 1 0 0 1 0-2h10a1 1 0 0 1 1 1zm-11-7h8a1 1 0 0 1 0 2h-8a1 1 0 0 1 0-2zm0-18h8a1 1 0 0 1 0 2h-8a1 1 0 0 1 0-2zm14 8H10a1 1 0 0 1 0-2h14a1 1 0 0 1 0 2z" fill="#212e34" opacity="1" data-original="#000000" class="hovered-path"></path></g></svg>