<svg xmlns="http://www.w3.org/2000/svg" version="1.1" xmlns:xlink="http://www.w3.org/1999/xlink" width="512" height="512" x="0" y="0" viewBox="0 0 512 512" style="enable-background:new 0 0 512 512" xml:space="preserve" class=""><g><path d="m391 250-120 40 120 40 120-40zM1 290l120 40 120-40-120-40zM260.743.77a15.005 15.005 0 0 0-9.487 0L136 39.189l120 40 120-40zM136 512l105-35V321.623l-105 35zM1 466.189a14.998 14.998 0 0 0 10.257 14.23L106 512V356.623l-105-35zM271 477l105 35V356.623l-105-35zM406 512l94.743-31.581A15 15 0 0 0 511 466.189V321.623l-105 35zM136 229l105 35V105.812L136 70.811zM376 229V70.811l-105 35.001V264z" fill="#212e34" opacity="1" data-original="#000000" class=""></path></g></svg>