<svg xmlns="http://www.w3.org/2000/svg" version="1.1" xmlns:xlink="http://www.w3.org/1999/xlink" width="512" height="512" x="0" y="0" viewBox="0 0 32 32" style="enable-background:new 0 0 512 512" xml:space="preserve" class=""><g><path d="M3.33 5.98v17.91a4.993 4.993 0 0 0 4.98 4.98h6.74a7.016 7.016 0 0 1 .59-2 7.632 7.632 0 0 1 4.08-3.92 4.896 4.896 0 0 1-2.11-4.04 4.955 4.955 0 0 1 4.95-4.95 4.718 4.718 0 0 1 1.41.21 4.905 4.905 0 0 1 2 1.16V5.98A4.98 4.98 0 0 0 20.99 1H8.31a4.987 4.987 0 0 0-4.98 4.98zm6.04-.02h10.56a1 1 0 0 1 0 2H9.37a1 1 0 0 1 0-2zm0 5.32h10.56a1 1 0 0 1 0 2H9.37a1 1 0 0 1 0-2zm0 5.31h4.8a1 1 0 1 1 0 2h-4.8a1 1 0 1 1 0-2z" fill="#000000" opacity="1" data-original="#000000" class=""></path><circle cx="22.56" cy="18.91" r="3.45" fill="#000000" opacity="1" data-original="#000000" class=""></circle><path d="M17.46 31h10.21a1.003 1.003 0 0 0 1-1 6.105 6.105 0 0 0-12.21 0 1.003 1.003 0 0 0 1 1z" fill="#000000" opacity="1" data-original="#000000" class=""></path></g></svg>