<svg width="512" height="512" viewBox="0 0 512 512" fill="none" xmlns="http://www.w3.org/2000/svg">
<g clip-path="url(#clip0_17_2)">
<path d="M502 492H490V140.058C490 134.535 485.522 130.058 480 130.058H416C410.478 130.058 406 134.535 406 140.058V283.334C406 288.857 410.478 293.334 416 293.334C421.522 293.334 426 288.857 426 283.334V150.058H470V492H426V362.333C426 356.81 421.522 352.333 416 352.333C410.478 352.333 406 356.81 406 362.333V492H362V289C362 283.477 357.522 279 352 279H288C282.478 279 278 283.477 278 289V492H234V202C234 196.477 229.522 192 224 192H160C154.478 192 150 196.477 150 202V492H106V340C106 334.477 101.522 330 96 330H32C26.478 330 22 334.477 22 340V492H10C4.478 492 0 496.477 0 502C0 507.523 4.478 512 10 512H502C507.522 512 512 507.523 512 502C512 496.477 507.522 492 502 492Z" fill="#212E34"/>
<path d="M423.069 313.96C421.21 312.1 418.63 311.03 416 311.03C413.37 311.03 410.79 312.1 408.93 313.96C407.07 315.82 406 318.4 406 321.03C406 323.66 407.069 326.24 408.93 328.1C410.79 329.96 413.37 331.03 416 331.03C418.63 331.03 421.21 329.96 423.069 328.1C424.929 326.24 426 323.66 426 321.03C426 318.4 424.93 315.82 423.069 313.96ZM64 191.763C44.149 191.763 28 207.912 28 227.763C28 247.614 44.149 263.763 64 263.763C83.851 263.763 100 247.614 100 227.763C100 207.912 83.851 191.763 64 191.763ZM64 243.763C55.178 243.763 48 236.585 48 227.763C48 218.941 55.178 211.763 64 211.763C72.822 211.763 80 218.941 80 227.763C80 236.585 72.822 243.763 64 243.763ZM448 0C428.149 0 412 16.149 412 36C412 42.297 413.63 48.219 416.483 53.374L337.375 132.483C332.058 129.537 326.078 127.994 320 128C312.546 127.994 305.276 130.316 299.205 134.642L225.274 75.728C227.077 71.3759 228.003 66.7108 228 62C228 42.149 211.851 26 192 26C172.149 26 156 42.149 156 62C155.993 69.6429 158.432 77.0874 162.961 83.244L117.99 141.482C114.615 145.854 115.422 152.134 119.794 155.509C121.541 156.862 123.688 157.596 125.898 157.594C127.428 157.596 128.938 157.247 130.312 156.572C131.686 155.898 132.886 154.917 133.82 153.705L178.784 95.475C182.99 97.1447 187.475 98.0015 192 98C199.454 98.0055 206.724 95.6839 212.795 91.359L286.726 150.273C284.923 154.625 283.997 159.29 284 164C284 183.851 300.149 200 320 200C339.851 200 356 183.851 356 164C356 157.703 354.37 151.781 351.517 146.626L430.625 67.517C435.942 70.4629 441.922 72.0058 448 72C467.851 72 484 55.851 484 36C484 16.149 467.851 0 448 0ZM192 78C183.178 78 176 70.822 176 62C176 53.178 183.178 46 192 46C200.822 46 208 53.178 208 62C208 70.822 200.822 78 192 78ZM320 180C311.178 180 304 172.822 304 164C304 155.178 311.178 148 320 148C328.822 148 336 155.178 336 164C336 172.822 328.822 180 320 180ZM448 52C439.178 52 432 44.822 432 36C432 27.178 439.178 20 448 20C456.822 20 464 27.178 464 36C464 44.822 456.822 52 448 52ZM108.66 172.02C106.776 170.151 104.233 169.099 101.58 169.09C98.95 169.09 96.38 170.16 94.51 172.02C92.65 173.88 91.59 176.46 91.59 179.09C91.59 181.72 92.65 184.3 94.51 186.16C96.38 188.02 98.95 189.09 101.58 189.09C104.233 189.081 106.776 188.029 108.66 186.16C110.519 184.3 111.58 181.72 111.58 179.09C111.58 176.46 110.519 173.88 108.66 172.02Z" fill="#212E34"/>
</g>
<defs>
<clipPath id="clip0_17_2">
<rect width="512" height="512" fill="white"/>
</clipPath>
</defs>
</svg>
