<svg xmlns="http://www.w3.org/2000/svg" version="1.1" xmlns:xlink="http://www.w3.org/1999/xlink" width="512" height="512" x="0" y="0" viewBox="0 0 173.397 173.397" style="enable-background:new 0 0 512 512" xml:space="preserve" fill-rule="evenodd" class=""><g><path d="M159.127 95.64h-.054a3.056 3.056 0 0 1-3.04-2.984c-.018-.796.037-1.623.087-2.418.078-1.22.175-2.44.27-3.66.43-5.589.798-11.177.84-16.785.031-3.962-.062-8.163-.685-12.079-.285-1.792-1.015-5.48-2.586-6.632-.263-.193-.565-.252-.874-.236v-6.098c1.565-.029 3.1.398 4.479 1.408 3.982 2.915 5.056 9.688 5.477 14.254.318 3.45.365 6.953.305 10.416-.065 3.789-.267 7.578-.52 11.359a513.15 513.15 0 0 1-.353 4.862c-.088 1.146-.178 2.293-.252 3.44-.043.66-.1 1.373-.085 2.033.04 1.689-1.31 3.118-3.009 3.12zm-18.203 61.37a3.052 3.052 0 0 1-3.052-3.051v-7.302c.838.579 1.778.938 2.832.974.074.003.148.003.222.002.076.001.152 0 .228-.002 1.05-.039 1.987-.398 2.822-.974v7.302a3.052 3.052 0 0 1-3.052 3.052zM97.034 18.906v20h20z" fill="#212e34" opacity="1" data-original="#000000" class=""></path><path d="M10.03 16.387v135.79h109.524V42.47H95.253a1.782 1.782 0 0 1-1.782-1.782V16.386H10.03zm32.508 28.812h44.506a1.782 1.782 0 0 1 0 3.563H42.538a1.782 1.782 0 1 1 0-3.563zM31.23 72.741h67.124a1.783 1.783 0 0 1 0 3.564H31.23a1.782 1.782 0 1 1 0-3.564zm0 22.8h67.124a1.782 1.782 0 0 1 0 3.564H31.23a1.782 1.782 0 1 1 0-3.563zm0 22.801h67.124a1.782 1.782 0 1 1 0 3.563H31.23a1.782 1.782 0 1 1 0-3.563zM148.443 109.713h-15.038c.122 13.332 1.59 21.366 2.835 25.807 1.728 6.177 3.718 7.948 4.604 8.05a1.77 1.77 0 0 1 .16 0c.887-.102 2.876-1.873 4.604-8.05 1.242-4.44 2.714-12.475 2.835-25.807zM132.825 44.09v62.06h16.195V44.09c0-4.464-3.632-8.097-8.096-8.097s-8.1 3.633-8.1 8.098zm8.099 46.243a1.782 1.782 0 0 1-1.782-1.782v-34.96a1.782 1.782 0 0 1 3.564 0v34.96c0 .984-.798 1.782-1.782 1.782z" fill="#212e34" opacity="1" data-original="#000000" class=""></path></g></svg>