<svg width="42" height="42" viewBox="0 0 42 42" fill="none" xmlns="http://www.w3.org/2000/svg">
<rect width="42" height="42" fill="#087FF5"/>
<path d="M21 21.75C17.83 21.75 15.25 19.17 15.25 16C15.25 12.83 17.83 10.25 21 10.25C24.17 10.25 26.75 12.83 26.75 16C26.75 19.17 24.17 21.75 21 21.75ZM21 11.75C18.66 11.75 16.75 13.66 16.75 16C16.75 18.34 18.66 20.25 21 20.25C23.34 20.25 25.25 18.34 25.25 16C25.25 13.66 23.34 11.75 21 11.75ZM29.59 31.75C29.18 31.75 28.84 31.41 28.84 31C28.84 27.55 25.32 24.75 21 24.75C16.68 24.75 13.16 27.55 13.16 31C13.16 31.41 12.82 31.75 12.41 31.75C12 31.75 11.66 31.41 11.66 31C11.66 26.73 15.85 23.25 21 23.25C26.15 23.25 30.34 26.73 30.34 31C30.34 31.41 30 31.75 29.59 31.75Z" fill="white"/>
</svg>
