<?xml version="1.0" standalone="no"?>
<!DOCTYPE svg PUBLIC "-//W3C//DTD SVG 1.1//EN" "http://www.w3.org/Graphics/SVG/1.1/DTD/svg11.dtd" >
<svg xmlns="http://www.w3.org/2000/svg" xmlns:xlink="http://www.w3.org/1999/xlink" version="1.1">
<metadata>
Created by FontForge 20190801 at Mon Sep  5 09:39:48 2022
 By www-data
Copyright by Pangram Pangram Foundry. All rights reserved.
</metadata>
<defs>
<font id="ppneuemontrealbook" horiz-adv-x="0" >
  <font-face 
    font-family="ppneuemontrealbook"
    font-weight="400"
    font-stretch="normal"
    units-per-em="1000"
    panose-1="0 0 5 0 0 0 0 0 0 0"
    ascent="800"
    descent="-200"
    x-height="510"
    cap-height="715"
    bbox="-171 -223 2072 936"
    underline-thickness="49"
    underline-position="-29"
    unicode-range="U+000D-1F150"
  />
<missing-glyph horiz-adv-x="659" 
 />
    <glyph glyph-name="f_f" unicode="ff" horiz-adv-x="500" 
d="M156 0h-65v453h-72v57h72v75q0 79 28.5 107.5t88.5 28.5q18 0 49 -4v-55q-36 2 -40 2q-37 0 -49 -15.5t-12 -62.5v-76h173v75q0 79 28.5 107.5t88.5 28.5q18 0 49 -4v-55q-36 2 -40 2q-37 0 -49 -15.5t-12 -62.5v-76h101v-57h-101v-453h-65v453h-173v-453z" />
    <glyph glyph-name="f_f_i" unicode="ffi" horiz-adv-x="687" 
d="M156 0h-65v453h-72v57h72v75q0 79 28.5 107.5t88.5 28.5q18 0 49 -4v-55q-36 2 -40 2q-37 0 -49 -15.5t-12 -62.5v-76h173v75q0 79 28.5 107.5t88.5 28.5q18 0 49 -4v-55q-36 2 -40 2q-37 0 -49 -15.5t-12 -62.5v-76h101v-57h-101v-453h-65v453h-173v-453zM637 612h-84
v84h84v-84zM627 0h-65v510h65v-510z" />
    <glyph glyph-name="f_i" unicode="fi" horiz-adv-x="451" 
d="M91 510v75q0 79 28.5 107.5t88.5 28.5q18 0 49 -4v-55q-36 2 -40 2q-37 0 -49 -15.5t-12 -62.5v-76h101v-57h-101v-453h-65v453h-72v57h72zM317 612v84h84v-84h-84zM391 0h-65v510h65v-510z" />
    <glyph glyph-name="f_l" unicode="fl" horiz-adv-x="451" 
d="M91 510v75q0 79 28.5 107.5t88.5 28.5q18 0 49 -4v-55q-36 2 -40 2q-37 0 -49 -15.5t-12 -62.5v-76h101v-57h-101v-453h-65v453h-72v57h72zM326 0v715h65v-715h-65z" />
    <glyph glyph-name=".notdef" horiz-adv-x="659" 
 />
    <glyph glyph-name=".null" 
 />
    <glyph glyph-name="nonmarkingreturn" horiz-adv-x="333" 
 />
    <glyph glyph-name="CR" unicode="&#xd;" horiz-adv-x="219" 
 />
    <glyph glyph-name="space" unicode=" " horiz-adv-x="219" 
 />
    <glyph glyph-name="exclam" unicode="!" horiz-adv-x="208" 
d="M124 184h-41l-17 315v216h75v-216zM146 0h-84v84h84v-84z" />
    <glyph glyph-name="quotedbl" unicode="&#x22;" horiz-adv-x="299" 
d="M107 478h-51l-8 237h67zM243 478h-50l-8 237h66z" />
    <glyph glyph-name="numbersign" unicode="#" horiz-adv-x="565" 
d="M536 491l-11 -57h-107l-31 -163h117l-10 -58h-118l-41 -213h-59l41 213h-131l-41 -213h-59l41 213h-95l10 58h96l32 163h-106l10 57h107l38 198h58l-38 -198h132l38 198h58l-38 -198h107zM197 271h131l32 163h-132z" />
    <glyph glyph-name="dollar" unicode="$" horiz-adv-x="584" 
d="M550 179q0 -81 -58 -134.5t-167 -57.5v-88h-50v90q-106 9 -173 71t-74 166h69q15 -160 178 -176v280q-45 10 -79.5 23t-68 33.5t-51.5 52.5t-18 73q0 82 58.5 131.5t158.5 52.5v74h50v-76q89 -10 144 -63t61 -143h-69q-14 127 -136 143v-250q121 -33 173 -74t52 -128z
M127 518q0 -50 36.5 -76.5t111.5 -47.5v240q-69 -2 -108.5 -33t-39.5 -83zM480 176q1 58 -33.5 88.5t-121.5 53.5v-270q153 5 155 128z" />
    <glyph glyph-name="percent" unicode="%" horiz-adv-x="783" 
d="M181 313q-77 0 -117 54.5t-40 138.5q0 85 40 139.5t117 54.5q76 0 116 -55t40 -139t-39.5 -138.5t-116.5 -54.5zM229 0h-67l393 689h66zM181 368q48 0 72 38.5t24 99.5q0 62 -24 100.5t-72 38.5q-49 0 -73 -38.5t-24 -100.5t24 -100t73 -38zM604 -13q-76 0 -116.5 55
t-40.5 139t40 139t117 55q76 0 116.5 -55t40.5 -139t-40 -139t-117 -55zM604 42q49 0 72.5 38.5t23.5 100.5t-24 100t-72 38t-72 -38t-24 -100t23.5 -100.5t72.5 -38.5z" />
    <glyph glyph-name="ampersand" unicode="&#x26;" horiz-adv-x="594" 
d="M490 133l106 -133h-78l-65 81q-82 -94 -208 -94q-98 0 -155.5 53t-57.5 136q0 40 14 74t41.5 61t52.5 44.5t62 38.5q-44 55 -65 94t-21 84q0 63 42 109.5t119 46.5q75 0 118 -45.5t43 -111.5q0 -59 -36 -99.5t-113 -87.5l157 -197q33 65 44 152h66q-14 -117 -66 -206z
M277 667q-45 0 -70 -28t-25 -67q0 -57 74 -147q59 34 87.5 66t28.5 76t-25.5 72t-69.5 28zM246 51q102 0 166 81l-176 220q-68 -40 -103 -77.5t-35 -93.5q0 -58 40 -94t108 -36z" />
    <glyph glyph-name="quotesingle" unicode="'" horiz-adv-x="163" 
d="M107 478h-51l-8 237h67z" />
    <glyph glyph-name="parenleft" unicode="(" horiz-adv-x="250" 
d="M233 -117h-59q-137 190 -137 434q0 248 137 438h59q-59 -102 -91 -205.5t-32 -232.5q0 -126 32 -229t91 -205z" />
    <glyph glyph-name="parenright" unicode=")" horiz-adv-x="250" 
d="M76 -117h-59q59 102 91 205.5t32 232.5q0 126 -32 229t-91 205h59q137 -190 137 -434q0 -248 -137 -438z" />
    <glyph glyph-name="asterisk" unicode="*" horiz-adv-x="440" 
d="M220 503l-89 -116l-42 30l87 111l-136 44l18 44l135 -42l-1 141h55l-1 -141l136 42l18 -44l-136 -44l87 -111l-42 -30z" />
    <glyph glyph-name="plus" unicode="+" horiz-adv-x="542" 
d="M304 98h-66l1 196h-189v64h189l-1 195h66v-195h189v-64h-189v-196z" />
    <glyph glyph-name="comma" unicode="," horiz-adv-x="182" 
d="M49 -121v43q24 9 33 25.5t8 52.5h-41v84h84v-84q0 -47 -18 -76.5t-66 -44.5z" />
    <glyph glyph-name="hyphen" unicode="-" horiz-adv-x="351" 
d="M309 223h-268v64h268v-64z" />
    <glyph glyph-name="period" unicode="." horiz-adv-x="183" 
d="M133 0h-84v84h84v-84z" />
    <glyph glyph-name="slash" unicode="/" horiz-adv-x="373" 
d="M79 0h-66l281 715h66z" />
    <glyph glyph-name="zero" unicode="0" horiz-adv-x="615" 
d="M307 -13q-130 0 -195 100t-65 258t65 258.5t195 100.5t195.5 -100.5t65.5 -258.5t-65.5 -258t-195.5 -100zM307 51q96 0 140.5 82t44.5 212q0 131 -44.5 213t-140.5 82q-65 0 -107.5 -42t-59.5 -105.5t-17 -147.5q0 -83 17 -146.5t59.5 -105.5t107.5 -42z" />
    <glyph glyph-name="one" unicode="1" horiz-adv-x="309" 
d="M156 0v545q-23 -24 -57 -32t-87 -8v61q87 2 119.5 30.5t38.5 94.5h58v-691h-72z" />
    <glyph glyph-name="two" unicode="2" horiz-adv-x="549" 
d="M499 0h-468q0 179 204 293q108 62 132 81q59 46 63 114v12q0 59 -33 99.5t-106 40.5q-85 0 -125 -51t-40 -131h-75q0 107 62 176.5t179 69.5q92 0 153 -54.5t61 -148.5q0 -38 -12.5 -71t-29 -56t-48 -47.5t-53.5 -38t-61 -35.5q-37 -21 -51.5 -29.5t-44.5 -29.5
t-43.5 -37t-27 -40t-17.5 -51v-2h381v-64z" />
    <glyph glyph-name="three" unicode="3" horiz-adv-x="585" 
d="M302 -13q-126 0 -196 64.5t-70 179.5h76q0 -84 45 -132t140 -48q168 0 168 140q0 72 -44.5 105t-106.5 33h-74v64h70q58 0 93.5 32t35.5 92q0 52 -34.5 87.5t-103.5 35.5q-170 0 -170 -153h-76q0 97 63.5 157t182.5 60q89 0 151.5 -50.5t62.5 -136.5q0 -108 -108 -151v-2
q134 -42 134 -173q0 -96 -65 -150t-174 -54z" />
    <glyph glyph-name="four" unicode="4" horiz-adv-x="561" 
d="M435 0h-72v168h-338v64l338 459h72v-459h98v-64h-98v-168zM363 588l-263 -356h263v356z" />
    <glyph glyph-name="five" unicode="5" horiz-adv-x="557" 
d="M278 -13q-112 0 -175.5 61t-65.5 147h75q6 -64 45.5 -104t117.5 -40q76 0 122 47t46 136q0 82 -43 122t-116 40q-105 0 -159 -73h-78l73 368h363v-64h-304l-47 -231v-2q58 66 168 66q98 0 158.5 -64.5t60.5 -161.5q0 -110 -68 -178.5t-173 -68.5z" />
    <glyph glyph-name="six" unicode="6" horiz-adv-x="579" 
d="M301 -13q-253 0 -253 350q0 175 67 271t192 96q88 0 145.5 -52.5t64.5 -132.5h-75q-6 57 -41 89t-94 32q-186 0 -186 -293v-20l1 -1q23 60 75.5 91.5t116.5 31.5q99 0 160.5 -63t61.5 -164t-64 -168t-171 -67zM301 51q76 0 117.5 45t41.5 122q0 78 -41 122.5t-111 44.5
q-74 0 -123 -47t-49 -127q0 -69 43.5 -114.5t121.5 -45.5z" />
    <glyph glyph-name="seven" unicode="7" horiz-adv-x="501" 
d="M193 0h-76q0 164 80.5 345t197.5 280v2h-387v64h470v-56q-132 -107 -208.5 -287.5t-76.5 -347.5z" />
    <glyph glyph-name="eight" unicode="8" horiz-adv-x="590" 
d="M295 -13q-110 0 -181.5 54t-71.5 152q0 122 133 176v2q-99 49 -99 150q0 85 61 134t158 49t158 -49t61 -134q0 -101 -99 -150v-2q133 -55 133 -176q0 -98 -71.5 -152t-181.5 -54zM295 402q66 0 104.5 30.5t38.5 88.5t-38.5 88.5t-104.5 30.5t-104.5 -30.5t-38.5 -88.5
t38.5 -88.5t104.5 -30.5zM295 51q80 0 128.5 38t48.5 107q0 66 -48.5 104t-128.5 38t-128.5 -38t-48.5 -104q0 -69 48.5 -107t128.5 -38z" />
    <glyph glyph-name="nine" unicode="9" horiz-adv-x="580" 
d="M272 -13q-88 0 -145.5 52.5t-64.5 132.5h75q7 -57 41.5 -89t93.5 -32q187 0 187 293v20l-2 1q-23 -60 -75.5 -91.5t-116.5 -31.5q-99 0 -160.5 63t-61.5 164t64 168t171 67q253 0 253 -350q0 -175 -67 -271t-192 -96zM271 307q74 0 123 46.5t49 126.5q0 69 -43.5 114.5
t-121.5 45.5q-76 0 -117.5 -45t-41.5 -122t41 -121.5t111 -44.5z" />
    <glyph glyph-name="colon" unicode=":" horiz-adv-x="192" 
d="M138 305h-84v84h84v-84zM138 0h-84v84h84v-84z" />
    <glyph glyph-name="semicolon" unicode=";" horiz-adv-x="192" 
d="M138 305h-84v84h84v-84zM54 -121v43q24 9 33 25.5t8 52.5h-41v84h84v-84q0 -47 -18 -76.5t-66 -44.5z" />
    <glyph glyph-name="less" unicode="&#x3c;" horiz-adv-x="507" 
d="M449 171v-65l-402 169v75l402 168v-66l-347 -139v-2z" />
    <glyph glyph-name="equal" unicode="=" horiz-adv-x="540" 
d="M488 365h-436v63h436v-63zM488 224h-436v63h436v-63z" />
    <glyph glyph-name="greater" unicode="&#x3e;" horiz-adv-x="507" 
d="M460 274l-403 -168v65l347 139v2l-347 140v66l403 -169v-75z" />
    <glyph glyph-name="question" unicode="?" horiz-adv-x="477" 
d="M248 180h-73q0 47 8 82t27.5 62.5t35 43t47.5 41.5q35 29 48 40.5t28.5 39t15.5 59.5q0 53 -35.5 84t-99.5 31q-73 0 -117 -42.5t-44 -129.5h-73q0 104 61 170.5t171 66.5q95 0 152.5 -49t57.5 -130q0 -32 -8 -57t-29 -48.5t-31.5 -33t-40.5 -33.5q-51 -43 -66 -63
q-35 -47 -35 -134zM257 0h-84v84h84v-84z" />
    <glyph glyph-name="at" unicode="@" horiz-adv-x="867" 
d="M426 -104q-176 0 -284.5 108t-108.5 289q0 179 115.5 298.5t290.5 119.5q171 0 281 -107t110 -274q0 -123 -52.5 -185.5t-122.5 -62.5q-94 0 -116 98q-46 -97 -148 -97q-73 0 -120 56t-47 149q0 99 53.5 164t135.5 65q51 0 89.5 -27t52.5 -70h2l11 90h57l-33 -261
q-7 -51 10 -80t57 -29q52 0 82 50t30 138q0 147 -93 236.5t-239 89.5q-152 0 -249.5 -105.5t-97.5 -255.5q0 -151 93.5 -245t241.5 -94q103 0 183 33l21 -47q-87 -44 -205 -44zM401 141q64 0 101 51t37 128q0 67 -33 103.5t-84 36.5q-67 0 -103.5 -50.5t-36.5 -123.5
q0 -65 31 -105t88 -40z" />
    <glyph glyph-name="A" unicode="A" horiz-adv-x="635" 
d="M84 0h-75l267 715h82l269 -715h-78l-72 198h-321zM316 646l-136 -383h274l-136 383h-2z" />
    <glyph glyph-name="B" unicode="B" horiz-adv-x="654" 
d="M380 0h-304v715h285q106 0 166 -48t60 -132q0 -112 -113 -151v-2q63 -12 102.5 -57.5t39.5 -119.5q0 -99 -63.5 -152t-172.5 -53zM149 408h226q136 0 136 120q0 57 -34.5 90t-101.5 33h-226v-243zM149 64h234q157 0 157 141q0 63 -37.5 101t-101.5 38h-252v-280z" />
    <glyph glyph-name="C" unicode="C" horiz-adv-x="697" 
d="M368 -13q-145 0 -236.5 103.5t-91.5 266.5t91.5 267t237.5 104q122 0 201 -68.5t93 -172.5h-76q-6 32 -20.5 61.5t-39 56.5t-66 43t-93.5 16q-83 0 -141.5 -44t-84.5 -112t-26 -151q0 -129 65 -217.5t187 -88.5q105 0 160 59.5t62 143.5h76q-13 -119 -93 -193t-205 -74z
" />
    <glyph glyph-name="D" unicode="D" horiz-adv-x="687" 
d="M332 0h-256v715h259q148 0 229.5 -95.5t81.5 -263.5q0 -167 -82.5 -261.5t-231.5 -94.5zM149 64h183q65 0 112.5 23t74 64.5t39 92t12.5 112.5q0 50 -7 92t-24.5 80.5t-43.5 65t-67 42t-94 15.5h-185v-587z" />
    <glyph glyph-name="E" unicode="E" horiz-adv-x="603" 
d="M572 0h-496v715h485v-64h-412v-246h368v-64h-368v-277h423v-64z" />
    <glyph glyph-name="F" unicode="F" horiz-adv-x="567" 
d="M149 0h-73v715h478v-64h-405v-253h334v-64h-334v-334z" />
    <glyph glyph-name="G" unicode="G" horiz-adv-x="729" 
d="M364 -13q-153 0 -238 102.5t-85 267.5q0 162 91 266.5t241 104.5q125 0 200 -60t94 -165h-75q-16 77 -74 119t-145 42q-64 0 -115 -26.5t-80.5 -71.5t-45 -98t-15.5 -111q0 -47 7.5 -89.5t26 -82.5t46.5 -69.5t70.5 -47t96.5 -17.5q105 0 173.5 70t68.5 181h-237v65h310
v-367h-50l-22 127h-2q-75 -140 -241 -140z" />
    <glyph glyph-name="H" unicode="H" horiz-adv-x="703" 
d="M149 0h-73v715h73v-309h405v309h72v-715h-72v342h-405v-342z" />
    <glyph glyph-name="I" unicode="I" horiz-adv-x="225" 
d="M149 0h-73v715h73v-715z" />
    <glyph glyph-name="J" unicode="J" horiz-adv-x="496" 
d="M221 -13q-54 0 -94.5 18t-63 49.5t-33 69.5t-10.5 83v23h73v-23q0 -75 28.5 -115.5t99.5 -40.5t100.5 41t29.5 115v508h73v-508q0 -95 -49 -157.5t-154 -62.5z" />
    <glyph glyph-name="K" unicode="K" horiz-adv-x="629" 
d="M641 0h-85l-270 369l-137 -143v-226h-73v715h73v-404l386 404h83l-285 -297z" />
    <glyph glyph-name="L" unicode="L" horiz-adv-x="549" 
d="M535 0h-459v715h73v-651h386v-64z" />
    <glyph glyph-name="M" unicode="M" horiz-adv-x="839" 
d="M149 0h-73v715h101l241 -617h2l242 617h101v-715h-73v612h-2l-236 -612h-66l-235 612h-2v-612z" />
    <glyph glyph-name="N" unicode="N" horiz-adv-x="703" 
d="M149 0h-73v715h89l387 -612h2v612h73v-715h-89l-387 612h-2v-612z" />
    <glyph glyph-name="O" unicode="O" horiz-adv-x="767" 
d="M384 -13q-154 0 -249 104t-95 267t95 266.5t249 103.5q153 0 248 -103.5t95 -266.5t-95 -267t-248 -104zM384 51q127 0 197 87t70 220t-70 219.5t-197 86.5q-128 0 -198 -86.5t-70 -219.5t70 -220t198 -87z" />
    <glyph glyph-name="P" unicode="P" horiz-adv-x="605" 
d="M149 0h-73v715h275q106 0 168.5 -49.5t62.5 -156.5t-62.5 -157t-168.5 -50h-202v-302zM149 366h209q148 0 148 143q0 142 -148 142h-209v-285z" />
    <glyph glyph-name="Q" unicode="Q" horiz-adv-x="767" 
d="M727 358q0 -158 -90 -262l88 -88l-46 -46l-90 90q-87 -65 -205 -65q-154 0 -249 104t-95 267t95 266.5t249 103.5q153 0 248 -103.5t95 -266.5zM384 51q92 0 157 49l-96 97l46 45l96 -96q64 84 64 212q0 133 -70 219.5t-197 86.5q-128 0 -198 -86.5t-70 -219.5t70 -220
t198 -87z" />
    <glyph glyph-name="R" unicode="R" horiz-adv-x="640" 
d="M149 0h-73v715h280q114 0 174.5 -52t60.5 -150q0 -70 -36.5 -117.5t-96.5 -62.5v-2q46 -9 74 -45t37.5 -81t13 -88.5t7.5 -75.5t14 -35v-6h-78q-8 7 -10.5 41.5t-5.5 76t-13.5 83t-43.5 69t-86 27.5h-218v-297zM149 361h189q86 0 133 38.5t47 112.5q0 70 -42 104.5
t-133 34.5h-194v-290z" />
    <glyph glyph-name="S" unicode="S" horiz-adv-x="616" 
d="M333 -13q-132 0 -215.5 66t-90.5 184h76q8 -87 63.5 -136.5t163.5 -49.5q93 0 135 38.5t42 103.5q0 26 -5 46t-20 35t-29 24.5t-44.5 19.5t-53 16t-68.5 16q-53 12 -87 24t-70.5 33.5t-54.5 55.5t-18 81q0 85 64 134.5t174 49.5q117 0 186.5 -57t77.5 -162h-76
q-19 155 -188 155q-78 0 -120 -30.5t-42 -86.5q0 -28 10.5 -49.5t25 -34.5t43.5 -24t50 -16.5t61 -14.5q65 -14 104.5 -27t79 -36.5t58 -60.5t18.5 -89q0 -92 -64 -150t-186 -58z" />
    <glyph glyph-name="T" unicode="T" horiz-adv-x="588" 
d="M330 0h-72v651h-243v64h559v-64h-244v-651z" />
    <glyph glyph-name="U" unicode="U" horiz-adv-x="680" 
d="M340 -13q-136 0 -202.5 67.5t-66.5 186.5v474h73v-474q0 -190 196 -190t196 190v474h73v-474q0 -119 -66.5 -186.5t-202.5 -67.5z" />
    <glyph glyph-name="V" unicode="V" horiz-adv-x="616" 
d="M347 0h-76l-261 715h79l220 -641h1l218 641h76z" />
    <glyph glyph-name="W" unicode="W" horiz-adv-x="901" 
d="M277 0h-80l-180 715h77l146 -611h2l168 611h81l168 -611h3l146 611h76l-179 -715h-81l-172 629h-3z" />
    <glyph glyph-name="X" unicode="X" horiz-adv-x="573" 
d="M86 0h-87l247 367l-230 348h82l190 -296h1l190 296h81l-231 -349l243 -366h-86l-202 313h-1z" />
    <glyph glyph-name="Y" unicode="Y" horiz-adv-x="618" 
d="M345 0h-73v293l-261 422h79l218 -365h2l219 365h78l-262 -422v-293z" />
    <glyph glyph-name="Z" unicode="Z" horiz-adv-x="588" 
d="M566 0h-548v64l449 585v2h-429v64h518v-64l-449 -585v-2h459v-64z" />
    <glyph glyph-name="bracketleft" unicode="[" horiz-adv-x="264" 
d="M246 -117h-175v872h175v-64h-103v-744h103v-64z" />
    <glyph glyph-name="backslash" unicode="\" horiz-adv-x="373" 
d="M361 0h-66l-281 715h65z" />
    <glyph glyph-name="bracketright" unicode="]" horiz-adv-x="264" 
d="M194 -117h-175v64h102v744h-102v64h175v-872z" />
    <glyph glyph-name="asciicircum" unicode="^" horiz-adv-x="460" 
d="M99 440h-73l171 275h67l170 -275h-72l-131 215h-1z" />
    <glyph glyph-name="underscore" unicode="_" horiz-adv-x="555" 
d="M535 -140h-514v64h514v-64z" />
    <glyph glyph-name="grave" unicode="`" horiz-adv-x="210" 
d="M169 593h-54l-80 132h79z" />
    <glyph glyph-name="a" unicode="a" horiz-adv-x="514" 
d="M200 -13q-76 0 -121.5 39t-45.5 103q0 78 51 113.5t159 54.5q87 16 108 28q30 17 30 54q0 87 -116 87q-73 0 -104 -26t-35 -84h-69q4 74 55 120.5t155 46.5q78 0 127.5 -38.5t49.5 -123.5v-255q0 -32 6 -46t23 -14q8 0 14 1v-47q-22 -4 -34 -4q-34 0 -51.5 17.5
t-20.5 63.5h-2q-54 -90 -179 -90zM208 44q79 0 126 39.5t47 107.5v95q-18 -25 -130 -43q-79 -14 -114.5 -37.5t-35.5 -70.5q0 -91 107 -91z" />
    <glyph glyph-name="b" unicode="b" horiz-adv-x="557" 
d="M299 523q97 0 161 -72.5t64 -195.5q0 -122 -64 -194.5t-161 -72.5q-118 0 -172 99h-2v-87h-65v715h65v-287h2q58 95 172 95zM292 45q77 0 120.5 60t43.5 150t-43.5 151t-120.5 61q-74 0 -120.5 -58t-46.5 -154q0 -95 46.5 -152.5t120.5 -57.5z" />
    <glyph glyph-name="c" unicode="c" horiz-adv-x="522" 
d="M276 -13q-109 0 -176.5 74t-67.5 194q0 119 67.5 193t176.5 74q91 0 151 -54t68 -137h-68q-4 51 -41.5 92.5t-109.5 41.5q-87 0 -131.5 -61.5t-44.5 -148.5q0 -88 44.5 -150t131.5 -62q73 0 110 42t41 97h68q-5 -84 -66 -139.5t-153 -55.5z" />
    <glyph glyph-name="d" unicode="d" horiz-adv-x="557" 
d="M431 424v291h65v-715h-65v83h-2q-56 -96 -172 -96q-96 0 -160 72.5t-64 195.5q0 122 64 194.5t160 72.5q118 0 172 -98h2zM265 44q74 0 120 57.5t46 153.5q0 95 -46 152.5t-120 57.5q-77 0 -120.5 -60t-43.5 -150t43.5 -150.5t120.5 -60.5z" />
    <glyph glyph-name="e" unicode="e" horiz-adv-x="537" 
d="M506 278q0 -28 -1 -36h-404q1 -84 46 -142t130 -58q70 0 108 36t48 78h66q-20 -76 -76 -123t-147 -47q-114 0 -178.5 74.5t-64.5 194.5q0 122 66.5 195t176.5 73q108 0 169 -68t61 -177zM101 299h336q0 71 -44 119.5t-120 48.5q-73 0 -120.5 -48t-51.5 -120z" />
    <glyph glyph-name="f" unicode="f" horiz-adv-x="262" 
d="M217 664q-37 0 -49 -15.5t-12 -62.5v-76h101v-57h-101v-453h-65v453h-72v57h72v75q0 79 28.5 107.5t88.5 28.5q18 0 49 -4v-55q-36 2 -40 2z" />
    <glyph glyph-name="g" unicode="g" horiz-adv-x="557" 
d="M433 430v80h65v-478q0 -106 -61 -160.5t-169 -54.5q-100 0 -156.5 43t-62.5 113h68q18 -99 152 -99q164 0 164 149v95h-2q-53 -94 -172 -94q-97 0 -160.5 64t-63.5 186q0 120 63.5 184t160.5 64q118 0 172 -92h2zM268 81q74 0 119.5 49t45.5 144q0 93 -45.5 142
t-119.5 49q-78 0 -121.5 -52t-43.5 -139q0 -89 43.5 -141t121.5 -52z" />
    <glyph glyph-name="h" unicode="h" horiz-adv-x="525" 
d="M302 522q73 0 120 -41.5t47 -122.5v-358h-65v344q0 54 -28 87.5t-90 33.5q-71 0 -116 -42.5t-45 -100.5v-322h-65v715h65v-278h2q59 85 175 85z" />
    <glyph glyph-name="i" unicode="i" horiz-adv-x="185" 
d="M134 612h-84v84h84v-84zM125 0h-65v510h65v-510z" />
    <glyph glyph-name="j" unicode="j" horiz-adv-x="185" 
d="M134 612h-84v84h84v-84zM25 -180q-22 0 -49 4v55q30 -2 38 -2q25 0 35.5 17.5t10.5 61.5v554h65v-559q0 -131 -100 -131z" />
    <glyph glyph-name="k" unicode="k" horiz-adv-x="470" 
d="M483 0h-77l-193 282l-88 -82v-200h-65v715h65v-445l253 240h80l-201 -187z" />
    <glyph glyph-name="l" unicode="l" horiz-adv-x="185" 
d="M125 0h-65v715h65v-715z" />
    <glyph glyph-name="m" unicode="m" horiz-adv-x="796" 
d="M590 522q73 0 111.5 -42t38.5 -122v-358h-65v344q0 56 -20.5 88.5t-78.5 32.5q-65 0 -104 -42.5t-39 -100.5v-322h-65v344q0 56 -21 88.5t-79 32.5q-64 0 -103.5 -42.5t-39.5 -100.5v-322h-65v510h65v-72h2q55 84 155 84q108 0 137 -94h2q61 94 169 94z" />
    <glyph glyph-name="n" unicode="n" horiz-adv-x="525" 
d="M302 522q73 0 120 -41.5t47 -122.5v-358h-65v344q0 54 -28 87.5t-90 33.5q-71 0 -116 -42.5t-45 -100.5v-322h-65v510h65v-73h2q59 85 175 85z" />
    <glyph glyph-name="o" unicode="o" horiz-adv-x="554" 
d="M277 -14q-113 0 -179 74t-66 194q0 121 66 195t179 74t179 -74t66 -195q0 -120 -66 -194t-179 -74zM277 43q86 0 131.5 59.5t45.5 151.5q0 93 -45.5 152.5t-131.5 59.5t-131.5 -59.5t-45.5 -152.5q0 -92 45.5 -151.5t131.5 -59.5z" />
    <glyph glyph-name="p" unicode="p" horiz-adv-x="557" 
d="M299 523q97 0 161 -72.5t64 -195.5q0 -122 -64 -194.5t-161 -72.5q-118 0 -172 98h-2v-263h-65v687h65v-82h2q58 95 172 95zM292 45q77 0 120.5 60t43.5 150t-43.5 150.5t-120.5 60.5q-74 0 -120.5 -57.5t-46.5 -153.5q0 -95 46.5 -152.5t120.5 -57.5z" />
    <glyph glyph-name="q" unicode="q" horiz-adv-x="556" 
d="M431 424v86h65v-687h-65v260h-2q-56 -96 -172 -96q-96 0 -160 72.5t-64 195.5q0 122 64 194.5t160 72.5q118 0 172 -98h2zM265 44q74 0 120 57.5t46 153.5q0 95 -46 152.5t-120 57.5q-77 0 -120.5 -60t-43.5 -150t43.5 -150.5t120.5 -60.5z" />
    <glyph glyph-name="r" unicode="r" horiz-adv-x="325" 
d="M272 522q26 0 44 -3v-64q-15 3 -31 3q-69 0 -114.5 -49.5t-45.5 -123.5v-285h-65v510h65v-104h2q45 116 145 116z" />
    <glyph glyph-name="s" unicode="s" horiz-adv-x="472" 
d="M248 -13q-104 0 -163 50.5t-61 129.5h68q3 -56 42 -89.5t115 -33.5q68 0 99 26.5t31 68.5q0 14 -4 25.5t-8.5 19.5t-15.5 15.5t-18.5 11.5t-23.5 9t-24 7t-27 6t-26 6q-39 10 -57 15t-49 18t-45 26t-26 35.5t-12 51.5q0 63 48 100t133 37q94 0 145.5 -43.5t58.5 -111.5
h-68q-20 98 -135 98q-55 0 -84.5 -20t-29.5 -56q0 -10 2 -19t7.5 -16.5t10.5 -12.5t15.5 -10.5t17.5 -8.5t21.5 -7t22 -6t24.5 -6t25 -6q45 -11 72 -20t58 -26.5t46 -44.5t15 -65q0 -70 -53 -112t-147 -42z" />
    <glyph glyph-name="t" unicode="t" horiz-adv-x="280" 
d="M256 510v-57h-103v-322q0 -47 13 -62.5t51 -15.5q9 0 39 2v-55q-27 -4 -48 -4q-61 0 -90.5 29t-29.5 107v321h-75v57h75v170h65v-170h103z" />
    <glyph glyph-name="u" unicode="u" horiz-adv-x="525" 
d="M400 188v322h65v-510h-65v72h-2q-58 -84 -175 -84q-73 0 -120 41.5t-47 122.5v358h65v-344q0 -54 28 -87.5t90 -33.5q71 0 116 42.5t45 100.5z" />
    <glyph glyph-name="v" unicode="v" horiz-adv-x="468" 
d="M271 0h-74l-187 510h72l153 -444h1l152 444h70z" />
    <glyph glyph-name="w" unicode="w" horiz-adv-x="737" 
d="M247 0h-72l-162 510h72l127 -436h2l119 436h73l119 -436h2l128 436h70l-163 -510h-73l-120 431h-2z" />
    <glyph glyph-name="x" unicode="x" horiz-adv-x="467" 
d="M72 0h-78l200 261l-184 249h79l144 -203h2l143 203h78l-183 -249l201 -261h-79l-161 217h-2z" />
    <glyph glyph-name="y" unicode="y" horiz-adv-x="481" 
d="M105 -179q-21 0 -49 4v56q23 -3 39 -3q78 0 115 125l-206 507h72l166 -425h2l158 425h70l-204 -525q-36 -93 -73 -128.5t-90 -35.5z" />
    <glyph glyph-name="z" unicode="z" horiz-adv-x="441" 
d="M422 0h-404v50l303 401v2h-287v57h377v-41l-309 -410v-2h320v-57z" />
    <glyph glyph-name="braceleft" unicode="{" horiz-adv-x="276" 
d="M254 -117h-17q-82 0 -115 40t-33 149v118q0 97 -65 97v64q34 -1 49.5 25t15.5 71v123q0 109 32.5 147t115.5 38h17v-64h-17q-41 0 -58.5 -24t-17.5 -88v-152q0 -74 -60 -107v-2q60 -33 60 -108v-147q0 -66 17.5 -91t58.5 -25h17v-64z" />
    <glyph glyph-name="bar" unicode="|" horiz-adv-x="211" 
d="M135 -128h-59v872h59v-872z" />
    <glyph glyph-name="braceright" unicode="}" horiz-adv-x="276" 
d="M38 -117h-16v64h16q42 0 59 24t17 88v152q0 73 60 107v2q-60 34 -60 108v147q0 67 -17 91.5t-59 24.5h-16v64h16q82 0 115.5 -40t33.5 -149v-118q0 -97 64 -97v-64q-33 1 -48.5 -25t-15.5 -71v-123q0 -109 -33 -147t-116 -38z" />
    <glyph glyph-name="asciitilde" unicode="~" horiz-adv-x="427" 
d="M114 276h-58q1 50 24 80t62 30q33 0 74.5 -25t56.5 -25q39 0 41 49h59q-2 -49 -24.5 -79.5t-61.5 -30.5q-33 0 -74.5 25t-57.5 25q-39 0 -41 -49z" />
    <glyph glyph-name="uni00A0" unicode="&#xa0;" horiz-adv-x="219" 
 />
    <glyph glyph-name="exclamdown" unicode="&#xa1;" horiz-adv-x="205" 
d="M144 501h-84v84h84v-84zM140 -130h-75v216l17 315h41l17 -315v-216z" />
    <glyph glyph-name="cent" unicode="&#xa2;" horiz-adv-x="553" 
d="M316 569v-420q63 7 94.5 46.5t34.5 90.5h68q-5 -78 -59.5 -132.5t-137.5 -61.5v-87h-51v87q-98 11 -156.5 83.5t-58.5 183.5t58.5 183.5t156.5 83.5v80h51v-80q82 -7 135.5 -60t61.5 -130h-68q-4 47 -36 86.5t-93 46.5zM118 359q0 -79 37 -138.5t110 -70.5v418
q-73 -11 -110 -70.5t-37 -138.5z" />
    <glyph glyph-name="sterling" unicode="&#xa3;" horiz-adv-x="566" 
d="M505 106l32 -58q-25 -20 -38 -30t-40.5 -20.5t-56.5 -10.5q-44 0 -103 30.5t-90 30.5q-54 0 -128 -48l-40 54q43 30 69 83t26 117q0 17 -3 32h-85v60h63q-1 2 -6 13t-6.5 13.5t-6 13t-6 15t-5 14.5t-5 15.5t-4 15.5t-3 18t-1.5 17.5t-1 19.5q0 33 13 66t38 63t71 49
t104 19q114 0 170.5 -63t56.5 -165h-72q0 79 -39 121.5t-116 42.5q-69 0 -111 -38t-42 -102q0 -21 5.5 -43.5t9.5 -33.5t16.5 -39t14.5 -32h166v-60h-147q3 -16 3 -35q0 -53 -20.5 -98.5t-56.5 -74.5l1 -2q55 31 98 31q38 0 88 -25t77 -25q53 0 110 49z" />
    <glyph glyph-name="currency" unicode="&#xa4;" horiz-adv-x="522" 
d="M452 344q0 -69 -36 -120l63 -64l-36 -37l-63 64q-52 -41 -119 -41t-119 40l-63 -63l-36 36l63 64q-37 50 -37 121t38 122l-64 64l36 36l63 -64q52 40 119 40t119 -41l63 64l36 -35l-64 -65q37 -50 37 -121zM135 344q0 -68 35.5 -104.5t90.5 -36.5t90 36.5t35 104.5
t-35 104.5t-90 36.5t-90.5 -36.5t-35.5 -104.5z" />
    <glyph glyph-name="yen" unicode="&#xa5;" horiz-adv-x="585" 
d="M480 686h78l-219 -385h173v-51h-183v-67h183v-50h-183v-133h-73v133h-184v50h184v67h-184v51h174l-219 385h78l186 -342h2z" />
    <glyph glyph-name="brokenbar" unicode="&#xa6;" horiz-adv-x="211" 
d="M135 384h-59v360h59v-360zM135 -128h-59v373h59v-373z" />
    <glyph glyph-name="section" unicode="&#xa7;" horiz-adv-x="583" 
d="M537 212q0 -109 -106 -135q49 -47 49 -113t-47 -109t-137 -43q-97 0 -144 47t-50 122h65q4 -112 128 -112q119 0 119 88q0 24 -9.5 44t-27.5 35.5t-38.5 28.5t-45.5 27q-10 5 -15 8l-50 30q-99 58 -124 78q-57 50 -58 114q0 54 28.5 88.5t78.5 46.5q-50 48 -50 113
q0 66 46.5 109t136.5 43q97 0 144.5 -47t50.5 -122h-66q-2 24 -7 40.5t-17.5 34.5t-38.5 27.5t-65 9.5q-119 0 -119 -89q0 -12 2 -23t8 -21t10.5 -18t15.5 -17t16.5 -14t20.5 -14t20.5 -12.5t23.5 -13t23 -12.5l51 -28q38 -22 49.5 -28.5t40.5 -25t38.5 -29t24.5 -29
t20 -37.5t5 -42zM381 116q90 10 90 85q0 24 -11 44.5t-35.5 40t-45 32t-58.5 33.5l-58 33q-40 22 -58 34q-94 -9 -94 -85q0 -19 9 -37t18.5 -29.5t35.5 -29t40 -25.5t51 -29l59 -33q34 -19 57 -34z" />
    <glyph glyph-name="dieresis" unicode="&#xa8;" horiz-adv-x="320" 
d="M125 612h-84v84h84v-84zM274 612h-84v84h84v-84z" />
    <glyph glyph-name="copyright" unicode="&#xa9;" horiz-adv-x="846" 
d="M424 -13q-169 0 -271 101t-102 269q0 169 102 270t271 101q168 0 270 -101.5t102 -269.5t-102 -269t-270 -101zM424 40q140 0 225.5 86.5t85.5 230.5t-85 231t-226 87t-227 -87t-86 -231t86 -230.5t227 -86.5zM431 131q-97 0 -153 62.5t-56 163.5t54.5 164t149.5 63
q80 0 129.5 -43.5t58.5 -110.5h-58q-7 36 -37.5 66.5t-90.5 30.5q-75 0 -110 -47.5t-35 -122.5t35 -122t110 -47q62 0 93 32t36 72h58q-5 -71 -54.5 -116t-129.5 -45z" />
    <glyph glyph-name="ordfeminine" unicode="&#xaa;" horiz-adv-x="423" 
d="M160 311q-58 0 -91.5 30t-33.5 82q0 55 38.5 81t119.5 40q23 4 33.5 6.5t26.5 8t23 11.5t12.5 17t5.5 25q0 61 -85 61q-90 0 -95 -83h-62q2 57 42 94.5t120 37.5q140 0 140 -128v-190q0 -41 20 -41h12v-40q-22 -5 -34 -5q-28 0 -41.5 14.5t-15.5 47.5h-3
q-42 -69 -132 -69zM176 363q52 0 85 30t33 77v67q-12 -21 -92 -36q-51 -9 -77.5 -25.5t-26.5 -49.5q0 -63 78 -63z" />
    <glyph glyph-name="guillemotleft" unicode="&#xab;" horiz-adv-x="461" 
d="M240 136v-76l-196 161v78l196 160v-75l-157 -123v-2zM407 136v-76l-195 161v78l195 160v-75l-157 -123v-2z" />
    <glyph glyph-name="logicalnot" unicode="&#xac;" horiz-adv-x="512" 
d="M449 145h-73v184h-333v65h406v-249z" />
    <glyph glyph-name="uni00AD" unicode="&#xad;" horiz-adv-x="351" 
d="M309 223h-268v64h268v-64z" />
    <glyph glyph-name="registered" unicode="&#xae;" horiz-adv-x="572" 
d="M286 249q-100 0 -168.5 69t-68.5 172t68.5 172t168.5 69t168.5 -69t68.5 -172t-68.5 -172t-168.5 -69zM286 284q84 0 141 58t57 148q0 89 -57.5 147.5t-140.5 58.5t-140.5 -58.5t-57.5 -147.5t57.5 -147.5t140.5 -58.5zM243 359h-53v265h107q45 0 68.5 -20t23.5 -57
q0 -53 -58 -66v-2q29 -5 40.5 -32.5t14 -55t8.5 -29.5v-3h-54q-6 4 -8 21t-3.5 34t-13 31t-34.5 14h-38v-100zM243 503h41q54 0 54 40q0 37 -53 37h-42v-77z" />
    <glyph glyph-name="macron" unicode="&#xaf;" horiz-adv-x="329" 
d="M289 618h-249v57h249v-57z" />
    <glyph glyph-name="degree" unicode="&#xb0;" horiz-adv-x="383" 
d="M191 428q-73 0 -112.5 46.5t-39.5 103.5t39.5 103.5t112.5 46.5q72 0 112.5 -46.5t40.5 -103.5t-40.5 -103.5t-112.5 -46.5zM191 479q45 0 72 28t27 71q0 44 -26.5 72t-72.5 28q-45 0 -72 -28t-27 -72q0 -43 27 -71t72 -28z" />
    <glyph glyph-name="plusminus" unicode="&#xb1;" horiz-adv-x="542" 
d="M304 123h-66l1 196h-189v64h189l-1 195h66v-195h189v-64h-189v-196zM493 -6h-443v64h443v-64z" />
    <glyph glyph-name="uni00B2" unicode="&#xb2;" horiz-adv-x="341" 
d="M310 363h-289q0 52 25.5 89.5t75.5 70.5q10 7 37 23.5t36.5 24t25 22t21 29.5t5.5 33q0 31 -17 50.5t-53 19.5q-42 0 -63 -25.5t-21 -70.5h-62q0 64 38 106.5t110 42.5q60 0 97 -31.5t37 -87.5q0 -28 -8.5 -50t-28.5 -41.5t-34 -29.5t-44 -30l-31.5 -19.5t-26 -19
t-23.5 -25t-12 -27.5v-2h205v-52z" />
    <glyph glyph-name="uni00B3" unicode="&#xb3;" horiz-adv-x="361" 
d="M186 362q-78 0 -120.5 38.5t-42.5 108.5h63q0 -95 96 -95q84 0 84 71q0 37 -23.5 54.5t-59.5 17.5h-35v49h33q72 0 72 62q0 29 -18 46.5t-53 17.5q-84 0 -84 -77h-63q0 58 39.5 94t110.5 36q55 0 94 -30t39 -81q0 -63 -62 -89v-1q76 -24 76 -101q0 -57 -40 -89t-106 -32z
" />
    <glyph glyph-name="acute" unicode="&#xb4;" horiz-adv-x="210" 
d="M88 593h-54l62 132h78z" />
    <glyph glyph-name="uni00B5" unicode="&#xb5;" horiz-adv-x="549" 
d="M414 188v322h65v-510h-65v72h-2q-56 -84 -167 -84q-67 0 -110 37v-202h-65v687h65v-344q0 -54 28 -87.5t91 -33.5q69 0 114.5 42.5t45.5 100.5z" />
    <glyph glyph-name="paragraph" unicode="&#xb6;" horiz-adv-x="523" 
d="M307 0h-59v350h-44q-90 0 -137.5 45.5t-47.5 134.5q0 90 48 137.5t137 47.5h240v-715h-58v651h-79v-651z" />
    <glyph glyph-name="periodcentered" unicode="&#xb7;" horiz-adv-x="190" 
d="M137 209h-84v84h84v-84z" />
    <glyph glyph-name="cedilla" unicode="&#xb8;" horiz-adv-x="284" 
d="M143 -194q-55 0 -103 30l19 22q37 -16 72 -16q55 0 55 40q0 33 -42 33q-26 0 -42 -8l-12 18l61 75h44l-45 -54v-2q37 7 65.5 -9.5t28.5 -53.5t-29 -56t-72 -19z" />
    <glyph glyph-name="uni00B9" unicode="&#xb9;" horiz-adv-x="210" 
d="M97 364v303q-21 -20 -85 -20v51q93 1 96 72h53v-406h-64z" />
    <glyph glyph-name="ordmasculine" unicode="&#xba;" horiz-adv-x="441" 
d="M221 311q-87 0 -138 57t-51 149q0 91 51 148t138 57t137.5 -56.5t50.5 -148.5t-50.5 -149t-137.5 -57zM221 364q62 0 94.5 43t32.5 110t-32.5 109.5t-94.5 42.5q-63 0 -95.5 -42.5t-32.5 -109.5t32.5 -110t95.5 -43z" />
    <glyph glyph-name="guillemotright" unicode="&#xbb;" horiz-adv-x="461" 
d="M249 220l-196 -160v75l157 124v2l-157 123v75l196 -160v-79zM417 220l-196 -160v75l157 124v2l-157 123v75l196 -160v-79z" />
    <glyph glyph-name="onequarter" unicode="&#xbc;" horiz-adv-x="718" 
d="M105 309v303q-22 -20 -86 -20v51q93 1 96 72h53v-406h-63zM131 0h-74l453 715h74zM642 0h-63v94h-193v60l193 252h63v-259h59v-53h-59v-94zM579 330l-139 -183h139v183z" />
    <glyph glyph-name="onehalf" unicode="&#xbd;" horiz-adv-x="763" 
d="M108 309v303q-22 -20 -85 -20v51q92 1 95 72h53v-406h-63zM135 0h-74l453 715h74zM724 0h-289q0 52 25.5 89.5t75.5 70.5q11 8 37 24t36.5 24t25.5 22t20.5 29t5.5 33q0 30 -17.5 50t-52.5 20q-42 0 -63.5 -26t-21.5 -70h-62q0 64 38.5 106.5t110.5 42.5q60 0 96.5 -31.5
t36.5 -87.5q0 -28 -8.5 -50t-28 -41t-34.5 -30t-44 -30q-29 -18 -41.5 -26.5t-29.5 -27t-22 -37.5v-2h206v-52z" />
    <glyph glyph-name="threequarters" unicode="&#xbe;" horiz-adv-x="875" 
d="M194 302q-78 0 -120.5 38.5t-42.5 107.5h63q0 -94 96 -94q84 0 84 70q0 72 -83 72h-35v49h33q72 0 72 63q0 29 -18 46.5t-53 17.5q-84 0 -84 -77h-63q0 58 39.5 94t110.5 36q55 0 94 -30t39 -81q0 -63 -62 -90v-1q76 -23 76 -101q0 -57 -40 -88.5t-106 -31.5zM294 0h-74
l453 715h74zM796 0h-64v94h-193v60l193 252h64v-259h58v-53h-58v-94zM732 330l-139 -183h139v183z" />
    <glyph glyph-name="questiondown" unicode="&#xbf;" horiz-adv-x="478" 
d="M305 500h-84v84h84v-84zM229 -144q-95 0 -152.5 49t-57.5 130q0 39 18 73t32 48t50 43q6 5 9 8q52 43 66 62q36 48 36 135h72q0 -47 -8 -82t-27 -62.5t-35.5 -43.5t-47.5 -41q-2 -1 -14 -11.5t-14 -12t-12.5 -11t-13 -12.5t-10.5 -11.5t-10 -13.5t-7 -14t-6.5 -16.5
t-3 -17t-1.5 -19.5q0 -53 35.5 -84t99.5 -31q73 0 117 42.5t44 129.5h73q0 -104 -61 -170.5t-171 -66.5z" />
    <glyph glyph-name="Agrave" unicode="&#xc0;" horiz-adv-x="635" 
d="M340 798h-54l-80 132h79zM84 0h-75l267 715h82l269 -715h-78l-72 198h-321zM316 646l-136 -383h274l-136 383h-2z" />
    <glyph glyph-name="Aacute" unicode="&#xc1;" horiz-adv-x="635" 
d="M337 798h-54l62 132h78zM84 0h-75l267 715h82l269 -715h-78l-72 198h-321zM316 646l-136 -383h274l-136 383h-2z" />
    <glyph glyph-name="Acircumflex" unicode="&#xc2;" horiz-adv-x="635" 
d="M257 800h-68l91 130h74l90 -130h-68l-59 93h-1zM84 0h-75l267 715h82l269 -715h-78l-72 198h-321zM316 646l-136 -383h274l-136 383h-2z" />
    <glyph glyph-name="Atilde" unicode="&#xc3;" horiz-adv-x="635" 
d="M230 805h-51q1 45 21 67.5t51 22.5q28 0 69.5 -20.5t54.5 -20.5q25 0 27 39h51q-1 -45 -21 -67t-51 -22q-27 0 -69 20.5t-55 20.5q-25 0 -27 -40zM84 0h-75l267 715h82l269 -715h-78l-72 198h-321zM316 646l-136 -383h274l-136 383h-2z" />
    <glyph glyph-name="Adieresis" unicode="&#xc4;" horiz-adv-x="635" 
d="M284 817h-84v84h84v-84zM433 817h-84v84h84v-84zM84 0h-75l267 715h82l269 -715h-78l-72 198h-321zM316 646l-136 -383h274l-136 383h-2z" />
    <glyph glyph-name="Aring" unicode="&#xc5;" horiz-adv-x="635" 
d="M316 766q-38 0 -62 24t-24 61q0 38 24 61.5t62 23.5t62 -23.5t24 -61.5q0 -37 -24 -61t-62 -24zM316 800q22 0 36 14t14 37q0 22 -14 36.5t-36 14.5t-35.5 -14.5t-13.5 -36.5q0 -23 13.5 -37t35.5 -14zM84 0h-75l267 715h82l269 -715h-78l-72 198h-321zM316 646
l-136 -383h274l-136 383h-2z" />
    <glyph glyph-name="AE" unicode="&#xc6;" horiz-adv-x="956" 
d="M503 341v-277h423v-64h-496v198h-274l-72 -198h-75l267 715h639v-64h-412v-246h367v-64h-367zM316 649l-136 -386h250v386h-114z" />
    <glyph glyph-name="Ccedilla" unicode="&#xc7;" horiz-adv-x="697" 
d="M385 -13l-34 -41v-2q37 7 65.5 -9.5t28.5 -53.5t-29 -56t-72 -19q-55 0 -103 30l19 22q37 -16 72 -16q55 0 55 40q0 33 -42 33q-26 0 -42 -8l-12 18l51 63q-135 10 -218.5 112t-83.5 257q0 163 91.5 267t237.5 104q122 0 201 -68.5t93 -172.5h-76q-6 32 -20.5 61.5
t-39 56.5t-66 43t-93.5 16q-83 0 -141.5 -44t-84.5 -112t-26 -151q0 -129 65 -217.5t187 -88.5q105 0 160 59.5t62 143.5h76q-12 -115 -87 -188t-194 -79z" />
    <glyph glyph-name="Egrave" unicode="&#xc8;" horiz-adv-x="603" 
d="M346 798h-54l-80 132h79zM572 0h-496v715h485v-64h-412v-246h368v-64h-368v-277h423v-64z" />
    <glyph glyph-name="Eacute" unicode="&#xc9;" horiz-adv-x="603" 
d="M343 798h-54l62 132h78zM572 0h-496v715h485v-64h-412v-246h368v-64h-368v-277h423v-64z" />
    <glyph glyph-name="Ecircumflex" unicode="&#xca;" horiz-adv-x="603" 
d="M263 800h-68l91 130h74l90 -130h-68l-59 93h-1zM572 0h-496v715h485v-64h-412v-246h368v-64h-368v-277h423v-64z" />
    <glyph glyph-name="Edieresis" unicode="&#xcb;" horiz-adv-x="603" 
d="M290 817h-84v84h84v-84zM439 817h-84v84h84v-84zM572 0h-496v715h485v-64h-412v-246h368v-64h-368v-277h423v-64z" />
    <glyph glyph-name="Igrave" unicode="&#xcc;" horiz-adv-x="225" 
d="M136 798h-54l-80 132h79zM149 0h-73v715h73v-715z" />
    <glyph glyph-name="Iacute" unicode="&#xcd;" horiz-adv-x="225" 
d="M133 798h-54l62 132h78zM149 0h-73v715h73v-715z" />
    <glyph glyph-name="Icircumflex" unicode="&#xce;" horiz-adv-x="225" 
d="M53 800h-68l91 130h74l90 -130h-68l-59 93h-1zM149 0h-73v715h73v-715z" />
    <glyph glyph-name="Idieresis" unicode="&#xcf;" horiz-adv-x="225" 
d="M80 817h-84v84h84v-84zM229 817h-84v84h84v-84zM149 0h-73v715h73v-715z" />
    <glyph glyph-name="Eth" unicode="&#xd0;" horiz-adv-x="709" 
d="M98 715h259q148 0 229.5 -95.5t81.5 -263.5q0 -167 -82.5 -261.5t-231.5 -94.5h-256v341h-84v58h84v316zM171 64h183q65 0 112.5 23t74 64.5t39 92t12.5 112.5q0 50 -7 92t-24.5 80.5t-43.5 65t-67 42t-94 15.5h-185v-252h223v-58h-223v-277z" />
    <glyph glyph-name="Ntilde" unicode="&#xd1;" horiz-adv-x="703" 
d="M265 805h-51q1 45 21 67.5t51 22.5q28 0 69.5 -20.5t54.5 -20.5q25 0 27 39h51q-1 -45 -21 -67t-51 -22q-27 0 -69 20.5t-55 20.5q-25 0 -27 -40zM149 0h-73v715h89l387 -612h2v612h73v-715h-89l-387 612h-2v-612z" />
    <glyph glyph-name="Ograve" unicode="&#xd2;" horiz-adv-x="767" 
d="M407 798h-54l-80 132h79zM384 -13q-154 0 -249 104t-95 267t95 266.5t249 103.5q153 0 248 -103.5t95 -266.5t-95 -267t-248 -104zM384 51q127 0 197 87t70 220t-70 219.5t-197 86.5q-128 0 -198 -86.5t-70 -219.5t70 -220t198 -87z" />
    <glyph glyph-name="Oacute" unicode="&#xd3;" horiz-adv-x="767" 
d="M404 798h-54l62 132h78zM384 -13q-154 0 -249 104t-95 267t95 266.5t249 103.5q153 0 248 -103.5t95 -266.5t-95 -267t-248 -104zM384 51q127 0 197 87t70 220t-70 219.5t-197 86.5q-128 0 -198 -86.5t-70 -219.5t70 -220t198 -87z" />
    <glyph glyph-name="Ocircumflex" unicode="&#xd4;" horiz-adv-x="767" 
d="M324 800h-68l91 130h74l90 -130h-68l-59 93h-1zM384 -13q-154 0 -249 104t-95 267t95 266.5t249 103.5q153 0 248 -103.5t95 -266.5t-95 -267t-248 -104zM384 51q127 0 197 87t70 220t-70 219.5t-197 86.5q-128 0 -198 -86.5t-70 -219.5t70 -220t198 -87z" />
    <glyph glyph-name="Otilde" unicode="&#xd5;" horiz-adv-x="767" 
d="M297 805h-51q1 45 21 67.5t51 22.5q28 0 69.5 -20.5t54.5 -20.5q25 0 27 39h51q-1 -45 -21 -67t-51 -22q-27 0 -69 20.5t-55 20.5q-25 0 -27 -40zM384 -13q-154 0 -249 104t-95 267t95 266.5t249 103.5q153 0 248 -103.5t95 -266.5t-95 -267t-248 -104zM384 51
q127 0 197 87t70 220t-70 219.5t-197 86.5q-128 0 -198 -86.5t-70 -219.5t70 -220t198 -87z" />
    <glyph glyph-name="Odieresis" unicode="&#xd6;" horiz-adv-x="767" 
d="M351 817h-84v84h84v-84zM500 817h-84v84h84v-84zM384 -13q-154 0 -249 104t-95 267t95 266.5t249 103.5q153 0 248 -103.5t95 -266.5t-95 -267t-248 -104zM384 51q127 0 197 87t70 220t-70 219.5t-197 86.5q-128 0 -198 -86.5t-70 -219.5t70 -220t198 -87z" />
    <glyph glyph-name="multiply" unicode="&#xd7;" horiz-adv-x="542" 
d="M271 279l-153 -154l-47 46l154 154l-154 154l47 46l153 -154l154 154l46 -46l-154 -154l154 -154l-46 -46z" />
    <glyph glyph-name="Oslash" unicode="&#xd8;" horiz-adv-x="774" 
d="M703 711l32 -30l-79 -80q75 -100 75 -243q0 -163 -95.5 -267t-248.5 -104q-147 0 -241 97l-78 -79l-30 31l79 81q-74 99 -74 241q0 162 95.5 266t248.5 104q144 0 240 -94zM119 358q0 -113 49 -190l411 417q-73 79 -192 79q-128 0 -198 -86.5t-70 -219.5zM655 358
q0 112 -50 191l-411 -416q72 -82 193 -82q128 0 198 87t70 220z" />
    <glyph glyph-name="Ugrave" unicode="&#xd9;" horiz-adv-x="680" 
d="M363 798h-54l-80 132h79zM340 -13q-136 0 -202.5 67.5t-66.5 186.5v474h73v-474q0 -190 196 -190t196 190v474h73v-474q0 -119 -66.5 -186.5t-202.5 -67.5z" />
    <glyph glyph-name="Uacute" unicode="&#xda;" horiz-adv-x="680" 
d="M360 798h-54l62 132h78zM340 -13q-136 0 -202.5 67.5t-66.5 186.5v474h73v-474q0 -190 196 -190t196 190v474h73v-474q0 -119 -66.5 -186.5t-202.5 -67.5z" />
    <glyph glyph-name="Ucircumflex" unicode="&#xdb;" horiz-adv-x="680" 
d="M280 800h-68l91 130h74l90 -130h-68l-59 93h-1zM340 -13q-136 0 -202.5 67.5t-66.5 186.5v474h73v-474q0 -190 196 -190t196 190v474h73v-474q0 -119 -66.5 -186.5t-202.5 -67.5z" />
    <glyph glyph-name="Udieresis" unicode="&#xdc;" horiz-adv-x="680" 
d="M308 817h-84v84h84v-84zM457 817h-84v84h84v-84zM340 -13q-136 0 -202.5 67.5t-66.5 186.5v474h73v-474q0 -190 196 -190t196 190v474h73v-474q0 -119 -66.5 -186.5t-202.5 -67.5z" />
    <glyph glyph-name="Yacute" unicode="&#xdd;" horiz-adv-x="618" 
d="M330 798h-54l62 132h78zM345 0h-73v293l-261 422h79l218 -365h2l219 365h78l-262 -422v-293z" />
    <glyph glyph-name="Thorn" unicode="&#xde;" horiz-adv-x="607" 
d="M149 0h-73v715h73v-117h202q106 0 168.5 -49.5t62.5 -156.5t-62.5 -157t-168.5 -50h-202v-185zM149 249h212q148 0 148 143q0 142 -148 142h-212v-285z" />
    <glyph glyph-name="germandbls" unicode="&#xdf;" horiz-adv-x="510" 
d="M291 -13q-47 0 -94 14v57q38 -15 78 -15q65 0 100.5 43t35.5 112q0 86 -52.5 128t-122.5 42h-30v56h27q58 0 100.5 33t42.5 97q0 50 -29.5 83.5t-90.5 33.5q-73 0 -102 -44t-29 -123v-504h-65v524q0 96 51.5 150t144.5 54q83 0 135.5 -46t52.5 -126q0 -110 -113 -159v-2
q148 -48 148 -203q0 -92 -50 -148.5t-138 -56.5z" />
    <glyph glyph-name="agrave" unicode="&#xe0;" horiz-adv-x="514" 
d="M287 593h-54l-80 132h79zM200 -13q-76 0 -121.5 39t-45.5 103q0 78 51 113.5t159 54.5q87 16 108 28q30 17 30 54q0 87 -116 87q-73 0 -104 -26t-35 -84h-69q4 74 55 120.5t155 46.5q78 0 127.5 -38.5t49.5 -123.5v-255q0 -32 6 -46t23 -14q8 0 14 1v-47q-22 -4 -34 -4
q-34 0 -51.5 17.5t-20.5 63.5h-2q-54 -90 -179 -90zM208 44q79 0 126 39.5t47 107.5v95q-18 -25 -130 -43q-79 -14 -114.5 -37.5t-35.5 -70.5q0 -91 107 -91z" />
    <glyph glyph-name="aacute" unicode="&#xe1;" horiz-adv-x="514" 
d="M284 593h-54l62 132h78zM200 -13q-76 0 -121.5 39t-45.5 103q0 78 51 113.5t159 54.5q87 16 108 28q30 17 30 54q0 87 -116 87q-73 0 -104 -26t-35 -84h-69q4 74 55 120.5t155 46.5q78 0 127.5 -38.5t49.5 -123.5v-255q0 -32 6 -46t23 -14q8 0 14 1v-47q-22 -4 -34 -4
q-34 0 -51.5 17.5t-20.5 63.5h-2q-54 -90 -179 -90zM208 44q79 0 126 39.5t47 107.5v95q-18 -25 -130 -43q-79 -14 -114.5 -37.5t-35.5 -70.5q0 -91 107 -91z" />
    <glyph glyph-name="acircumflex" unicode="&#xe2;" horiz-adv-x="514" 
d="M204 595h-68l91 130h74l90 -130h-68l-59 93h-1zM200 -13q-76 0 -121.5 39t-45.5 103q0 78 51 113.5t159 54.5q87 16 108 28q30 17 30 54q0 87 -116 87q-73 0 -104 -26t-35 -84h-69q4 74 55 120.5t155 46.5q78 0 127.5 -38.5t49.5 -123.5v-255q0 -32 6 -46t23 -14
q8 0 14 1v-47q-22 -4 -34 -4q-34 0 -51.5 17.5t-20.5 63.5h-2q-54 -90 -179 -90zM208 44q79 0 126 39.5t47 107.5v95q-18 -25 -130 -43q-79 -14 -114.5 -37.5t-35.5 -70.5q0 -91 107 -91z" />
    <glyph glyph-name="atilde" unicode="&#xe3;" horiz-adv-x="514" 
d="M177 600h-51q1 45 21 67.5t51 22.5q28 0 69.5 -20.5t54.5 -20.5q25 0 27 39h51q-1 -45 -21 -67t-51 -22q-27 0 -69 20.5t-55 20.5q-25 0 -27 -40zM200 -13q-76 0 -121.5 39t-45.5 103q0 78 51 113.5t159 54.5q87 16 108 28q30 17 30 54q0 87 -116 87q-73 0 -104 -26
t-35 -84h-69q4 74 55 120.5t155 46.5q78 0 127.5 -38.5t49.5 -123.5v-255q0 -32 6 -46t23 -14q8 0 14 1v-47q-22 -4 -34 -4q-34 0 -51.5 17.5t-20.5 63.5h-2q-54 -90 -179 -90zM208 44q79 0 126 39.5t47 107.5v95q-18 -25 -130 -43q-79 -14 -114.5 -37.5t-35.5 -70.5
q0 -91 107 -91z" />
    <glyph glyph-name="adieresis" unicode="&#xe4;" horiz-adv-x="514" 
d="M232 612h-84v84h84v-84zM381 612h-84v84h84v-84zM200 -13q-76 0 -121.5 39t-45.5 103q0 78 51 113.5t159 54.5q87 16 108 28q30 17 30 54q0 87 -116 87q-73 0 -104 -26t-35 -84h-69q4 74 55 120.5t155 46.5q78 0 127.5 -38.5t49.5 -123.5v-255q0 -32 6 -46t23 -14
q8 0 14 1v-47q-22 -4 -34 -4q-34 0 -51.5 17.5t-20.5 63.5h-2q-54 -90 -179 -90zM208 44q79 0 126 39.5t47 107.5v95q-18 -25 -130 -43q-79 -14 -114.5 -37.5t-35.5 -70.5q0 -91 107 -91z" />
    <glyph glyph-name="aring" unicode="&#xe5;" horiz-adv-x="514" 
d="M263 561q-38 0 -62 24t-24 61q0 38 24 61.5t62 23.5t62 -23.5t24 -61.5q0 -37 -24 -61t-62 -24zM263 595q22 0 36 14t14 37q0 22 -14 36.5t-36 14.5t-35.5 -14.5t-13.5 -36.5q0 -23 13.5 -37t35.5 -14zM200 -13q-76 0 -121.5 39t-45.5 103q0 78 51 113.5t159 54.5
q87 16 108 28q30 17 30 54q0 87 -116 87q-73 0 -104 -26t-35 -84h-69q4 74 55 120.5t155 46.5q78 0 127.5 -38.5t49.5 -123.5v-255q0 -32 6 -46t23 -14q8 0 14 1v-47q-22 -4 -34 -4q-34 0 -51.5 17.5t-20.5 63.5h-2q-54 -90 -179 -90zM208 44q79 0 126 39.5t47 107.5v95
q-18 -25 -130 -43q-79 -14 -114.5 -37.5t-35.5 -70.5q0 -91 107 -91z" />
    <glyph glyph-name="ae" unicode="&#xe6;" horiz-adv-x="885" 
d="M853 278q0 -28 -1 -36h-404q1 -84 46 -142t130 -58q71 0 108.5 36t47.5 78h66q-19 -75 -75.5 -122.5t-147.5 -47.5q-145 0 -208 117q-31 -60 -89.5 -88t-125.5 -28q-76 0 -121.5 39t-45.5 103q0 78 51 113.5t159 54.5q87 16 108 28q30 17 30 54q0 87 -116 87
q-73 0 -104 -26t-35 -84h-69q4 75 54 121t154 46q130 0 167 -91q66 91 192 91q107 0 168 -68t61 -177zM448 299h336q0 71 -44 119.5t-120 48.5q-73 0 -120.5 -48t-51.5 -120zM381 191v36q-1 9 -1 28t1 28v3q-18 -25 -130 -43q-79 -14 -115 -38t-35 -70q-1 -45 25.5 -68
t81.5 -23q85 0 129 40.5t44 106.5z" />
    <glyph glyph-name="ccedilla" unicode="&#xe7;" horiz-adv-x="522" 
d="M276 43q73 0 110 42t41 97h68q-5 -78 -59 -132.5t-136 -61.5l-35 -42v-2q37 7 65.5 -9.5t28.5 -53.5t-29 -56t-72 -19q-55 0 -103 30l19 22q37 -16 72 -16q55 0 55 40q0 33 -42 33q-26 0 -42 -8l-12 18l51 63q-101 7 -162.5 79.5t-61.5 187.5q0 119 67.5 193t176.5 74
q91 0 151 -54t68 -137h-68q-4 51 -41.5 92.5t-109.5 41.5q-87 0 -131.5 -61.5t-44.5 -148.5q0 -88 44.5 -150t131.5 -62z" />
    <glyph glyph-name="egrave" unicode="&#xe8;" horiz-adv-x="537" 
d="M240 727l55 -132h-54l-80 132h79zM506 278q0 -28 -1 -36h-404q1 -84 46 -142t130 -58q70 0 108 36t48 78h66q-20 -76 -76 -123t-147 -47q-114 0 -178.5 74.5t-64.5 194.5q0 122 66.5 195t176.5 73q108 0 169 -68t61 -177zM101 299h336q0 71 -44 119.5t-120 48.5
q-73 0 -120.5 -48t-51.5 -120z" />
    <glyph glyph-name="eacute" unicode="&#xe9;" horiz-adv-x="537" 
d="M300 727h78l-86 -132h-54zM506 278q0 -28 -1 -36h-404q1 -84 46 -142t130 -58q70 0 108 36t48 78h66q-20 -76 -76 -123t-147 -47q-114 0 -178.5 74.5t-64.5 194.5q0 122 66.5 195t176.5 73q108 0 169 -68t61 -177zM101 299h336q0 71 -44 119.5t-120 48.5
q-73 0 -120.5 -48t-51.5 -120z" />
    <glyph glyph-name="ecircumflex" unicode="&#xea;" horiz-adv-x="537" 
d="M272 690h-1l-59 -93h-68l91 130h74l90 -130h-68zM506 278q0 -28 -1 -36h-404q1 -84 46 -142t130 -58q70 0 108 36t48 78h66q-20 -76 -76 -123t-147 -47q-114 0 -178.5 74.5t-64.5 194.5q0 122 66.5 195t176.5 73q108 0 169 -68t61 -177zM101 299h336q0 71 -44 119.5
t-120 48.5q-73 0 -120.5 -48t-51.5 -120z" />
    <glyph glyph-name="edieresis" unicode="&#xeb;" horiz-adv-x="537" 
d="M155 698h84v-84h-84v84zM304 698h84v-84h-84v84zM506 278q0 -28 -1 -36h-404q1 -84 46 -142t130 -58q70 0 108 36t48 78h66q-20 -76 -76 -123t-147 -47q-114 0 -178.5 74.5t-64.5 194.5q0 122 66.5 195t176.5 73q108 0 169 -68t61 -177zM101 299h336q0 71 -44 119.5
t-120 48.5q-73 0 -120.5 -48t-51.5 -120z" />
    <glyph glyph-name="igrave" unicode="&#xec;" horiz-adv-x="185" 
d="M116 593h-54l-80 132h79zM125 0h-65v510h65v-510z" />
    <glyph glyph-name="iacute" unicode="&#xed;" horiz-adv-x="185" 
d="M113 593h-54l62 132h78zM125 0h-65v510h65v-510z" />
    <glyph glyph-name="icircumflex" unicode="&#xee;" horiz-adv-x="185" 
d="M33 595h-68l91 130h74l90 -130h-68l-59 93h-1zM125 0h-65v510h65v-510z" />
    <glyph glyph-name="idieresis" unicode="&#xef;" horiz-adv-x="185" 
d="M60 612h-84v84h84v-84zM209 612h-84v84h84v-84zM125 0h-65v510h65v-510z" />
    <glyph glyph-name="eth" unicode="&#xf0;" horiz-adv-x="557" 
d="M503 647l-112 -30q131 -141 131 -330q0 -80 -24.5 -146t-82.5 -110.5t-141 -44.5q-113 0 -177.5 74.5t-64.5 195.5q0 120 68 193t172 73q51 0 96.5 -25.5t71.5 -68.5q-24 85 -111 173l-164 -44l-11 50l131 35q-49 43 -98 73h89q37 -24 73 -56l142 38zM274 43q84 0 133 63
t49 153q0 88 -50 148.5t-134 60.5q-83 0 -129 -61t-46 -151q0 -89 47 -151t130 -62z" />
    <glyph glyph-name="ntilde" unicode="&#xf1;" horiz-adv-x="525" 
d="M208 641q-25 0 -27 -40h-51q1 45 21 67.5t51 22.5q28 0 69.5 -20.5t54.5 -20.5q25 0 27 39h51q-1 -45 -21 -67t-51 -22q-27 0 -69 20.5t-55 20.5zM302 522q73 0 120 -41.5t47 -122.5v-358h-65v344q0 54 -28 87.5t-90 33.5q-71 0 -116 -42.5t-45 -100.5v-322h-65v510h65
v-73h2q59 85 175 85z" />
    <glyph glyph-name="ograve" unicode="&#xf2;" horiz-adv-x="554" 
d="M301 594h-54l-80 132h79zM277 -14q-113 0 -179 74t-66 194q0 121 66 195t179 74t179 -74t66 -195q0 -120 -66 -194t-179 -74zM277 43q86 0 131.5 59.5t45.5 151.5q0 93 -45.5 152.5t-131.5 59.5t-131.5 -59.5t-45.5 -152.5q0 -92 45.5 -151.5t131.5 -59.5z" />
    <glyph glyph-name="oacute" unicode="&#xf3;" horiz-adv-x="554" 
d="M298 594h-54l62 132h78zM277 -14q-113 0 -179 74t-66 194q0 121 66 195t179 74t179 -74t66 -195q0 -120 -66 -194t-179 -74zM277 43q86 0 131.5 59.5t45.5 151.5q0 93 -45.5 152.5t-131.5 59.5t-131.5 -59.5t-45.5 -152.5q0 -92 45.5 -151.5t131.5 -59.5z" />
    <glyph glyph-name="ocircumflex" unicode="&#xf4;" horiz-adv-x="554" 
d="M218 596h-68l91 130h74l90 -130h-68l-59 93h-1zM277 -14q-113 0 -179 74t-66 194q0 121 66 195t179 74t179 -74t66 -195q0 -120 -66 -194t-179 -74zM277 43q86 0 131.5 59.5t45.5 151.5q0 93 -45.5 152.5t-131.5 59.5t-131.5 -59.5t-45.5 -152.5q0 -92 45.5 -151.5
t131.5 -59.5z" />
    <glyph glyph-name="otilde" unicode="&#xf5;" horiz-adv-x="554" 
d="M191 601h-51q1 45 21 67.5t51 22.5q28 0 69.5 -20.5t54.5 -20.5q25 0 27 39h51q-1 -45 -21 -67t-51 -22q-27 0 -69 20.5t-55 20.5q-25 0 -27 -40zM277 -14q-113 0 -179 74t-66 194q0 121 66 195t179 74t179 -74t66 -195q0 -120 -66 -194t-179 -74zM277 43
q86 0 131.5 59.5t45.5 151.5q0 93 -45.5 152.5t-131.5 59.5t-131.5 -59.5t-45.5 -152.5q0 -92 45.5 -151.5t131.5 -59.5z" />
    <glyph glyph-name="odieresis" unicode="&#xf6;" horiz-adv-x="554" 
d="M245 613h-84v84h84v-84zM394 613h-84v84h84v-84zM277 -14q-113 0 -179 74t-66 194q0 121 66 195t179 74t179 -74t66 -195q0 -120 -66 -194t-179 -74zM277 43q86 0 131.5 59.5t45.5 151.5q0 93 -45.5 152.5t-131.5 59.5t-131.5 -59.5t-45.5 -152.5q0 -92 45.5 -151.5
t131.5 -59.5z" />
    <glyph glyph-name="divide" unicode="&#xf7;" horiz-adv-x="542" 
d="M313 450h-84v84h84v-84zM493 295h-443v64h443v-64zM313 122h-84v84h84v-84z" />
    <glyph glyph-name="oslash" unicode="&#xf8;" horiz-adv-x="565" 
d="M512 520l30 -31l-62 -63q48 -70 48 -172q0 -120 -66 -194t-179 -74q-105 0 -170 65l-60 -61l-30 31l62 63q-47 68 -47 170q0 121 66 195t179 74q105 0 169 -64zM106 254q0 -69 26 -121l276 281q-47 52 -125 52q-86 0 -131.5 -59.5t-45.5 -152.5zM460 254q0 72 -27 124
l-276 -282q47 -53 126 -53q86 0 131.5 59.5t45.5 151.5z" />
    <glyph glyph-name="ugrave" unicode="&#xf9;" horiz-adv-x="525" 
d="M221 725l55 -132h-54l-80 132h79zM400 188v322h65v-510h-65v72h-2q-58 -84 -175 -84q-73 0 -120 41.5t-47 122.5v358h65v-344q0 -54 28 -87.5t90 -33.5q71 0 116 42.5t45 100.5z" />
    <glyph glyph-name="uacute" unicode="&#xfa;" horiz-adv-x="525" 
d="M281 725h78l-86 -132h-54zM400 188v322h65v-510h-65v72h-2q-58 -84 -175 -84q-73 0 -120 41.5t-47 122.5v358h65v-344q0 -54 28 -87.5t90 -33.5q71 0 116 42.5t45 100.5z" />
    <glyph glyph-name="ucircumflex" unicode="&#xfb;" horiz-adv-x="525" 
d="M253 688h-1l-59 -93h-68l91 130h74l90 -130h-68zM400 188v322h65v-510h-65v72h-2q-58 -84 -175 -84q-73 0 -120 41.5t-47 122.5v358h65v-344q0 -54 28 -87.5t90 -33.5q71 0 116 42.5t45 100.5z" />
    <glyph glyph-name="udieresis" unicode="&#xfc;" horiz-adv-x="525" 
d="M137 696h84v-84h-84v84zM286 696h84v-84h-84v84zM400 188v322h65v-510h-65v72h-2q-58 -84 -175 -84q-73 0 -120 41.5t-47 122.5v358h65v-344q0 -54 28 -87.5t90 -33.5q71 0 116 42.5t45 100.5z" />
    <glyph glyph-name="yacute" unicode="&#xfd;" horiz-adv-x="481" 
d="M259 593h-54l62 132h78zM105 -179q-21 0 -49 4v56q23 -3 39 -3q78 0 115 125l-206 507h72l166 -425h2l158 425h70l-204 -525q-36 -93 -73 -128.5t-90 -35.5z" />
    <glyph glyph-name="thorn" unicode="&#xfe;" horiz-adv-x="557" 
d="M299 523q97 0 161 -72.5t64 -195.5q0 -122 -64 -194.5t-161 -72.5q-118 0 -172 98h-2v-263h-65v892h65v-287h2q58 95 172 95zM292 45q77 0 120.5 60t43.5 150t-43.5 150.5t-120.5 60.5q-74 0 -120.5 -57.5t-46.5 -153.5q0 -95 46.5 -152.5t120.5 -57.5z" />
    <glyph glyph-name="ydieresis" unicode="&#xff;" horiz-adv-x="481" 
d="M206 612h-84v84h84v-84zM355 612h-84v84h84v-84zM105 -179q-21 0 -49 4v56q23 -3 39 -3q78 0 115 125l-206 507h72l166 -425h2l158 425h70l-204 -525q-36 -93 -73 -128.5t-90 -35.5z" />
    <glyph glyph-name="Amacron" unicode="&#x100;" horiz-adv-x="635" 
d="M441 822h-249v57h249v-57zM84 0h-75l267 715h82l269 -715h-78l-72 198h-321zM316 646l-136 -383h274l-136 383h-2z" />
    <glyph glyph-name="amacron" unicode="&#x101;" horiz-adv-x="514" 
d="M389 617h-249v57h249v-57zM200 -13q-76 0 -121.5 39t-45.5 103q0 78 51 113.5t159 54.5q87 16 108 28q30 17 30 54q0 87 -116 87q-73 0 -104 -26t-35 -84h-69q4 74 55 120.5t155 46.5q78 0 127.5 -38.5t49.5 -123.5v-255q0 -32 6 -46t23 -14q8 0 14 1v-47q-22 -4 -34 -4
q-34 0 -51.5 17.5t-20.5 63.5h-2q-54 -90 -179 -90zM208 44q79 0 126 39.5t47 107.5v95q-18 -25 -130 -43q-79 -14 -114.5 -37.5t-35.5 -70.5q0 -91 107 -91z" />
    <glyph glyph-name="Abreve" unicode="&#x102;" horiz-adv-x="635" 
d="M317 793q-55 0 -88.5 33t-35.5 94h50q8 -78 74 -78q67 0 73 78h51q-3 -60 -36 -93.5t-88 -33.5zM84 0h-75l267 715h82l269 -715h-78l-72 198h-321zM316 646l-136 -383h274l-136 383h-2z" />
    <glyph glyph-name="abreve" unicode="&#x103;" horiz-adv-x="514" 
d="M264 588q-55 0 -88.5 33t-35.5 94h50q8 -78 74 -78q67 0 73 78h51q-3 -60 -36 -93.5t-88 -33.5zM200 -13q-76 0 -121.5 39t-45.5 103q0 78 51 113.5t159 54.5q87 16 108 28q30 17 30 54q0 87 -116 87q-73 0 -104 -26t-35 -84h-69q4 74 55 120.5t155 46.5
q78 0 127.5 -38.5t49.5 -123.5v-255q0 -32 6 -46t23 -14q8 0 14 1v-47q-22 -4 -34 -4q-34 0 -51.5 17.5t-20.5 63.5h-2q-54 -90 -179 -90zM208 44q79 0 126 39.5t47 107.5v95q-18 -25 -130 -43q-79 -14 -114.5 -37.5t-35.5 -70.5q0 -91 107 -91z" />
    <glyph glyph-name="Aogonek" unicode="&#x104;" horiz-adv-x="635" 
d="M587 -126q27 0 50 10v-50q-28 -10 -62 -10q-44 0 -67.5 20.5t-23.5 53.5q0 32 23.5 59.5t55.5 42.5h-14l-72 198h-321l-72 -198h-75l267 715h82l269 -715h-13q-72 -51 -72 -89q0 -17 12.5 -27t32.5 -10zM316 646l-136 -383h274l-136 383h-2z" />
    <glyph glyph-name="aogonek" unicode="&#x105;" horiz-adv-x="514" 
d="M460 -126q27 0 50 10v-50q-28 -10 -62 -10q-44 0 -67.5 20.5t-23.5 53.5q0 31 22 57.5t53 42.5q-47 9 -51 79h-2q-54 -90 -179 -90q-76 0 -121.5 39t-45.5 103q0 78 51 113.5t159 54.5q87 16 108 28q30 17 30 54q0 87 -116 87q-73 0 -104 -26t-35 -84h-69q4 74 55 120.5
t155 46.5q78 0 127.5 -38.5t49.5 -123.5v-255q0 -32 6 -46t23 -14q8 0 14 1v-47q-72 -51 -72 -89q0 -17 12.5 -27t32.5 -10zM381 191v95q-18 -25 -130 -43q-79 -14 -114.5 -37.5t-35.5 -70.5q0 -91 107 -91q79 0 126 39.5t47 107.5z" />
    <glyph glyph-name="Cacute" unicode="&#x106;" horiz-adv-x="697" 
d="M390 798h-54l62 132h78zM368 -13q-145 0 -236.5 103.5t-91.5 266.5t91.5 267t237.5 104q122 0 201 -68.5t93 -172.5h-76q-6 32 -20.5 61.5t-39 56.5t-66 43t-93.5 16q-83 0 -141.5 -44t-84.5 -112t-26 -151q0 -129 65 -217.5t187 -88.5q105 0 160 59.5t62 143.5h76
q-13 -119 -93 -193t-205 -74z" />
    <glyph glyph-name="cacute" unicode="&#x107;" horiz-adv-x="522" 
d="M297 593h-54l62 132h78zM276 -13q-109 0 -176.5 74t-67.5 194q0 119 67.5 193t176.5 74q91 0 151 -54t68 -137h-68q-4 51 -41.5 92.5t-109.5 41.5q-87 0 -131.5 -61.5t-44.5 -148.5q0 -88 44.5 -150t131.5 -62q73 0 110 42t41 97h68q-5 -84 -66 -139.5t-153 -55.5z" />
    <glyph glyph-name="Ccircumflex" unicode="&#x108;" horiz-adv-x="697" 
d="M310 800h-68l91 130h74l90 -130h-68l-59 93h-1zM368 -13q-145 0 -236.5 103.5t-91.5 266.5t91.5 267t237.5 104q122 0 201 -68.5t93 -172.5h-76q-6 32 -20.5 61.5t-39 56.5t-66 43t-93.5 16q-83 0 -141.5 -44t-84.5 -112t-26 -151q0 -129 65 -217.5t187 -88.5
q105 0 160 59.5t62 143.5h76q-13 -119 -93 -193t-205 -74z" />
    <glyph glyph-name="ccircumflex" unicode="&#x109;" horiz-adv-x="522" 
d="M217 595h-68l91 130h74l90 -130h-68l-59 93h-1zM276 -13q-109 0 -176.5 74t-67.5 194q0 119 67.5 193t176.5 74q91 0 151 -54t68 -137h-68q-4 51 -41.5 92.5t-109.5 41.5q-87 0 -131.5 -61.5t-44.5 -148.5q0 -88 44.5 -150t131.5 -62q73 0 110 42t41 97h68
q-5 -84 -66 -139.5t-153 -55.5z" />
    <glyph glyph-name="Cdotaccent" unicode="&#x10a;" horiz-adv-x="697" 
d="M411 817h-84v84h84v-84zM368 -13q-145 0 -236.5 103.5t-91.5 266.5t91.5 267t237.5 104q122 0 201 -68.5t93 -172.5h-76q-6 32 -20.5 61.5t-39 56.5t-66 43t-93.5 16q-83 0 -141.5 -44t-84.5 -112t-26 -151q0 -129 65 -217.5t187 -88.5q105 0 160 59.5t62 143.5h76
q-13 -119 -93 -193t-205 -74z" />
    <glyph glyph-name="cdotaccent" unicode="&#x10b;" horiz-adv-x="522" 
d="M318 612h-84v84h84v-84zM276 -13q-109 0 -176.5 74t-67.5 194q0 119 67.5 193t176.5 74q91 0 151 -54t68 -137h-68q-4 51 -41.5 92.5t-109.5 41.5q-87 0 -131.5 -61.5t-44.5 -148.5q0 -88 44.5 -150t131.5 -62q73 0 110 42t41 97h68q-5 -84 -66 -139.5t-153 -55.5z" />
    <glyph glyph-name="Ccaron" unicode="&#x10c;" horiz-adv-x="697" 
d="M407 799h-74l-91 130h68l59 -93h2l59 93h67zM368 -13q-145 0 -236.5 103.5t-91.5 266.5t91.5 267t237.5 104q122 0 201 -68.5t93 -172.5h-76q-6 32 -20.5 61.5t-39 56.5t-66 43t-93.5 16q-83 0 -141.5 -44t-84.5 -112t-26 -151q0 -129 65 -217.5t187 -88.5
q105 0 160 59.5t62 143.5h76q-13 -119 -93 -193t-205 -74z" />
    <glyph glyph-name="ccaron" unicode="&#x10d;" horiz-adv-x="522" 
d="M314 594h-74l-91 130h68l59 -93h2l59 93h67zM276 -13q-109 0 -176.5 74t-67.5 194q0 119 67.5 193t176.5 74q91 0 151 -54t68 -137h-68q-4 51 -41.5 92.5t-109.5 41.5q-87 0 -131.5 -61.5t-44.5 -148.5q0 -88 44.5 -150t131.5 -62q73 0 110 42t41 97h68
q-5 -84 -66 -139.5t-153 -55.5z" />
    <glyph glyph-name="Dcaron" unicode="&#x10e;" horiz-adv-x="687" 
d="M312 799h-74l-91 130h68l59 -93h2l59 93h67zM332 0h-256v715h259q148 0 229.5 -95.5t81.5 -263.5q0 -167 -82.5 -261.5t-231.5 -94.5zM149 64h183q65 0 112.5 23t74 64.5t39 92t12.5 112.5q0 50 -7 92t-24.5 80.5t-43.5 65t-67 42t-94 15.5h-185v-587z" />
    <glyph glyph-name="dcaron" unicode="&#x10f;" horiz-adv-x="567" 
d="M429 424h2v291h65v-715h-65v83h-2q-56 -96 -172 -96q-96 0 -160 72.5t-64 195.5q0 122 64 194.5t160 72.5q118 0 172 -98zM537 527l24 188h76l-49 -188h-51zM265 44q74 0 120 57.5t46 153.5q0 95 -46 152.5t-120 57.5q-77 0 -120.5 -60t-43.5 -150t43.5 -150.5
t120.5 -60.5z" />
    <glyph glyph-name="Dcroat" unicode="&#x110;" horiz-adv-x="709" 
d="M98 715h259q148 0 229.5 -95.5t81.5 -263.5q0 -167 -82.5 -261.5t-231.5 -94.5h-256v341h-84v58h84v316zM171 64h183q65 0 112.5 23t74 64.5t39 92t12.5 112.5q0 50 -7 92t-24.5 80.5t-43.5 65t-67 42t-94 15.5h-185v-252h223v-58h-223v-277z" />
    <glyph glyph-name="dcroat" unicode="&#x111;" horiz-adv-x="557" 
d="M496 643h72v-50h-72v-593h-65v83h-2q-56 -96 -172 -96q-96 0 -160 72.5t-64 195.5q0 122 64 194.5t160 72.5q118 0 172 -98h2v169h-142v50h142v72h65v-72zM265 44q74 0 120 57.5t46 153.5q0 95 -46 152.5t-120 57.5q-77 0 -120.5 -60t-43.5 -150t43.5 -150.5t120.5 -60.5
z" />
    <glyph glyph-name="Emacron" unicode="&#x112;" horiz-adv-x="603" 
d="M447 822h-249v57h249v-57zM572 0h-496v715h485v-64h-412v-246h368v-64h-368v-277h423v-64z" />
    <glyph glyph-name="emacron" unicode="&#x113;" horiz-adv-x="537" 
d="M147 675h249v-57h-249v57zM506 278q0 -28 -1 -36h-404q1 -84 46 -142t130 -58q70 0 108 36t48 78h66q-20 -76 -76 -123t-147 -47q-114 0 -178.5 74.5t-64.5 194.5q0 122 66.5 195t176.5 73q108 0 169 -68t61 -177zM101 299h336q0 71 -44 119.5t-120 48.5
q-73 0 -120.5 -48t-51.5 -120z" />
    <glyph glyph-name="Edotaccent" unicode="&#x116;" horiz-adv-x="603" 
d="M364 817h-84v84h84v-84zM572 0h-496v715h485v-64h-412v-246h368v-64h-368v-277h423v-64z" />
    <glyph glyph-name="edotaccent" unicode="&#x117;" horiz-adv-x="537" 
d="M229 698h84v-84h-84v84zM506 278q0 -28 -1 -36h-404q1 -84 46 -142t130 -58q70 0 108 36t48 78h66q-20 -76 -76 -123t-147 -47q-114 0 -178.5 74.5t-64.5 194.5q0 122 66.5 195t176.5 73q108 0 169 -68t61 -177zM101 299h336q0 71 -44 119.5t-120 48.5q-73 0 -120.5 -48
t-51.5 -120z" />
    <glyph glyph-name="Eogonek" unicode="&#x118;" horiz-adv-x="603" 
d="M533 -126q27 0 50 10v-50q-28 -10 -62 -10q-44 0 -67.5 20.5t-23.5 53.5q0 32 23.5 59.5t55.5 42.5h-433v715h485v-64h-412v-246h368v-64h-368v-277h423v-64h-12q-72 -51 -72 -89q0 -17 12.5 -27t32.5 -10z" />
    <glyph glyph-name="eogonek" unicode="&#x119;" horiz-adv-x="537" 
d="M506 278q0 -28 -1 -36h-404q1 -84 46 -142t130 -58q70 0 108 36t48 78h66q-16 -60 -55 -103t-100 -59q-64 -47 -64 -83q0 -17 12.5 -27t32.5 -10q27 0 50 10v-50q-28 -10 -62 -10q-44 0 -67.5 20.5t-23.5 53.5q0 51 55 88h-1q-114 0 -178.5 74.5t-64.5 194.5
q0 122 66.5 195t176.5 73q108 0 169 -68t61 -177zM101 299h336q0 71 -44 119.5t-120 48.5q-73 0 -120.5 -48t-51.5 -120z" />
    <glyph glyph-name="Ecaron" unicode="&#x11a;" horiz-adv-x="603" 
d="M360 799h-74l-91 130h68l59 -93h2l59 93h67zM572 0h-496v715h485v-64h-412v-246h368v-64h-368v-277h423v-64z" />
    <glyph glyph-name="ecaron" unicode="&#x11b;" horiz-adv-x="537" 
d="M399 725l-90 -130h-74l-91 130h68l59 -93h2l59 93h67zM506 278q0 -28 -1 -36h-404q1 -84 46 -142t130 -58q70 0 108 36t48 78h66q-20 -76 -76 -123t-147 -47q-114 0 -178.5 74.5t-64.5 194.5q0 122 66.5 195t176.5 73q108 0 169 -68t61 -177zM101 299h336q0 71 -44 119.5
t-120 48.5q-73 0 -120.5 -48t-51.5 -120z" />
    <glyph glyph-name="Gcircumflex" unicode="&#x11c;" horiz-adv-x="729" 
d="M309 800h-68l91 130h74l90 -130h-68l-59 93h-1zM364 -13q-153 0 -238 102.5t-85 267.5q0 162 91 266.5t241 104.5q125 0 200 -60t94 -165h-75q-16 77 -74 119t-145 42q-64 0 -115 -26.5t-80.5 -71.5t-45 -98t-15.5 -111q0 -47 7.5 -89.5t26 -82.5t46.5 -69.5t70.5 -47
t96.5 -17.5q105 0 173.5 70t68.5 181h-237v65h310v-367h-50l-22 127h-2q-75 -140 -241 -140z" />
    <glyph glyph-name="gcircumflex" unicode="&#x11d;" horiz-adv-x="557" 
d="M269 688h-1l-59 -93h-68l91 130h74l90 -130h-68zM433 430v80h65v-478q0 -106 -61 -160.5t-169 -54.5q-100 0 -156.5 43t-62.5 113h68q18 -99 152 -99q164 0 164 149v95h-2q-53 -94 -172 -94q-97 0 -160.5 64t-63.5 186q0 120 63.5 184t160.5 64q118 0 172 -92h2zM268 81
q74 0 119.5 49t45.5 144q0 93 -45.5 142t-119.5 49q-78 0 -121.5 -52t-43.5 -139q0 -89 43.5 -141t121.5 -52z" />
    <glyph glyph-name="Gbreve" unicode="&#x11e;" horiz-adv-x="729" 
d="M369 793q-55 0 -88.5 33t-35.5 94h50q8 -78 74 -78q67 0 73 78h51q-3 -60 -36 -93.5t-88 -33.5zM364 -13q-153 0 -238 102.5t-85 267.5q0 162 91 266.5t241 104.5q125 0 200 -60t94 -165h-75q-16 77 -74 119t-145 42q-64 0 -115 -26.5t-80.5 -71.5t-45 -98t-15.5 -111
q0 -47 7.5 -89.5t26 -82.5t46.5 -69.5t70.5 -47t96.5 -17.5q105 0 173.5 70t68.5 181h-237v65h310v-367h-50l-22 127h-2q-75 -140 -241 -140z" />
    <glyph glyph-name="gbreve" unicode="&#x11f;" horiz-adv-x="557" 
d="M269 588q-55 0 -88.5 33t-35.5 94h50q8 -78 74 -78q67 0 73 78h51q-3 -60 -36 -93.5t-88 -33.5zM433 430v80h65v-478q0 -106 -61 -160.5t-169 -54.5q-100 0 -156.5 43t-62.5 113h68q18 -99 152 -99q164 0 164 149v95h-2q-53 -94 -172 -94q-97 0 -160.5 64t-63.5 186
q0 120 63.5 184t160.5 64q118 0 172 -92h2zM268 81q74 0 119.5 49t45.5 144q0 93 -45.5 142t-119.5 49q-78 0 -121.5 -52t-43.5 -139q0 -89 43.5 -141t121.5 -52z" />
    <glyph glyph-name="Gdotaccent" unicode="&#x120;" horiz-adv-x="729" 
d="M411 817h-84v84h84v-84zM364 -13q-153 0 -238 102.5t-85 267.5q0 162 91 266.5t241 104.5q125 0 200 -60t94 -165h-75q-16 77 -74 119t-145 42q-64 0 -115 -26.5t-80.5 -71.5t-45 -98t-15.5 -111q0 -47 7.5 -89.5t26 -82.5t46.5 -69.5t70.5 -47t96.5 -17.5
q105 0 173.5 70t68.5 181h-237v65h310v-367h-50l-22 127h-2q-75 -140 -241 -140z" />
    <glyph glyph-name="gdotaccent" unicode="&#x121;" horiz-adv-x="557" 
d="M227 696h84v-84h-84v84zM433 430v80h65v-478q0 -106 -61 -160.5t-169 -54.5q-100 0 -156.5 43t-62.5 113h68q18 -99 152 -99q164 0 164 149v95h-2q-53 -94 -172 -94q-97 0 -160.5 64t-63.5 186q0 120 63.5 184t160.5 64q118 0 172 -92h2zM268 81q74 0 119.5 49t45.5 144
q0 93 -45.5 142t-119.5 49q-78 0 -121.5 -52t-43.5 -139q0 -89 43.5 -141t121.5 -52z" />
    <glyph glyph-name="uni0122" unicode="&#x122;" horiz-adv-x="729" 
d="M369 302v65h310v-367h-50l-22 127h-2q-75 -140 -241 -140q-153 0 -238 102.5t-85 267.5q0 162 91 266.5t241 104.5q125 0 200 -60t94 -165h-75q-16 77 -74 119t-145 42q-64 0 -115 -26.5t-80.5 -71.5t-45 -98t-15.5 -111q0 -47 7.5 -89.5t26 -82.5t46.5 -69.5t70.5 -47
t96.5 -17.5q105 0 173.5 70t68.5 181h-237zM379 -120h-41v72h84v-72q0 -40 -18 -65t-66 -38v36q24 7 32.5 21.5t8.5 45.5z" />
    <glyph glyph-name="uni0123" unicode="&#x123;" horiz-adv-x="557" 
d="M270 674h41v-78h-84v78q0 42 18 69t66 41v-40q-24 -8 -33 -23.5t-8 -46.5zM433 430v80h65v-478q0 -106 -61 -160.5t-169 -54.5q-100 0 -156.5 43t-62.5 113h68q18 -99 152 -99q164 0 164 149v95h-2q-53 -94 -172 -94q-97 0 -160.5 64t-63.5 186q0 120 63.5 184t160.5 64
q118 0 172 -92h2zM268 81q74 0 119.5 49t45.5 144q0 93 -45.5 142t-119.5 49q-78 0 -121.5 -52t-43.5 -139q0 -89 43.5 -141t121.5 -52z" />
    <glyph glyph-name="Hcircumflex" unicode="&#x124;" horiz-adv-x="703" 
d="M292 800h-68l91 130h74l90 -130h-68l-59 93h-1zM149 0h-73v715h73v-309h405v309h72v-715h-72v342h-405v-342z" />
    <glyph glyph-name="hcircumflex" unicode="&#x125;" horiz-adv-x="525" 
d="M152 755l-59 93h-1l-59 -93h-68l91 130h74l90 -130h-68zM302 522q73 0 120 -41.5t47 -122.5v-358h-65v344q0 54 -28 87.5t-90 33.5q-71 0 -116 -42.5t-45 -100.5v-322h-65v715h65v-278h2q59 85 175 85z" />
    <glyph glyph-name="Hbar" unicode="&#x126;" horiz-adv-x="725" 
d="M643 599h62v-58h-62v-541h-73v342h-404v-342h-73v541h-77v58h77v116h73v-116h404v116h73v-116zM166 406h404v135h-404v-135z" />
    <glyph glyph-name="hbar" unicode="&#x127;" horiz-adv-x="525" 
d="M302 522q73 0 120 -41.5t47 -122.5v-358h-65v344q0 54 -28 87.5t-90 33.5q-71 0 -116 -42.5t-45 -100.5v-322h-65v593h-63v50h63v72h65v-72h158v-50h-158v-156h2q59 85 175 85z" />
    <glyph glyph-name="Itilde" unicode="&#x128;" horiz-adv-x="225" 
d="M26 805h-51q1 45 21 67.5t51 22.5q28 0 69.5 -20.5t54.5 -20.5q25 0 27 39h51q-1 -45 -21 -67t-51 -22q-27 0 -69 20.5t-55 20.5q-25 0 -27 -40zM149 0h-73v715h73v-715z" />
    <glyph glyph-name="itilde" unicode="&#x129;" horiz-adv-x="185" 
d="M6 600h-51q1 45 21 67.5t51 22.5q28 0 69.5 -20.5t54.5 -20.5q25 0 27 39h51q-1 -45 -21 -67t-51 -22q-27 0 -69 20.5t-55 20.5q-25 0 -27 -40zM125 0h-65v510h65v-510z" />
    <glyph glyph-name="Imacron" unicode="&#x12a;" horiz-adv-x="225" 
d="M237 822h-249v57h249v-57zM149 0h-73v715h73v-715z" />
    <glyph glyph-name="imacron" unicode="&#x12b;" horiz-adv-x="185" 
d="M217 617h-249v57h249v-57zM125 0h-65v510h65v-510z" />
    <glyph glyph-name="Iogonek" unicode="&#x12e;" horiz-adv-x="225" 
d="M115 -126q27 0 50 10v-50q-28 -10 -62 -10q-44 0 -67.5 20.5t-23.5 53.5q0 32 23.5 59.5t55.5 42.5h-15v715h73v-715h-7q-72 -51 -72 -89q0 -17 12.5 -27t32.5 -10z" />
    <glyph glyph-name="iogonek" unicode="&#x12f;" horiz-adv-x="185" 
d="M50 696h84v-84h-84v84zM91 -126q27 0 50 10v-50q-28 -10 -62 -10q-44 0 -67.5 20.5t-23.5 53.5q0 32 23.5 59.5t55.5 42.5h-7v510h65v-510h-7q-72 -51 -72 -89q0 -17 12.5 -27t32.5 -10z" />
    <glyph glyph-name="Idotaccent" unicode="&#x130;" horiz-adv-x="225" 
d="M154 817h-84v84h84v-84zM149 0h-73v715h73v-715z" />
    <glyph glyph-name="dotlessi" unicode="&#x131;" horiz-adv-x="185" 
d="M125 0h-65v510h65v-510z" />
    <glyph glyph-name="Jcircumflex" unicode="&#x134;" horiz-adv-x="496" 
d="M328 800h-68l91 130h74l90 -130h-68l-59 93h-1zM221 -13q-54 0 -94.5 18t-63 49.5t-33 69.5t-10.5 83v23h73v-23q0 -75 28.5 -115.5t99.5 -40.5t100.5 41t29.5 115v508h73v-508q0 -95 -49 -157.5t-154 -62.5z" />
    <glyph glyph-name="jcircumflex" unicode="&#x135;" horiz-adv-x="185" 
d="M33 595h-68l91 130h74l90 -130h-68l-59 93h-1zM25 -180q-22 0 -49 4v55q30 -2 38 -2q25 0 35.5 17.5t10.5 61.5v554h65v-559q0 -131 -100 -131z" />
    <glyph glyph-name="uni0136" unicode="&#x136;" horiz-adv-x="629" 
d="M618 715l-285 -297l308 -418h-85l-270 369l-137 -143v-226h-73v715h73v-404l386 404h83zM337 -120h-41v72h84v-72q0 -40 -18 -65t-66 -38v36q24 7 32.5 21.5t8.5 45.5z" />
    <glyph glyph-name="uni0137" unicode="&#x137;" horiz-adv-x="470" 
d="M458 510l-201 -187l226 -323h-77l-193 282l-88 -82v-200h-65v715h65v-445l253 240h80zM259 -120h-41v72h84v-72q0 -40 -18 -65t-66 -38v36q24 7 32.5 21.5t8.5 45.5z" />
    <glyph glyph-name="kgreenlandic" unicode="&#x138;" horiz-adv-x="476" 
d="M483 0h-77l-186 273l-95 -88v-185h-65v510h65v-253l269 253h81l-212 -196z" />
    <glyph glyph-name="Lacute" unicode="&#x139;" horiz-adv-x="549" 
d="M134 798h-54l62 132h78zM535 0h-459v715h73v-651h386v-64z" />
    <glyph glyph-name="lacute" unicode="&#x13a;" horiz-adv-x="185" 
d="M113 753h-54l62 132h78zM125 0h-65v715h65v-715z" />
    <glyph glyph-name="uni013B" unicode="&#x13b;" horiz-adv-x="549" 
d="M149 715v-651h386v-64h-459v715h73zM305 -120h-41v72h84v-72q0 -40 -18 -65t-66 -38v36q24 7 32.5 21.5t8.5 45.5z" />
    <glyph glyph-name="uni013C" unicode="&#x13c;" horiz-adv-x="185" 
d="M60 715h65v-715h-65v715zM51 -120v72h84v-72q0 -40 -18 -65t-66 -38v36q24 7 32.5 21.5t8.5 45.5h-41z" />
    <glyph glyph-name="Lcaron" unicode="&#x13d;" horiz-adv-x="549" 
d="M535 0h-459v715h73v-651h386v-64zM328 527h-51l24 188h77z" />
    <glyph glyph-name="lcaron" unicode="&#x13e;" horiz-adv-x="196" 
d="M125 0h-65v715h65v-715zM209 527h-50l23 188h77z" />
    <glyph glyph-name="Lslash" unicode="&#x141;" horiz-adv-x="588" 
d="M188 310v-246h385v-64h-458v261l-90 -60v64l90 60v390h73v-341l187 126v-64z" />
    <glyph glyph-name="lslash" unicode="&#x142;" horiz-adv-x="258" 
d="M162 431l74 55v-64l-74 -55v-367h-65v318l-73 -54v64l73 54v333h65v-284z" />
    <glyph glyph-name="Nacute" unicode="&#x143;" horiz-adv-x="703" 
d="M372 798h-54l62 132h78zM149 0h-73v715h89l387 -612h2v612h73v-715h-89l-387 612h-2v-612z" />
    <glyph glyph-name="nacute" unicode="&#x144;" horiz-adv-x="525" 
d="M296 726h78l-86 -132h-54zM302 522q73 0 120 -41.5t47 -122.5v-358h-65v344q0 54 -28 87.5t-90 33.5q-71 0 -116 -42.5t-45 -100.5v-322h-65v510h65v-73h2q59 85 175 85z" />
    <glyph glyph-name="uni0145" unicode="&#x145;" horiz-adv-x="703" 
d="M554 103v612h73v-715h-89l-387 612h-2v-612h-73v715h89l387 -612h2zM348 -120h-41v72h84v-72q0 -40 -18 -65t-66 -38v36q24 7 32.5 21.5t8.5 45.5z" />
    <glyph glyph-name="uni0146" unicode="&#x146;" horiz-adv-x="525" 
d="M302 522q73 0 120 -41.5t47 -122.5v-358h-65v344q0 54 -28 87.5t-90 33.5q-71 0 -116 -42.5t-45 -100.5v-322h-65v510h65v-73h2q59 85 175 85zM264 -120h-41v72h84v-72q0 -40 -18 -65t-66 -38v36q24 7 32.5 21.5t8.5 45.5z" />
    <glyph glyph-name="Ncaron" unicode="&#x147;" horiz-adv-x="703" 
d="M389 799h-74l-91 130h68l59 -93h2l59 93h67zM149 0h-73v715h89l387 -612h2v612h73v-715h-89l-387 612h-2v-612z" />
    <glyph glyph-name="ncaron" unicode="&#x148;" horiz-adv-x="525" 
d="M395 725l-90 -130h-74l-91 130h68l59 -93h2l59 93h67zM302 522q73 0 120 -41.5t47 -122.5v-358h-65v344q0 54 -28 87.5t-90 33.5q-71 0 -116 -42.5t-45 -100.5v-322h-65v510h65v-73h2q59 85 175 85z" />
    <glyph glyph-name="Eng" unicode="&#x14a;" horiz-adv-x="703" 
d="M451 -178q-35 0 -60 7v57q154 -22 155 101l-395 624h-2v-611h-73v715h89l387 -613h2v613h73v-709q0 -95 -48.5 -139.5t-127.5 -44.5z" />
    <glyph glyph-name="eng" unicode="&#x14b;" horiz-adv-x="525" 
d="M302 522q73 0 120 -41.5t47 -122.5v-396q0 -69 -28 -97t-80 -28q-27 0 -54 5v57q54 -6 75.5 8t21.5 57v380q0 54 -28 87.5t-90 33.5q-71 0 -116 -42.5t-45 -100.5v-322h-65v510h65v-73h2q59 85 175 85z" />
    <glyph glyph-name="Omacron" unicode="&#x14c;" horiz-adv-x="767" 
d="M508 822h-249v57h249v-57zM384 -13q-154 0 -249 104t-95 267t95 266.5t249 103.5q153 0 248 -103.5t95 -266.5t-95 -267t-248 -104zM384 51q127 0 197 87t70 220t-70 219.5t-197 86.5q-128 0 -198 -86.5t-70 -219.5t70 -220t198 -87z" />
    <glyph glyph-name="omacron" unicode="&#x14d;" horiz-adv-x="554" 
d="M402 618h-249v57h249v-57zM277 -14q-113 0 -179 74t-66 194q0 121 66 195t179 74t179 -74t66 -195q0 -120 -66 -194t-179 -74zM277 43q86 0 131.5 59.5t45.5 151.5q0 93 -45.5 152.5t-131.5 59.5t-131.5 -59.5t-45.5 -152.5q0 -92 45.5 -151.5t131.5 -59.5z" />
    <glyph glyph-name="Ohungarumlaut" unicode="&#x150;" horiz-adv-x="767" 
d="M338 797h-54l62 132h78zM475 797h-54l62 132h79zM384 -13q-154 0 -249 104t-95 267t95 266.5t249 103.5q153 0 248 -103.5t95 -266.5t-95 -267t-248 -104zM384 51q127 0 197 87t70 220t-70 219.5t-197 86.5q-128 0 -198 -86.5t-70 -219.5t70 -220t198 -87z" />
    <glyph glyph-name="ohungarumlaut" unicode="&#x151;" horiz-adv-x="554" 
d="M232 593h-54l62 132h78zM369 593h-54l62 132h79zM277 -14q-113 0 -179 74t-66 194q0 121 66 195t179 74t179 -74t66 -195q0 -120 -66 -194t-179 -74zM277 43q86 0 131.5 59.5t45.5 151.5q0 93 -45.5 152.5t-131.5 59.5t-131.5 -59.5t-45.5 -152.5q0 -92 45.5 -151.5
t131.5 -59.5z" />
    <glyph glyph-name="OE" unicode="&#x152;" horiz-adv-x="1098" 
d="M645 341v-277h423v-64h-496v161q-33 -87 -96 -130.5t-146 -43.5q-126 0 -207.5 104.5t-81.5 266.5q0 161 81 265.5t208 104.5q83 0 146 -43t96 -130v160h485v-64h-412v-246h367v-64h-367zM344 51q94 0 157.5 80.5t63.5 226.5t-63 226t-158 80q-111 0 -169.5 -86
t-58.5 -220t58.5 -220.5t169.5 -86.5z" />
    <glyph glyph-name="oe" unicode="&#x153;" horiz-adv-x="958" 
d="M927 278q0 -28 -1 -36h-404q1 -84 46 -142t130 -58q71 0 108.5 36t47.5 78h66q-20 -76 -76 -123t-147 -47q-147 0 -209 120q-30 -56 -84.5 -87.5t-126.5 -31.5q-113 0 -179 73.5t-66 194.5q0 120 66 193.5t179 73.5q72 0 126.5 -31.5t84.5 -87.5q30 57 84.5 88.5
t125.5 31.5q107 0 168 -68t61 -177zM522 299h336q0 71 -44 119.5t-120 48.5q-73 0 -120.5 -48t-51.5 -120zM277 44q86 0 131.5 59t45.5 152q0 92 -45.5 151t-131.5 59t-131.5 -59t-45.5 -151q0 -93 45.5 -152t131.5 -59z" />
    <glyph glyph-name="Racute" unicode="&#x154;" horiz-adv-x="640" 
d="M331 798h-54l62 132h78zM149 0h-73v715h280q114 0 174.5 -52t60.5 -150q0 -70 -36.5 -117.5t-96.5 -62.5v-2q46 -9 74 -45t37.5 -81t13 -88.5t7.5 -75.5t14 -35v-6h-78q-8 7 -10.5 41.5t-5.5 76t-13.5 83t-43.5 69t-86 27.5h-218v-297zM149 361h189q86 0 133 38.5
t47 112.5q0 70 -42 104.5t-133 34.5h-194v-290z" />
    <glyph glyph-name="racute" unicode="&#x155;" horiz-adv-x="325" 
d="M220 725h78l-86 -132h-54zM272 522q26 0 44 -3v-64q-15 3 -31 3q-69 0 -114.5 -49.5t-45.5 -123.5v-285h-65v510h65v-104h2q45 116 145 116z" />
    <glyph glyph-name="uni0156" unicode="&#x156;" horiz-adv-x="640" 
d="M458 333v-2q46 -9 74 -45t37.5 -81t13 -88.5t7.5 -75.5t14 -35v-6h-78q-8 7 -10.5 41.5t-5.5 76t-13.5 83t-43.5 69t-86 27.5h-218v-297h-73v715h280q114 0 174.5 -52t60.5 -150q0 -70 -36.5 -117.5t-96.5 -62.5zM149 361h189q86 0 133 38.5t47 112.5q0 70 -42 104.5
t-133 34.5h-194v-290zM330 -120h-41v72h84v-72q0 -40 -18 -65t-66 -38v36q24 7 32.5 21.5t8.5 45.5z" />
    <glyph glyph-name="uni0157" unicode="&#x157;" horiz-adv-x="325" 
d="M272 522q26 0 44 -3v-64q-15 3 -31 3q-69 0 -114.5 -49.5t-45.5 -123.5v-285h-65v510h65v-104h2q45 116 145 116zM92 -120h-41v72h84v-72q0 -40 -18 -65t-66 -38v36q24 7 32.5 21.5t8.5 45.5z" />
    <glyph glyph-name="Rcaron" unicode="&#x158;" horiz-adv-x="640" 
d="M348 799h-74l-91 130h68l59 -93h2l59 93h67zM149 0h-73v715h280q114 0 174.5 -52t60.5 -150q0 -70 -36.5 -117.5t-96.5 -62.5v-2q46 -9 74 -45t37.5 -81t13 -88.5t7.5 -75.5t14 -35v-6h-78q-8 7 -10.5 41.5t-5.5 76t-13.5 83t-43.5 69t-86 27.5h-218v-297zM149 361h189
q86 0 133 38.5t47 112.5q0 70 -42 104.5t-133 34.5h-194v-290z" />
    <glyph glyph-name="rcaron" unicode="&#x159;" horiz-adv-x="325" 
d="M319 724l-90 -130h-74l-91 130h68l59 -93h2l59 93h67zM125 406h2q45 116 145 116q26 0 44 -3v-64q-15 3 -31 3q-69 0 -114.5 -49.5t-45.5 -123.5v-285h-65v510h65v-104z" />
    <glyph glyph-name="Sacute" unicode="&#x15a;" horiz-adv-x="616" 
d="M322 798h-54l62 132h78zM333 -13q-132 0 -215.5 66t-90.5 184h76q8 -87 63.5 -136.5t163.5 -49.5q93 0 135 38.5t42 103.5q0 26 -5 46t-20 35t-29 24.5t-44.5 19.5t-53 16t-68.5 16q-53 12 -87 24t-70.5 33.5t-54.5 55.5t-18 81q0 85 64 134.5t174 49.5q117 0 186.5 -57
t77.5 -162h-76q-19 155 -188 155q-78 0 -120 -30.5t-42 -86.5q0 -28 10.5 -49.5t25 -34.5t43.5 -24t50 -16.5t61 -14.5q65 -14 104.5 -27t79 -36.5t58 -60.5t18.5 -89q0 -92 -64 -150t-186 -58z" />
    <glyph glyph-name="sacute" unicode="&#x15b;" horiz-adv-x="472" 
d="M256 593h-54l62 132h78zM248 -13q-104 0 -163 50.5t-61 129.5h68q3 -56 42 -89.5t115 -33.5q68 0 99 26.5t31 68.5q0 14 -4 25.5t-8.5 19.5t-15.5 15.5t-18.5 11.5t-23.5 9t-24 7t-27 6t-26 6q-39 10 -57 15t-49 18t-45 26t-26 35.5t-12 51.5q0 63 48 100t133 37
q94 0 145.5 -43.5t58.5 -111.5h-68q-20 98 -135 98q-55 0 -84.5 -20t-29.5 -56q0 -10 2 -19t7.5 -16.5t10.5 -12.5t15.5 -10.5t17.5 -8.5t21.5 -7t22 -6t24.5 -6t25 -6q45 -11 72 -20t58 -26.5t46 -44.5t15 -65q0 -70 -53 -112t-147 -42z" />
    <glyph glyph-name="Scircumflex" unicode="&#x15c;" horiz-adv-x="616" 
d="M242 800h-68l91 130h74l90 -130h-68l-59 93h-1zM333 -13q-132 0 -215.5 66t-90.5 184h76q8 -87 63.5 -136.5t163.5 -49.5q93 0 135 38.5t42 103.5q0 26 -5 46t-20 35t-29 24.5t-44.5 19.5t-53 16t-68.5 16q-53 12 -87 24t-70.5 33.5t-54.5 55.5t-18 81q0 85 64 134.5
t174 49.5q117 0 186.5 -57t77.5 -162h-76q-19 155 -188 155q-78 0 -120 -30.5t-42 -86.5q0 -28 10.5 -49.5t25 -34.5t43.5 -24t50 -16.5t61 -14.5q65 -14 104.5 -27t79 -36.5t58 -60.5t18.5 -89q0 -92 -64 -150t-186 -58z" />
    <glyph glyph-name="scircumflex" unicode="&#x15d;" horiz-adv-x="472" 
d="M176 595h-68l91 130h74l90 -130h-68l-59 93h-1zM248 -13q-104 0 -163 50.5t-61 129.5h68q3 -56 42 -89.5t115 -33.5q68 0 99 26.5t31 68.5q0 14 -4 25.5t-8.5 19.5t-15.5 15.5t-18.5 11.5t-23.5 9t-24 7t-27 6t-26 6q-39 10 -57 15t-49 18t-45 26t-26 35.5t-12 51.5
q0 63 48 100t133 37q94 0 145.5 -43.5t58.5 -111.5h-68q-20 98 -135 98q-55 0 -84.5 -20t-29.5 -56q0 -10 2 -19t7.5 -16.5t10.5 -12.5t15.5 -10.5t17.5 -8.5t21.5 -7t22 -6t24.5 -6t25 -6q45 -11 72 -20t58 -26.5t46 -44.5t15 -65q0 -70 -53 -112t-147 -42z" />
    <glyph glyph-name="Scedilla" unicode="&#x15e;" horiz-adv-x="616" 
d="M357 -12l-35 -42v-2q37 7 65.5 -9.5t28.5 -53.5t-29 -56t-72 -19q-55 0 -103 30l19 22q37 -16 72 -16q55 0 55 40q0 33 -42 33q-26 0 -42 -8l-12 18l51 62q-124 5 -201.5 70.5t-84.5 179.5h76q8 -87 63.5 -136.5t163.5 -49.5q93 0 135 38.5t42 103.5q0 26 -5 46t-20 35
t-29 24.5t-44.5 19.5t-53 16t-68.5 16q-53 12 -87 24t-70.5 33.5t-54.5 55.5t-18 81q0 85 64 134.5t174 49.5q117 0 186.5 -57t77.5 -162h-76q-19 155 -188 155q-78 0 -120 -30.5t-42 -86.5q0 -28 10.5 -49.5t25 -34.5t43.5 -24t50 -16.5t61 -14.5q65 -14 104.5 -27
t79 -36.5t58 -60.5t18.5 -89q0 -87 -58 -144t-168 -63z" />
    <glyph glyph-name="scedilla" unicode="&#x15f;" horiz-adv-x="472" 
d="M258 -13l-34 -41v-2q37 7 65.5 -9.5t28.5 -53.5t-29 -56t-72 -19q-55 0 -103 30l19 22q37 -16 72 -16q55 0 55 40q0 33 -42 33q-26 0 -42 -8l-12 18l52 63q-90 8 -140 57t-52 122h68q3 -56 42 -89.5t115 -33.5q68 0 99 26.5t31 68.5q0 14 -4 25.5t-8.5 19.5t-15.5 15.5
t-18.5 11.5t-23.5 9t-24 7t-27 6t-26 6q-39 10 -57 15t-49 18t-45 26t-26 35.5t-12 51.5q0 63 48 100t133 37q94 0 145.5 -43.5t58.5 -111.5h-68q-20 98 -135 98q-55 0 -84.5 -20t-29.5 -56q0 -10 2 -19t7.5 -16.5t10.5 -12.5t15.5 -10.5t17.5 -8.5t21.5 -7t22 -6t24.5 -6
t25 -6q45 -11 72 -20t58 -26.5t46 -44.5t15 -65q0 -68 -50.5 -110t-139.5 -44z" />
    <glyph glyph-name="Scaron" unicode="&#x160;" horiz-adv-x="616" 
d="M339 799h-74l-91 130h68l59 -93h2l59 93h67zM333 -13q-132 0 -215.5 66t-90.5 184h76q8 -87 63.5 -136.5t163.5 -49.5q93 0 135 38.5t42 103.5q0 26 -5 46t-20 35t-29 24.5t-44.5 19.5t-53 16t-68.5 16q-53 12 -87 24t-70.5 33.5t-54.5 55.5t-18 81q0 85 64 134.5
t174 49.5q117 0 186.5 -57t77.5 -162h-76q-19 155 -188 155q-78 0 -120 -30.5t-42 -86.5q0 -28 10.5 -49.5t25 -34.5t43.5 -24t50 -16.5t61 -14.5q65 -14 104.5 -27t79 -36.5t58 -60.5t18.5 -89q0 -92 -64 -150t-186 -58z" />
    <glyph glyph-name="scaron" unicode="&#x161;" horiz-adv-x="472" 
d="M273 594h-74l-91 130h68l59 -93h2l59 93h67zM248 -13q-104 0 -163 50.5t-61 129.5h68q3 -56 42 -89.5t115 -33.5q68 0 99 26.5t31 68.5q0 14 -4 25.5t-8.5 19.5t-15.5 15.5t-18.5 11.5t-23.5 9t-24 7t-27 6t-26 6q-39 10 -57 15t-49 18t-45 26t-26 35.5t-12 51.5
q0 63 48 100t133 37q94 0 145.5 -43.5t58.5 -111.5h-68q-20 98 -135 98q-55 0 -84.5 -20t-29.5 -56q0 -10 2 -19t7.5 -16.5t10.5 -12.5t15.5 -10.5t17.5 -8.5t21.5 -7t22 -6t24.5 -6t25 -6q45 -11 72 -20t58 -26.5t46 -44.5t15 -65q0 -70 -53 -112t-147 -42z" />
    <glyph glyph-name="uni0162" unicode="&#x162;" horiz-adv-x="588" 
d="M330 0h-9l-45 -54v-2q37 7 65.5 -9.5t28.5 -53.5t-29 -56t-72 -19q-55 0 -103 30l19 22q37 -16 72 -16q55 0 55 40q0 33 -42 33q-26 0 -42 -8l-12 18l61 75h-19v651h-243v64h559v-64h-244v-651z" />
    <glyph glyph-name="uni0163" unicode="&#x163;" horiz-adv-x="280" 
d="M172 -41v-2q37 7 65.5 -9.5t28.5 -53.5t-29 -56t-72 -19q-55 0 -103 30l19 22q37 -16 72 -16q55 0 55 40q0 33 -42 33q-26 0 -42 -8l-12 18l51 62q-75 18 -75 132v321h-75v57h75v170h65v-170h103v-57h-103v-322q0 -47 13 -62.5t51 -15.5q9 0 39 2v-55q-27 -4 -48 -4h-5z
" />
    <glyph glyph-name="Tcaron" unicode="&#x164;" horiz-adv-x="588" 
d="M331 799h-74l-91 130h68l59 -93h2l59 93h67zM330 0h-72v651h-243v64h559v-64h-244v-651z" />
    <glyph glyph-name="tcaron" unicode="&#x165;" horiz-adv-x="280" 
d="M224 715h77l-50 -151h-50zM88 680h65v-170h103v-57h-103v-322q0 -47 13 -62.5t51 -15.5q9 0 39 2v-55q-27 -4 -48 -4q-61 0 -90.5 29t-29.5 107v321h-75v57h75v170z" />
    <glyph glyph-name="Tbar" unicode="&#x166;" horiz-adv-x="588" 
d="M574 715v-64h-244v-252h182v-58h-182v-341h-72v341h-154v58h154v252h-243v64h559z" />
    <glyph glyph-name="tbar" unicode="&#x167;" horiz-adv-x="288" 
d="M260 510v-57h-104v-107h104v-57h-104v-158q0 -47 13 -62.5t52 -15.5q7 0 39 2v-55q-27 -4 -48 -4q-61 0 -91 29t-30 107v157h-75v57h75v107h-75v57h75v170h65v-170h104z" />
    <glyph glyph-name="Utilde" unicode="&#x168;" horiz-adv-x="680" 
d="M253 805h-51q1 45 21 67.5t51 22.5q28 0 69.5 -20.5t54.5 -20.5q25 0 27 39h51q-1 -45 -21 -67t-51 -22q-27 0 -69 20.5t-55 20.5q-25 0 -27 -40zM340 -13q-136 0 -202.5 67.5t-66.5 186.5v474h73v-474q0 -190 196 -190t196 190v474h73v-474q0 -119 -66.5 -186.5
t-202.5 -67.5z" />
    <glyph glyph-name="utilde" unicode="&#x169;" horiz-adv-x="525" 
d="M193 640q-25 0 -27 -40h-51q1 45 21 67.5t51 22.5q28 0 69.5 -20.5t54.5 -20.5q25 0 27 39h51q-1 -45 -21 -67t-51 -22q-27 0 -69 20.5t-55 20.5zM400 188v322h65v-510h-65v72h-2q-58 -84 -175 -84q-73 0 -120 41.5t-47 122.5v358h65v-344q0 -54 28 -87.5t90 -33.5
q71 0 116 42.5t45 100.5z" />
    <glyph glyph-name="Umacron" unicode="&#x16a;" horiz-adv-x="680" 
d="M465 822h-249v57h249v-57zM340 -13q-136 0 -202.5 67.5t-66.5 186.5v474h73v-474q0 -190 196 -190t196 190v474h73v-474q0 -119 -66.5 -186.5t-202.5 -67.5z" />
    <glyph glyph-name="umacron" unicode="&#x16b;" horiz-adv-x="525" 
d="M128 674h249v-57h-249v57zM400 188v322h65v-510h-65v72h-2q-58 -84 -175 -84q-73 0 -120 41.5t-47 122.5v358h65v-344q0 -54 28 -87.5t90 -33.5q71 0 116 42.5t45 100.5z" />
    <glyph glyph-name="Ubreve" unicode="&#x16c;" horiz-adv-x="680" 
d="M340 793q-55 0 -88.5 33t-35.5 94h50q8 -78 74 -78q67 0 73 78h51q-3 -60 -36 -93.5t-88 -33.5zM340 -13q-136 0 -202.5 67.5t-66.5 186.5v474h73v-474q0 -190 196 -190t196 190v474h73v-474q0 -119 -66.5 -186.5t-202.5 -67.5z" />
    <glyph glyph-name="ubreve" unicode="&#x16d;" horiz-adv-x="525" 
d="M253 588q-55 0 -88.5 33t-35.5 94h50q8 -78 74 -78q67 0 73 78h51q-3 -60 -36 -93.5t-88 -33.5zM400 188v322h65v-510h-65v72h-2q-58 -84 -175 -84q-73 0 -120 41.5t-47 122.5v358h65v-344q0 -54 28 -87.5t90 -33.5q71 0 116 42.5t45 100.5z" />
    <glyph glyph-name="Uring" unicode="&#x16e;" horiz-adv-x="680" 
d="M339 766q-38 0 -62 24t-24 61q0 38 24 61.5t62 23.5t62 -23.5t24 -61.5q0 -37 -24 -61t-62 -24zM339 800q22 0 36 14t14 37q0 22 -14 36.5t-36 14.5t-35.5 -14.5t-13.5 -36.5q0 -23 13.5 -37t35.5 -14zM340 -13q-136 0 -202.5 67.5t-66.5 186.5v474h73v-474
q0 -190 196 -190t196 190v474h73v-474q0 -119 -66.5 -186.5t-202.5 -67.5z" />
    <glyph glyph-name="uring" unicode="&#x16f;" horiz-adv-x="525" 
d="M252 561q-38 0 -62 24t-24 61q0 38 24 61.5t62 23.5t62 -23.5t24 -61.5q0 -37 -24 -61t-62 -24zM252 697q-22 0 -35.5 -14.5t-13.5 -36.5q0 -23 13.5 -37t35.5 -14t36 14t14 37q0 22 -14 36.5t-36 14.5zM400 188v322h65v-510h-65v72h-2q-58 -84 -175 -84q-73 0 -120 41.5
t-47 122.5v358h65v-344q0 -54 28 -87.5t90 -33.5q71 0 116 42.5t45 100.5z" />
    <glyph glyph-name="Uhungarumlaut" unicode="&#x170;" horiz-adv-x="680" 
d="M294 797h-54l62 132h78zM431 797h-54l62 132h79zM340 -13q-136 0 -202.5 67.5t-66.5 186.5v474h73v-474q0 -190 196 -190t196 190v474h73v-474q0 -119 -66.5 -186.5t-202.5 -67.5z" />
    <glyph glyph-name="uhungarumlaut" unicode="&#x171;" horiz-adv-x="525" 
d="M215 724h78l-86 -132h-54zM431 724l-87 -132h-54l62 132h79zM400 188v322h65v-510h-65v72h-2q-58 -84 -175 -84q-73 0 -120 41.5t-47 122.5v358h65v-344q0 -54 28 -87.5t90 -33.5q71 0 116 42.5t45 100.5z" />
    <glyph glyph-name="Uogonek" unicode="&#x172;" horiz-adv-x="680" 
d="M536 241v474h73v-474q0 -96 -44 -159.5t-134 -84.5q-67 -49 -67 -86q0 -17 12.5 -27t32.5 -10q27 0 50 10v-50q-28 -10 -62 -10q-44 0 -67.5 20.5t-23.5 53.5q0 50 57 90q-7 -1 -23 -1q-136 0 -202.5 67.5t-66.5 186.5v474h73v-474q0 -190 196 -190t196 190z" />
    <glyph glyph-name="uogonek" unicode="&#x173;" horiz-adv-x="525" 
d="M424 -126q27 0 50 10v-50q-28 -10 -62 -10q-44 0 -67.5 20.5t-23.5 53.5q0 32 23.5 59.5t55.5 42.5v72h-2q-58 -84 -175 -84q-73 0 -120 41.5t-47 122.5v358h65v-344q0 -54 28 -87.5t90 -33.5q71 0 116 42.5t45 100.5v322h65v-510h-14q-72 -51 -72 -89q0 -17 12.5 -27
t32.5 -10z" />
    <glyph glyph-name="Wcircumflex" unicode="&#x174;" horiz-adv-x="901" 
d="M391 800h-68l91 130h74l90 -130h-68l-59 93h-1zM277 0h-80l-180 715h77l146 -611h2l168 611h81l168 -611h3l146 611h76l-179 -715h-81l-172 629h-3z" />
    <glyph glyph-name="wcircumflex" unicode="&#x175;" horiz-adv-x="737" 
d="M309 595h-68l91 130h74l90 -130h-68l-59 93h-1zM247 0h-72l-162 510h72l127 -436h2l119 436h73l119 -436h2l128 436h70l-163 -510h-73l-120 431h-2z" />
    <glyph glyph-name="Ycircumflex" unicode="&#x176;" horiz-adv-x="618" 
d="M250 800h-68l91 130h74l90 -130h-68l-59 93h-1zM345 0h-73v293l-261 422h79l218 -365h2l219 365h78l-262 -422v-293z" />
    <glyph glyph-name="ycircumflex" unicode="&#x177;" horiz-adv-x="481" 
d="M179 595h-68l91 130h74l90 -130h-68l-59 93h-1zM105 -179q-21 0 -49 4v56q23 -3 39 -3q78 0 115 125l-206 507h72l166 -425h2l158 425h70l-204 -525q-36 -93 -73 -128.5t-90 -35.5z" />
    <glyph glyph-name="Ydieresis" unicode="&#x178;" horiz-adv-x="618" 
d="M277 817h-84v84h84v-84zM426 817h-84v84h84v-84zM345 0h-73v293l-261 422h79l218 -365h2l219 365h78l-262 -422v-293z" />
    <glyph glyph-name="Zacute" unicode="&#x179;" horiz-adv-x="588" 
d="M316 798h-54l62 132h78zM566 0h-548v64l449 585v2h-429v64h518v-64l-449 -585v-2h459v-64z" />
    <glyph glyph-name="zacute" unicode="&#x17a;" horiz-adv-x="441" 
d="M240 593h-54l62 132h78zM422 0h-404v50l303 401v2h-287v57h377v-41l-309 -410v-2h320v-57z" />
    <glyph glyph-name="Zdotaccent" unicode="&#x17b;" horiz-adv-x="588" 
d="M337 817h-84v84h84v-84zM566 0h-548v64l449 585v2h-429v64h518v-64l-449 -585v-2h459v-64z" />
    <glyph glyph-name="zdotaccent" unicode="&#x17c;" horiz-adv-x="441" 
d="M261 612h-84v84h84v-84zM422 0h-404v50l303 401v2h-287v57h377v-41l-309 -410v-2h320v-57z" />
    <glyph glyph-name="Zcaron" unicode="&#x17d;" horiz-adv-x="588" 
d="M332 799h-74l-91 130h68l59 -93h2l59 93h67zM566 0h-548v64l449 585v2h-429v64h518v-64l-449 -585v-2h459v-64z" />
    <glyph glyph-name="zcaron" unicode="&#x17e;" horiz-adv-x="441" 
d="M257 594h-74l-91 130h68l59 -93h2l59 93h67zM422 0h-404v50l303 401v2h-287v57h377v-41l-309 -410v-2h320v-57z" />
    <glyph glyph-name="florin" unicode="&#x192;" horiz-adv-x="454" 
d="M388 721q21 0 50 -4l-12 -55q-36 2 -40 2q-38 0 -53.5 -17t-24.5 -66l-24 -121h102l-2 -57h-111l-72 -365q-16 -79 -47 -108t-85 -29q-23 0 -48 6l-3 55q25 -4 44 -4q38 0 51.5 15.5t22.5 63.5l73 366h-83l2 57h92l25 125q15 78 49 107t94 29z" />
    <glyph glyph-name="uni0218" unicode="&#x218;" horiz-adv-x="616" 
d="M323 408q65 -14 104.5 -27t79 -36.5t58 -60.5t18.5 -89q0 -92 -64 -150t-186 -58q-132 0 -215.5 66t-90.5 184h76q8 -87 63.5 -136.5t163.5 -49.5q93 0 135 38.5t42 103.5q0 26 -5 46t-20 35t-29 24.5t-44.5 19.5t-53 16t-68.5 16q-53 12 -87 24t-70.5 33.5t-54.5 55.5
t-18 81q0 85 64 134.5t174 49.5q117 0 186.5 -57t77.5 -162h-76q-19 155 -188 155q-78 0 -120 -30.5t-42 -86.5q0 -28 10.5 -49.5t25 -34.5t43.5 -24t50 -16.5t61 -14.5zM340 -120h-41v72h84v-72q0 -40 -18 -65t-66 -38v36q24 7 32.5 21.5t8.5 45.5z" />
    <glyph glyph-name="uni0219" unicode="&#x219;" horiz-adv-x="472" 
d="M257 297q45 -11 72 -20t58 -26.5t46 -44.5t15 -65q0 -70 -53 -112t-147 -42q-104 0 -163 50.5t-61 129.5h68q3 -56 42 -89.5t115 -33.5q68 0 99 26.5t31 68.5q0 14 -4 25.5t-8.5 19.5t-15.5 15.5t-18.5 11.5t-23.5 9t-24 7t-27 6t-26 6q-39 10 -57 15t-49 18t-45 26
t-26 35.5t-12 51.5q0 63 48 100t133 37q94 0 145.5 -43.5t58.5 -111.5h-68q-20 98 -135 98q-55 0 -84.5 -20t-29.5 -56q0 -10 2 -19t7.5 -16.5t10.5 -12.5t15.5 -10.5t17.5 -8.5t21.5 -7t22 -6t24.5 -6t25 -6zM242 -120h-41v72h84v-72q0 -40 -18 -65t-66 -38v36
q24 7 32.5 21.5t8.5 45.5z" />
    <glyph glyph-name="uni021A" unicode="&#x21a;" horiz-adv-x="588" 
d="M15 651v64h559v-64h-244v-651h-72v651h-243zM293 -120h-41v72h84v-72q0 -40 -18 -65t-66 -38v36q24 7 32.5 21.5t8.5 45.5z" />
    <glyph glyph-name="uni021B" unicode="&#x21b;" horiz-adv-x="280" 
d="M256 510v-57h-103v-322q0 -47 13 -62.5t51 -15.5q9 0 39 2v-55q-27 -4 -48 -4q-61 0 -90.5 29t-29.5 107v321h-75v57h75v170h65v-170h103zM189 -107h-41v72h84v-72q0 -40 -18 -65t-66 -38v36q24 7 32.5 21.5t8.5 45.5z" />
    <glyph glyph-name="uni0237" unicode="&#x237;" horiz-adv-x="185" 
d="M25 -180q-22 0 -49 4v55q30 -2 38 -2q25 0 35.5 17.5t10.5 61.5v554h65v-559q0 -131 -100 -131z" />
    <glyph glyph-name="circumflex" unicode="&#x2c6;" horiz-adv-x="335" 
d="M108 595h-68l91 130h74l90 -130h-68l-59 93h-1z" />
    <glyph glyph-name="caron" unicode="&#x2c7;" horiz-adv-x="335" 
d="M205 595h-74l-91 130h68l59 -93h2l59 93h67z" />
    <glyph glyph-name="breve" unicode="&#x2d8;" horiz-adv-x="328" 
d="M164 588q-55 0 -88.5 33t-35.5 94h50q8 -78 74 -78q67 0 73 78h51q-3 -60 -36 -93.5t-88 -33.5z" />
    <glyph glyph-name="dotaccent" unicode="&#x2d9;" horiz-adv-x="163" 
d="M123 612h-84v84h84v-84z" />
    <glyph glyph-name="ring" unicode="&#x2da;" horiz-adv-x="251" 
d="M125 554q-38 0 -62 24t-24 61q0 38 24 61.5t62 23.5t62 -23.5t24 -61.5q0 -37 -24 -61t-62 -24zM125 588q22 0 36 14t14 37q0 22 -14 36.5t-36 14.5t-35.5 -14.5t-13.5 -36.5q0 -23 13.5 -37t35.5 -14z" />
    <glyph glyph-name="ogonek" unicode="&#x2db;" horiz-adv-x="233" 
d="M131 -176q-44 0 -67.5 20.5t-23.5 53.5q0 32 23.5 59.5t55.5 42.5h51q-72 -51 -72 -89q0 -17 12.5 -27t32.5 -10q27 0 50 10v-50q-28 -10 -62 -10z" />
    <glyph glyph-name="tilde" unicode="&#x2dc;" horiz-adv-x="354" 
d="M91 601h-51q1 45 21 67.5t51 22.5q28 0 69.5 -20.5t54.5 -20.5q25 0 27 39h51q-1 -45 -21 -67t-51 -22q-27 0 -69 20.5t-55 20.5q-25 0 -27 -40z" />
    <glyph glyph-name="hungarumlaut" unicode="&#x2dd;" horiz-adv-x="347" 
d="M88 593h-54l62 132h78zM225 593h-54l62 132h79z" />
    <glyph glyph-name="gravecomb" unicode="&#x300;" 
d="M169 593h-54l-80 132h79z" />
    <glyph glyph-name="acutecomb" unicode="&#x301;" 
d="M88 593h-54l62 132h78z" />
    <glyph glyph-name="uni0302" unicode="&#x302;" 
d="M108 595h-68l91 130h74l90 -130h-68l-59 93h-1z" />
    <glyph glyph-name="tildecomb" unicode="&#x303;" 
d="M91 601h-51q1 45 21 67.5t51 22.5q28 0 69.5 -20.5t54.5 -20.5q25 0 27 39h51q-1 -45 -21 -67t-51 -22q-27 0 -69 20.5t-55 20.5q-25 0 -27 -40z" />
    <glyph glyph-name="uni0304" unicode="&#x304;" 
d="M289 618h-249v57h249v-57z" />
    <glyph glyph-name="uni0306" unicode="&#x306;" 
d="M164 588q-55 0 -88.5 33t-35.5 94h50q8 -78 74 -78q67 0 73 78h51q-3 -60 -36 -93.5t-88 -33.5z" />
    <glyph glyph-name="uni0307" unicode="&#x307;" 
d="M123 612h-84v84h84v-84z" />
    <glyph glyph-name="uni0308" unicode="&#x308;" 
d="M125 612h-84v84h84v-84zM274 612h-84v84h84v-84z" />
    <glyph glyph-name="uni030A" unicode="&#x30a;" 
d="M125 561q-38 0 -62 24t-24 61q0 38 24 61.5t62 23.5t62 -23.5t24 -61.5q0 -37 -24 -61t-62 -24zM125 595q22 0 36 14t14 37q0 22 -14 36.5t-36 14.5t-35.5 -14.5t-13.5 -36.5q0 -23 13.5 -37t35.5 -14z" />
    <glyph glyph-name="uni030B" unicode="&#x30b;" 
d="M88 593h-54l62 132h78zM225 593h-54l62 132h79z" />
    <glyph glyph-name="uni030C" unicode="&#x30c;" 
d="M205 595h-74l-91 130h68l59 -93h2l59 93h67z" />
    <glyph glyph-name="uni0312" unicode="&#x312;" 
d="M123 785v-40q-24 -8 -33 -23.5t-8 -46.5h41v-78h-84v78q0 41 18 68.5t66 41.5z" />
    <glyph glyph-name="uni0326" unicode="&#x326;" 
d="M40 -120v72h84v-72q0 -40 -18 -65t-66 -38v36q24 7 32.5 21.5t8.5 45.5h-41z" />
    <glyph glyph-name="uni0327" unicode="&#x327;" 
d="M143 -194q-55 0 -103 30l19 22q37 -16 72 -16q55 0 55 40q0 33 -42 33q-26 0 -42 -8l-12 18l61 75h44l-45 -54v-2q37 7 65.5 -9.5t28.5 -53.5t-29 -56t-72 -19z" />
    <glyph glyph-name="uni0328" unicode="&#x328;" 
d="M131 -176q-44 0 -67.5 20.5t-23.5 53.5q0 32 23.5 59.5t55.5 42.5h51q-72 -51 -72 -89q0 -17 12.5 -27t32.5 -10q27 0 50 10v-50q-28 -10 -62 -10z" />
    <glyph glyph-name="uni0335" unicode="&#x335;" 
d="M448 341h-408v58h408v-58z" />
    <glyph glyph-name="uni0336" unicode="&#x336;" 
d="M540 324h-500v72h500v-72z" />
    <glyph glyph-name="uni0337" unicode="&#x337;" 
d="M560 490l-490 -499l-30 31l489 499z" />
    <glyph glyph-name="uni0338" unicode="&#x338;" 
d="M560 490l-490 -499l-30 31l489 499z" />
    <glyph glyph-name="uni0394" unicode="&#x394;" horiz-adv-x="631" 
d="M271 715h88l252 -652v-63h-591v63zM319 646h-7l-217 -582h439z" />
    <glyph glyph-name="uni03A9" unicode="&#x3a9;" horiz-adv-x="784" 
d="M322 0h-284v64h167q-70 48 -111 127.5t-41 179.5q0 152 94.5 254.5t244.5 102.5t244.5 -102.5t94.5 -254.5q0 -100 -40.5 -179.5t-110.5 -127.5h166v-64h-284l1 52q91 49 141.5 120.5t50.5 186.5q0 137 -71 220t-192 83q-120 0 -191.5 -83t-71.5 -220q0 -115 50.5 -186.5
t141.5 -120.5z" />
    <glyph glyph-name="uni03BC" unicode="&#x3bc;" horiz-adv-x="529" 
d="M404 188v322h65v-510h-65v72h-2q-56 -84 -167 -84q-67 0 -110 37v-202h-65v687h65v-344q0 -54 28 -87.5t91 -33.5q69 0 114.5 42.5t45.5 100.5z" />
    <glyph glyph-name="pi" unicode="&#x3c0;" horiz-adv-x="535" 
d="M507 510v-57h-74v-336q0 -38 9.5 -51t36.5 -13q8 0 26 2v-55q-18 -6 -47 -6q-48 0 -69 26t-21 97v336h-210v-453h-65v453h-78v57h492z" />
    <glyph glyph-name="uni0400" unicode="&#x400;" horiz-adv-x="603" 
d="M346 798h-54l-80 132h79zM572 0h-496v715h485v-64h-412v-246h368v-64h-368v-277h423v-64z" />
    <glyph glyph-name="uni0401" unicode="&#x401;" horiz-adv-x="603" 
d="M290 817h-84v84h84v-84zM439 817h-84v84h84v-84zM572 0h-496v715h485v-64h-412v-246h368v-64h-368v-277h423v-64z" />
    <glyph glyph-name="uni0402" unicode="&#x402;" horiz-adv-x="701" 
d="M545 -182q-37 0 -59 6v63q24 -6 49 -6q47 0 47 61v321q0 75 -36.5 115t-105.5 40q-82 0 -128.5 -46.5t-46.5 -129.5v-242h-73v651h-176v64h465v-64h-216v-256h2q65 87 187 87q94 0 147 -54t53 -154v-343q0 -58 -30 -85.5t-79 -27.5z" />
    <glyph glyph-name="uni0403" unicode="&#x403;" horiz-adv-x="482" 
d="M290 798h-54l62 132h78zM149 0h-73v715h391v-64h-318v-651z" />
    <glyph glyph-name="uni0404" unicode="&#x404;" horiz-adv-x="685" 
d="M578 227h76q-8 -106 -86 -173t-204 -67q-147 0 -235 99t-88 274q0 170 89.5 269t236.5 99q117 0 193 -59t91 -155h-76q-14 68 -67.5 109t-140.5 41q-106 0 -174 -74t-75 -201h288v-64h-288q9 -128 75.5 -201t170.5 -73q92 0 149.5 49.5t64.5 126.5z" />
    <glyph glyph-name="uni0405" unicode="&#x405;" horiz-adv-x="616" 
d="M333 -13q-132 0 -215.5 66t-90.5 184h76q8 -87 63.5 -136.5t163.5 -49.5q93 0 135 38.5t42 103.5q0 26 -5 46t-20 35t-29 24.5t-44.5 19.5t-53 16t-68.5 16q-53 12 -87 24t-70.5 33.5t-54.5 55.5t-18 81q0 85 64 134.5t174 49.5q117 0 186.5 -57t77.5 -162h-76
q-19 155 -188 155q-78 0 -120 -30.5t-42 -86.5q0 -28 10.5 -49.5t25 -34.5t43.5 -24t50 -16.5t61 -14.5q65 -14 104.5 -27t79 -36.5t58 -60.5t18.5 -89q0 -92 -64 -150t-186 -58z" />
    <glyph glyph-name="uni0406" unicode="&#x406;" horiz-adv-x="225" 
d="M149 0h-73v715h73v-715z" />
    <glyph glyph-name="uni0407" unicode="&#x407;" horiz-adv-x="225" 
d="M80 817h-84v84h84v-84zM229 817h-84v84h84v-84zM149 0h-73v715h73v-715z" />
    <glyph glyph-name="uni0408" unicode="&#x408;" horiz-adv-x="496" 
d="M221 -13q-54 0 -94.5 18t-63 49.5t-33 69.5t-10.5 83v23h73v-23q0 -75 28.5 -115.5t99.5 -40.5t100.5 41t29.5 115v508h73v-508q0 -95 -49 -157.5t-154 -62.5z" />
    <glyph glyph-name="uni0409" unicode="&#x409;" horiz-adv-x="910" 
d="M64 -15q-40 0 -63 12v63q28 -10 57 -10q41 0 61.5 24.5t22.5 86.5l20 554h358v-277h139q106 0 166.5 -56.5t60.5 -159.5t-63.5 -162.5t-172.5 -59.5h-203v651h-213l-20 -487q-4 -97 -41 -138t-109 -41zM520 374v-310h132q74 0 116 42.5t42 115.5q0 70 -39.5 111
t-107.5 41h-143z" />
    <glyph glyph-name="uni040A" unicode="&#x40a;" horiz-adv-x="940" 
d="M149 0h-73v715h73v-295h329v295h73v-295h139q106 0 166.5 -55t60.5 -152q0 -102 -62.5 -157.5t-173.5 -55.5h-203v356h-329v-356zM551 356v-292h132q75 0 116.5 38t41.5 111q0 69 -39 106t-108 37h-143z" />
    <glyph glyph-name="uni040B" unicode="&#x40b;" horiz-adv-x="699" 
d="M265 0h-73v651h-176v64h465v-64h-216v-276h2q65 87 187 87q94 0 147 -54t53 -154v-254h-72v243q0 75 -36.5 115t-105.5 40q-82 0 -128.5 -46.5t-46.5 -129.5v-222z" />
    <glyph glyph-name="uni040C" unicode="&#x40c;" horiz-adv-x="614" 
d="M344 930h78l-86 -132h-54zM607 715l-295 -363l313 -352h-92l-281 317h-103v-317h-73v715h73v-335h105l273 335h80z" />
    <glyph glyph-name="uni040D" unicode="&#x40d;" horiz-adv-x="723" 
d="M388 798h-54l-80 132h79zM149 0h-73v715h73v-604h2l423 604h72v-715h-72v603h-2z" />
    <glyph glyph-name="uni040E" unicode="&#x40e;" horiz-adv-x="578" 
d="M295 793q-55 0 -88.5 33t-35.5 94h50q8 -78 74 -78q67 0 73 78h51q-3 -60 -36 -93.5t-88 -33.5zM225 0h-73l96 204l-233 511h78l193 -430h2l203 430h75z" />
    <glyph glyph-name="uni040F" unicode="&#x40f;" horiz-adv-x="673" 
d="M371 -130h-68v129h-227v715h73v-650h375v650h72v-715h-225v-129z" />
    <glyph glyph-name="uni0410" unicode="&#x410;" horiz-adv-x="635" 
d="M84 0h-75l267 715h82l269 -715h-78l-72 198h-321zM316 646l-136 -383h274l-136 383h-2z" />
    <glyph glyph-name="uni0411" unicode="&#x411;" horiz-adv-x="621" 
d="M357 0h-281v715h464v-64h-391v-213h217q107 0 167 -56t60 -158q0 -103 -63 -163.5t-173 -60.5zM149 374v-310h211q73 0 115 43t42 117q0 69 -39 109.5t-108 40.5h-221z" />
    <glyph glyph-name="uni0412" unicode="&#x412;" horiz-adv-x="654" 
d="M380 0h-304v715h285q106 0 166 -48t60 -132q0 -112 -113 -151v-2q63 -12 102.5 -57.5t39.5 -119.5q0 -99 -63.5 -152t-172.5 -53zM149 408h226q136 0 136 120q0 57 -34.5 90t-101.5 33h-226v-243zM149 64h234q157 0 157 141q0 63 -37.5 101t-101.5 38h-252v-280z" />
    <glyph glyph-name="uni0413" unicode="&#x413;" horiz-adv-x="482" 
d="M149 0h-73v715h391v-64h-318v-651z" />
    <glyph glyph-name="uni0414" unicode="&#x414;" horiz-adv-x="669" 
d="M73 -130h-69v193h51q42 0 60 40.5t23 139.5l23 472h404v-652h75v-193h-68v129h-499v-129zM166 65v-2h326v588h-259l-23 -449q-4 -94 -44 -137z" />
    <glyph glyph-name="uni0415" unicode="&#x415;" horiz-adv-x="603" 
d="M572 0h-496v715h485v-64h-412v-246h368v-64h-368v-277h423v-64z" />
    <glyph glyph-name="uni0416" unicode="&#x416;" horiz-adv-x="904" 
d="M891 715l-257 -362l274 -353h-88l-245 317h-87v-317h-72v317h-87l-245 -317h-88l275 353l-257 362h78l237 -335h87v335h72v-335h89l238 335h76z" />
    <glyph glyph-name="uni0417" unicode="&#x417;" horiz-adv-x="577" 
d="M293 -14q-127 0 -195.5 53.5t-68.5 154.5h76q0 -70 48 -107t133 -37q78 0 126 40t48 107q0 59 -41 95t-109 36h-88v64h84q62 0 98 37.5t36 99.5q0 59 -45 95.5t-116 36.5q-77 0 -121.5 -37.5t-44.5 -99.5h-76q0 91 65 146t177 55q106 0 171.5 -53.5t65.5 -142.5
q0 -57 -29 -101t-82 -66v-2q61 -18 96 -60.5t35 -102.5q0 -92 -67 -151.5t-176 -59.5z" />
    <glyph glyph-name="uni0418" unicode="&#x418;" horiz-adv-x="723" 
d="M149 0h-73v715h73v-604h2l423 604h72v-715h-72v603h-2z" />
    <glyph glyph-name="uni0419" unicode="&#x419;" horiz-adv-x="723" 
d="M364 793q-55 0 -88.5 33t-35.5 94h50q8 -78 74 -78q67 0 73 78h51q-3 -60 -36 -93.5t-88 -33.5zM149 0h-73v715h73v-604h2l423 604h72v-715h-72v603h-2z" />
    <glyph glyph-name="uni041A" unicode="&#x41a;" horiz-adv-x="614" 
d="M607 715l-295 -363l313 -352h-92l-281 317h-103v-317h-73v715h73v-335h105l273 335h80z" />
    <glyph glyph-name="uni041B" unicode="&#x41b;" horiz-adv-x="643" 
d="M64 -15q-40 0 -63 12v63q28 -10 57 -10q41 0 61.5 24.5t22.5 86.5l20 554h405v-715h-73v651h-260l-20 -487q-4 -97 -41 -138t-109 -41z" />
    <glyph glyph-name="uni041C" unicode="&#x41c;" horiz-adv-x="839" 
d="M149 0h-73v715h101l241 -617h2l242 617h101v-715h-73v612h-2l-236 -612h-66l-235 612h-2v-612z" />
    <glyph glyph-name="uni041D" unicode="&#x41d;" horiz-adv-x="703" 
d="M149 0h-73v715h73v-309h405v309h72v-715h-72v342h-405v-342z" />
    <glyph glyph-name="uni041E" unicode="&#x41e;" horiz-adv-x="767" 
d="M384 -13q-154 0 -249 104t-95 267t95 266.5t249 103.5q153 0 248 -103.5t95 -266.5t-95 -267t-248 -104zM384 51q127 0 197 87t70 220t-70 219.5t-197 86.5q-128 0 -198 -86.5t-70 -219.5t70 -220t198 -87z" />
    <glyph glyph-name="uni041F" unicode="&#x41f;" horiz-adv-x="683" 
d="M149 0h-73v715h530v-715h-72v651h-385v-651z" />
    <glyph glyph-name="uni0420" unicode="&#x420;" horiz-adv-x="605" 
d="M149 0h-73v715h275q106 0 168.5 -49.5t62.5 -156.5t-62.5 -157t-168.5 -50h-202v-302zM149 366h209q148 0 148 143q0 142 -148 142h-209v-285z" />
    <glyph glyph-name="uni0421" unicode="&#x421;" horiz-adv-x="697" 
d="M368 -13q-145 0 -236.5 103.5t-91.5 266.5t91.5 267t237.5 104q122 0 201 -68.5t93 -172.5h-76q-6 32 -20.5 61.5t-39 56.5t-66 43t-93.5 16q-83 0 -141.5 -44t-84.5 -112t-26 -151q0 -129 65 -217.5t187 -88.5q105 0 160 59.5t62 143.5h76q-13 -119 -93 -193t-205 -74z
" />
    <glyph glyph-name="uni0422" unicode="&#x422;" horiz-adv-x="588" 
d="M330 0h-72v651h-243v64h559v-64h-244v-651z" />
    <glyph glyph-name="uni0423" unicode="&#x423;" horiz-adv-x="578" 
d="M225 0h-73l96 204l-233 511h78l193 -430h2l203 430h75z" />
    <glyph glyph-name="uni0424" unicode="&#x424;" horiz-adv-x="712" 
d="M677 353q0 -113 -77 -182.5t-210 -77.5v-93h-72v93q-132 10 -207.5 79t-75.5 181t76 182t207 80v100h72v-100q133 -8 210 -78t77 -184zM390 558v-408q100 8 157.5 62.5t57.5 140.5q0 87 -57.5 142t-157.5 63zM107 353q0 -85 56.5 -139t154.5 -63v406q-98 -9 -154.5 -63.5
t-56.5 -140.5z" />
    <glyph glyph-name="uni0425" unicode="&#x425;" horiz-adv-x="573" 
d="M86 0h-87l247 367l-230 348h82l190 -296h1l190 296h81l-231 -349l243 -366h-86l-202 313h-1z" />
    <glyph glyph-name="uni0426" unicode="&#x426;" horiz-adv-x="698" 
d="M666 -130h-69v129h-521v715h73v-650h375v650h72v-650h70v-194z" />
    <glyph glyph-name="uni0427" unicode="&#x427;" horiz-adv-x="584" 
d="M508 0h-73v320h-2q-28 -37 -76 -62t-104 -25q-94 0 -150.5 57.5t-56.5 161.5v263h72v-263q0 -74 39.5 -114.5t109.5 -40.5q59 0 95.5 23t72.5 70v325h73v-715z" />
    <glyph glyph-name="uni0428" unicode="&#x428;" horiz-adv-x="847" 
d="M770 -1h-694v715h73v-650h238v650h73v-650h238v650h72v-715z" />
    <glyph glyph-name="uni0429" unicode="&#x429;" horiz-adv-x="871" 
d="M839 -130h-68v129h-695v715h73v-650h238v650h73v-650h238v650h72v-650h69v-194z" />
    <glyph glyph-name="uni042A" unicode="&#x42a;" horiz-adv-x="654" 
d="M394 0h-261v651h-124v64h197v-277h197q106 0 166.5 -56.5t60.5 -159.5t-63 -162.5t-173 -59.5zM206 374v-310h191q73 0 115 42.5t42 115.5q0 70 -39.5 111t-107.5 41h-201z" />
    <glyph glyph-name="uni042B" unicode="&#x42b;" horiz-adv-x="781" 
d="M303 0h-227v715h73v-277h163q107 0 167 -56.5t60 -159.5t-63 -162.5t-173 -59.5zM705 0h-73v715h73v-715zM149 374v-310h157q73 0 115 42.5t42 115.5q0 70 -39.5 111t-107.5 41h-167z" />
    <glyph glyph-name="uni042C" unicode="&#x42c;" horiz-adv-x="597" 
d="M337 0h-261v715h73v-277h197q107 0 167 -56.5t60 -159.5t-63 -162.5t-173 -59.5zM149 374v-310h191q73 0 115 42.5t42 115.5q0 70 -39.5 111t-107.5 41h-201z" />
    <glyph glyph-name="uni042D" unicode="&#x42d;" horiz-adv-x="684" 
d="M318 728q147 0 236 -99t89 -269q0 -175 -87 -274t-233 -99q-126 0 -205.5 67t-87.5 173h76q7 -77 66 -126.5t151 -49.5q104 0 169.5 73t73.5 201h-288v64h288q-7 127 -75 201t-174 74q-87 0 -140.5 -41t-67.5 -109h-76q14 96 91 155t194 59z" />
    <glyph glyph-name="uni042E" unicode="&#x42e;" horiz-adv-x="926" 
d="M583 728q139 0 220 -100t81 -270t-81 -270.5t-220 -100.5q-132 0 -212 91.5t-88 249.5h-134v-328h-73v715h73v-323h134q8 156 88 246t212 90zM583 51q104 0 164.5 82.5t60.5 224.5t-60.5 224t-164.5 82t-164.5 -82t-60.5 -224t60.5 -224.5t164.5 -82.5z" />
    <glyph glyph-name="uni042F" unicode="&#x42f;" horiz-adv-x="623" 
d="M113 0h-79v6q10 8 16 59.5t12 107t37.5 106t87.5 61.5v2q-61 16 -97 60t-36 108q0 99 64 152t179 53h250v-715h-73v306h-201q-51 0 -83 -26.5t-44 -67.5t-16.5 -82.5t-7 -79.5t-9.5 -50zM305 370h169v281h-175q-171 0 -171 -138q0 -68 46.5 -105.5t130.5 -37.5z" />
    <glyph glyph-name="uni0430" unicode="&#x430;" horiz-adv-x="514" 
d="M200 -13q-76 0 -121.5 39t-45.5 103q0 78 51 113.5t159 54.5q87 16 108 28q30 17 30 54q0 87 -116 87q-73 0 -104 -26t-35 -84h-69q4 74 55 120.5t155 46.5q78 0 127.5 -38.5t49.5 -123.5v-255q0 -32 6 -46t23 -14q8 0 14 1v-47q-22 -4 -34 -4q-34 0 -51.5 17.5
t-20.5 63.5h-2q-54 -90 -179 -90zM208 44q79 0 126 39.5t47 107.5v95q-18 -25 -130 -43q-79 -14 -114.5 -37.5t-35.5 -70.5q0 -91 107 -91z" />
    <glyph glyph-name="uni0431" unicode="&#x431;" horiz-adv-x="537" 
d="M277 -14q-110 0 -172 78t-62 228q0 317 190 353l100 20q86 17 86 51h71q0 -81 -112 -104l-135 -28q-112 -23 -138 -176h2q23 49 72 82t117 33q98 0 153 -71t55 -192t-59.5 -197.5t-167.5 -76.5zM277 43q76 0 117.5 60.5t41.5 156.5q0 93 -41 149.5t-116 56.5t-117.5 -59
t-42.5 -146q0 -98 40.5 -158t117.5 -60z" />
    <glyph glyph-name="uni0432" unicode="&#x432;" horiz-adv-x="477" 
d="M282 0h-222v510h207q75 0 116 -35.5t41 -96.5q0 -39 -25.5 -70t-63.5 -42v-2q49 -8 80 -40.5t31 -80.5q0 -67 -44 -105t-120 -38zM125 453v-167h144q37 0 62 25.5t25 61.5q0 38 -24.5 59t-68.5 21h-138zM125 233v-176h151q49 0 75.5 23t26.5 64q0 42 -27.5 65.5
t-71.5 23.5h-154z" />
    <glyph glyph-name="uni0433" unicode="&#x433;" horiz-adv-x="387" 
d="M125 0h-65v510h315v-57h-250v-453z" />
    <glyph glyph-name="uni0434" unicode="&#x434;" horiz-adv-x="530" 
d="M444 510v-453h62v-187h-56v130h-386v-130h-57v187h34q23 0 38 25t18 63l23 365h324zM131 59v-2h249v396h-200l-19 -304q-3 -61 -30 -90z" />
    <glyph glyph-name="uni0435" unicode="&#x435;" horiz-adv-x="537" 
d="M506 278q0 -28 -1 -36h-404q1 -84 46 -142t130 -58q70 0 108 36t48 78h66q-20 -76 -76 -123t-147 -47q-114 0 -178.5 74.5t-64.5 194.5q0 122 66.5 195t176.5 73q108 0 169 -68t61 -177zM101 299h336q0 71 -44 119.5t-120 48.5q-73 0 -120.5 -48t-51.5 -120z" />
    <glyph glyph-name="uni0436" unicode="&#x436;" horiz-adv-x="641" 
d="M83 0h-78l173 254l-174 256h73l155 -230h56v230h65v-230h56l155 230h72l-173 -256l173 -254h-80l-150 223h-53v-223h-65v223h-55z" />
    <glyph glyph-name="uni0437" unicode="&#x437;" horiz-adv-x="447" 
d="M215 -13q-87 0 -138.5 44t-51.5 117h65q0 -47 36 -76t98 -29q58 0 90 26.5t32 73.5q0 40 -28.5 63t-74.5 23h-71v57h68q45 0 69.5 24t24.5 66q0 43 -30.5 66.5t-85.5 23.5q-57 0 -89.5 -27.5t-32.5 -71.5h-66q0 70 52 113t136 43q82 0 132 -38.5t50 -105.5
q0 -41 -22.5 -72.5t-60.5 -46.5v-1q43 -11 70.5 -43t27.5 -73q0 -73 -53.5 -114.5t-146.5 -41.5z" />
    <glyph glyph-name="uni0438" unicode="&#x438;" horiz-adv-x="556" 
d="M125 0h-65v510h65v-416l306 416h65v-510h-65v416z" />
    <glyph glyph-name="uni0439" unicode="&#x439;" horiz-adv-x="556" 
d="M282 588q-55 0 -88.5 33t-35.5 94h50q8 -78 74 -78q67 0 73 78h51q-3 -60 -36 -93.5t-88 -33.5zM125 0h-65v510h65v-416l306 416h65v-510h-65v416z" />
    <glyph glyph-name="uni043A" unicode="&#x43a;" horiz-adv-x="455" 
d="M455 510l-196 -257l202 -253h-83l-177 223h-76v-223h-65v510h65v-230h79l175 230h76z" />
    <glyph glyph-name="uni043B" unicode="&#x43b;" horiz-adv-x="497" 
d="M57 -14q-30 0 -52 8v56q20 -7 42 -7t32 15.5t12 52.5l20 399h326v-510h-65v453h-199l-18 -350q-6 -117 -98 -117z" />
    <glyph glyph-name="uni043C" unicode="&#x43c;" horiz-adv-x="657" 
d="M125 0h-65v510h85l184 -417h2l184 417h82v-510h-65v399h-2l-175 -398h-55l-173 398h-2v-399z" />
    <glyph glyph-name="uni043D" unicode="&#x43d;" horiz-adv-x="539" 
d="M414 288v222h65v-510h-65v231h-289v-231h-65v510h65v-222h289z" />
    <glyph glyph-name="uni043E" unicode="&#x43e;" horiz-adv-x="554" 
d="M277 -14q-113 0 -179 74t-66 194q0 121 66 195t179 74t179 -74t66 -195q0 -120 -66 -194t-179 -74zM277 43q86 0 131.5 59.5t45.5 151.5q0 93 -45.5 152.5t-131.5 59.5t-131.5 -59.5t-45.5 -152.5q0 -92 45.5 -151.5t131.5 -59.5z" />
    <glyph glyph-name="uni043F" unicode="&#x43f;" horiz-adv-x="529" 
d="M125 0h-65v510h409v-510h-65v453h-279v-453z" />
    <glyph glyph-name="uni0440" unicode="&#x440;" horiz-adv-x="557" 
d="M299 523q97 0 161 -72.5t64 -195.5q0 -122 -64 -194.5t-161 -72.5q-118 0 -172 98h-2v-263h-65v687h65v-82h2q58 95 172 95zM292 45q77 0 120.5 60t43.5 150t-43.5 150.5t-120.5 60.5q-74 0 -120.5 -57.5t-46.5 -153.5q0 -95 46.5 -152.5t120.5 -57.5z" />
    <glyph glyph-name="uni0441" unicode="&#x441;" horiz-adv-x="522" 
d="M276 -13q-109 0 -176.5 74t-67.5 194q0 119 67.5 193t176.5 74q91 0 151 -54t68 -137h-68q-4 51 -41.5 92.5t-109.5 41.5q-87 0 -131.5 -61.5t-44.5 -148.5q0 -88 44.5 -150t131.5 -62q73 0 110 42t41 97h68q-5 -84 -66 -139.5t-153 -55.5z" />
    <glyph glyph-name="uni0442" unicode="&#x442;" horiz-adv-x="436" 
d="M251 0h-65v453h-174v57h412v-57h-173v-453z" />
    <glyph glyph-name="uni0443" unicode="&#x443;" horiz-adv-x="481" 
d="M105 -179q-21 0 -49 4v56q23 -3 39 -3q78 0 115 125l-206 507h72l166 -425h2l158 425h70l-204 -525q-36 -93 -73 -128.5t-90 -35.5z" />
    <glyph glyph-name="uni0444" unicode="&#x444;" horiz-adv-x="628" 
d="M596 255q0 -114 -68.5 -186t-182.5 -82v-164h-65v164q-113 10 -180.5 81.5t-67.5 186.5t67 186t181 81v193h65v-193q114 -10 182.5 -81.5t68.5 -185.5zM345 464v-419q83 9 132.5 65t49.5 145q0 88 -49.5 144t-132.5 65zM100 255q0 -88 49 -144t131 -66v419
q-82 -10 -131 -66t-49 -143z" />
    <glyph glyph-name="uni0445" unicode="&#x445;" horiz-adv-x="467" 
d="M72 0h-78l200 261l-184 249h79l144 -203h2l143 203h78l-183 -249l201 -261h-79l-161 217h-2z" />
    <glyph glyph-name="uni0446" unicode="&#x446;" horiz-adv-x="543" 
d="M517 -130h-58v130h-399v510h65v-453h269v453h65v-453h58v-187z" />
    <glyph glyph-name="uni0447" unicode="&#x447;" horiz-adv-x="482" 
d="M422 0h-65v235h-2q-58 -75 -149 -75q-75 0 -123.5 43.5t-48.5 139.5v167h65v-153q0 -74 31.5 -107t91.5 -33q84 0 135 81v212h65v-510z" />
    <glyph glyph-name="uni0448" unicode="&#x448;" horiz-adv-x="699" 
d="M639 0h-579v510h65v-453h192v453h65v-453h192v453h65v-510z" />
    <glyph glyph-name="uni0449" unicode="&#x449;" horiz-adv-x="723" 
d="M697 -130h-58v130h-579v510h65v-453h192v453h65v-453h192v453h65v-453h58v-187z" />
    <glyph glyph-name="uni044A" unicode="&#x44a;" horiz-adv-x="486" 
d="M301 0h-195v452h-97v58h162v-199h131q77 0 121 -42t44 -114q0 -71 -45 -113t-121 -42zM171 254v-197h131q45 0 70.5 26t25.5 72q0 47 -25 73t-72 26h-130z" />
    <glyph glyph-name="uni044B" unicode="&#x44b;" horiz-adv-x="583" 
d="M228 0h-168v510h65v-199h104q77 0 120.5 -42t43.5 -114q0 -71 -44.5 -113t-120.5 -42zM523 0h-65v510h65v-510zM125 254v-197h104q44 0 70 26t26 72q0 47 -25 73t-72 26h-103z" />
    <glyph glyph-name="uni044C" unicode="&#x44c;" horiz-adv-x="440" 
d="M255 0h-195v510h65v-199h131q77 0 120.5 -42t43.5 -114q0 -71 -44.5 -113t-120.5 -42zM125 254v-197h131q44 0 70 26t26 72q0 47 -25 73t-72 26h-130z" />
    <glyph glyph-name="uni044D" unicode="&#x44d;" horiz-adv-x="505" 
d="M239 522q110 0 171.5 -73.5t61.5 -196.5q0 -117 -61 -191t-165 -74q-94 0 -153.5 46.5t-66.5 122.5h68q8 -50 48 -81.5t104 -31.5q70 0 111 48t46 134h-201v57h201q-6 89 -48.5 136t-115.5 47q-60 0 -99 -30.5t-47 -78.5h-68q10 74 68.5 120t145.5 46z" />
    <glyph glyph-name="uni044E" unicode="&#x44e;" horiz-adv-x="684" 
d="M439 524q98 0 155 -72t57 -197q0 -124 -57 -196.5t-155 -72.5q-91 0 -147.5 64.5t-63.5 176.5h-103v-227h-65v510h65v-227h103q7 113 63 177t148 64zM439 43q66 0 105 57.5t39 154.5q0 98 -39 155t-105 57t-105 -57t-39 -155q0 -97 39 -154.5t105 -57.5z" />
    <glyph glyph-name="uni044F" unicode="&#x44f;" horiz-adv-x="469" 
d="M98 0h-72v4q6 5 10 40.5t9 74t28 73.5t62 43v1q-42 10 -68 43t-26 80q0 70 47.5 110.5t136.5 40.5h184v-510h-65v206h-133q-44 0 -69 -28.5t-29.5 -63t-7 -70.5t-7.5 -44zM214 263h130v190h-123q-58 0 -85 -25t-27 -65q0 -43 26 -71.5t79 -28.5z" />
    <glyph glyph-name="uni0450" unicode="&#x450;" horiz-adv-x="537" 
d="M240 727l55 -132h-54l-80 132h79zM506 278q0 -28 -1 -36h-404q1 -84 46 -142t130 -58q70 0 108 36t48 78h66q-20 -76 -76 -123t-147 -47q-114 0 -178.5 74.5t-64.5 194.5q0 122 66.5 195t176.5 73q108 0 169 -68t61 -177zM101 299h336q0 71 -44 119.5t-120 48.5
q-73 0 -120.5 -48t-51.5 -120z" />
    <glyph glyph-name="uni0451" unicode="&#x451;" horiz-adv-x="537" 
d="M155 698h84v-84h-84v84zM304 698h84v-84h-84v84zM506 278q0 -28 -1 -36h-404q1 -84 46 -142t130 -58q70 0 108 36t48 78h66q-20 -76 -76 -123t-147 -47q-114 0 -178.5 74.5t-64.5 194.5q0 122 66.5 195t176.5 73q108 0 169 -68t61 -177zM101 299h336q0 71 -44 119.5
t-120 48.5q-73 0 -120.5 -48t-51.5 -120z" />
    <glyph glyph-name="uni0452" unicode="&#x452;" horiz-adv-x="525" 
d="M362 -180q-27 0 -63 6v55q32 -4 54 -4q26 0 38.5 17.5t12.5 61.5v388q0 54 -28 87.5t-90 33.5q-71 0 -116 -42.5t-45 -100.5v-322h-65v593h-63v50h63v72h65v-72h158v-50h-158v-156h2q59 85 175 85q73 0 120 -41.5t47 -122.5v-408q0 -130 -107 -130z" />
    <glyph glyph-name="uni0453" unicode="&#x453;" horiz-adv-x="387" 
d="M238 593h-54l62 132h78zM125 0h-65v510h315v-57h-250v-453z" />
    <glyph glyph-name="uni0454" unicode="&#x454;" horiz-adv-x="504" 
d="M266 43q62 0 99.5 31t44.5 82h69q-8 -77 -65.5 -123t-147.5 -46q-108 0 -171 75t-63 191q0 120 65 194.5t174 74.5q88 0 143 -45.5t65 -120.5h-68q-8 49 -44 79t-96 30q-75 0 -119 -48t-51 -135h201v-57h-201q6 -85 49 -133.5t116 -48.5z" />
    <glyph glyph-name="uni0455" unicode="&#x455;" horiz-adv-x="472" 
d="M248 -13q-104 0 -163 50.5t-61 129.5h68q3 -56 42 -89.5t115 -33.5q68 0 99 26.5t31 68.5q0 14 -4 25.5t-8.5 19.5t-15.5 15.5t-18.5 11.5t-23.5 9t-24 7t-27 6t-26 6q-39 10 -57 15t-49 18t-45 26t-26 35.5t-12 51.5q0 63 48 100t133 37q94 0 145.5 -43.5t58.5 -111.5
h-68q-20 98 -135 98q-55 0 -84.5 -20t-29.5 -56q0 -10 2 -19t7.5 -16.5t10.5 -12.5t15.5 -10.5t17.5 -8.5t21.5 -7t22 -6t24.5 -6t25 -6q45 -11 72 -20t58 -26.5t46 -44.5t15 -65q0 -70 -53 -112t-147 -42z" />
    <glyph glyph-name="uni0456" unicode="&#x456;" horiz-adv-x="185" 
d="M134 612h-84v84h84v-84zM125 0h-65v510h65v-510z" />
    <glyph glyph-name="uni0457" unicode="&#x457;" horiz-adv-x="185" 
d="M81 612h-84v84h84v-84zM189 612h-84v84h84v-84zM125 0h-65v510h65v-510z" />
    <glyph glyph-name="uni0458" unicode="&#x458;" horiz-adv-x="185" 
d="M134 612h-84v84h84v-84zM25 -180q-22 0 -49 4v55q30 -2 38 -2q25 0 35.5 17.5t10.5 61.5v554h65v-559q0 -131 -100 -131z" />
    <glyph glyph-name="uni0459" unicode="&#x459;" horiz-adv-x="683" 
d="M57 -14q-30 0 -52 8v56q20 -7 42 -7t32 15.5t12 52.5l20 399h284v-199h104q77 0 120.5 -42t43.5 -114q0 -71 -44.5 -113t-120.5 -42h-168v453h-157l-18 -350q-6 -117 -98 -117zM395 254v-197h104q44 0 70 26t26 72q0 47 -25 73t-72 26h-103z" />
    <glyph glyph-name="uni045A" unicode="&#x45a;" horiz-adv-x="696" 
d="M408 301h104q77 0 120.5 -40t43.5 -111q0 -70 -44.5 -110t-120.5 -40h-168v244h-218v-244h-65v510h65v-209h218v209h65v-209zM408 57h104q45 0 70.5 24.5t25.5 68.5q0 94 -97 94h-103v-187z" />
    <glyph glyph-name="uni045B" unicode="&#x45b;" horiz-adv-x="525" 
d="M302 522q73 0 120 -41.5t47 -122.5v-358h-65v344q0 54 -28 87.5t-90 33.5q-71 0 -116 -42.5t-45 -100.5v-322h-65v593h-63v50h63v72h65v-72h158v-50h-158v-156h2q59 85 175 85z" />
    <glyph glyph-name="uni045C" unicode="&#x45c;" horiz-adv-x="455" 
d="M272 725h78l-86 -132h-54zM455 510l-196 -257l202 -253h-83l-177 223h-76v-223h-65v510h65v-230h79l175 230h76z" />
    <glyph glyph-name="uni045D" unicode="&#x45d;" horiz-adv-x="556" 
d="M305 593h-54l-80 132h79zM125 0h-65v510h65v-416l306 416h65v-510h-65v416z" />
    <glyph glyph-name="uni045E" unicode="&#x45e;" horiz-adv-x="481" 
d="M238 588q-55 0 -88.5 33t-35.5 94h50q8 -78 74 -78q67 0 73 78h51q-3 -60 -36 -93.5t-88 -33.5zM105 -179q-21 0 -49 4v56q23 -3 39 -3q78 0 115 125l-206 507h72l166 -425h2l158 425h70l-204 -525q-36 -93 -73 -128.5t-90 -35.5z" />
    <glyph glyph-name="uni045F" unicode="&#x45f;" horiz-adv-x="519" 
d="M290 -130h-58v130h-172v510h65v-453h269v453h65v-510h-169v-130z" />
    <glyph glyph-name="uni0490" unicode="&#x490;" horiz-adv-x="482" 
d="M149 0h-73v715h323v99h68v-163h-318v-651z" />
    <glyph glyph-name="uni0491" unicode="&#x491;" horiz-adv-x="387" 
d="M125 0h-65v510h258v110h57v-167h-250v-453z" />
    <glyph glyph-name="uni0492" unicode="&#x492;" horiz-adv-x="529" 
d="M512 715v-64h-318v-273h215v-57h-215v-321h-73v321h-118v57h118v337h391z" />
    <glyph glyph-name="uni0493" unicode="&#x493;" horiz-adv-x="414" 
d="M402 510v-57h-250v-170h170v-49h-170v-234h-65v234h-84v49h84v227h315z" />
    <glyph glyph-name="uni0496" unicode="&#x496;" horiz-adv-x="904" 
d="M634 353l237 -306h49v-177h-69v130h-31l-245 317h-87v-317h-72v317h-87l-245 -317h-88l275 353l-257 362h78l237 -335h87v335h72v-335h89l238 335h76z" />
    <glyph glyph-name="uni0497" unicode="&#x497;" horiz-adv-x="641" 
d="M463 254l138 -203h46v-181h-57v130h-34l-150 223h-53v-223h-65v223h-55l-150 -223h-78l173 254l-174 256h73l155 -230h56v230h65v-230h56l155 230h72z" />
    <glyph glyph-name="uni049A" unicode="&#x49a;" horiz-adv-x="614" 
d="M312 352l271 -305h53v-177h-69v130h-34l-281 317h-103v-317h-73v715h73v-335h105l273 335h80z" />
    <glyph glyph-name="uni049B" unicode="&#x49b;" horiz-adv-x="455" 
d="M259 253l161 -202h44v-181h-57v130h-29l-177 223h-76v-223h-65v510h65v-230h79l175 230h76z" />
    <glyph glyph-name="uni04A2" unicode="&#x4a2;" horiz-adv-x="703" 
d="M626 715v-668h33v-177h-69v130h-36v342h-405v-342h-73v715h73v-309h405v309h72z" />
    <glyph glyph-name="uni04A3" unicode="&#x4a3;" horiz-adv-x="539" 
d="M479 510v-459h29v-181h-57v130h-37v231h-289v-231h-65v510h65v-222h289v222h65z" />
    <glyph glyph-name="uni04AE" unicode="&#x4ae;" horiz-adv-x="618" 
d="M345 0h-73v293l-261 422h79l218 -365h2l219 365h78l-262 -422v-293z" />
    <glyph glyph-name="uni04AF" unicode="&#x4af;" horiz-adv-x="478" 
d="M275 -177h-65v214l-207 473h73l167 -392h2l157 392h70l-197 -473v-214z" />
    <glyph glyph-name="uni04B0" unicode="&#x4b0;" horiz-adv-x="614" 
d="M606 715l-263 -422v-38h165v-57h-165v-198h-72v198h-169v57h169v38l-261 422h79l217 -365h3l218 365h79z" />
    <glyph glyph-name="uni04B1" unicode="&#x4b1;" horiz-adv-x="478" 
d="M472 510l-197 -473v-56h133v-49h-133v-109h-65v109h-133v49h133v56l-207 473h73l167 -392h2l157 392h70z" />
    <glyph glyph-name="uni04B2" unicode="&#x4b2;" horiz-adv-x="573" 
d="M329 366l212 -319h46v-177h-69v130h-32l-202 313h-1l-197 -313h-87l247 367l-230 348h82l190 -296h1l190 296h81z" />
    <glyph glyph-name="uni04B3" unicode="&#x4b3;" horiz-adv-x="467" 
d="M273 261l162 -210h45v-181h-57v130h-28l-161 217h-2l-160 -217h-78l200 261l-184 249h79l144 -203h2l143 203h78z" />
    <glyph glyph-name="uni04B6" unicode="&#x4b6;" horiz-adv-x="584" 
d="M508 715v-668h39v-177h-69v130h-43v320h-2q-28 -37 -76 -62t-104 -25q-94 0 -150.5 57.5t-56.5 161.5v263h72v-263q0 -74 39.5 -114.5t109.5 -40.5q59 0 95.5 23t72.5 70v325h73z" />
    <glyph glyph-name="uni04B7" unicode="&#x4b7;" horiz-adv-x="482" 
d="M422 510v-459h21v-181h-57v130h-29v235h-2q-58 -75 -149 -75q-75 0 -123.5 43.5t-48.5 139.5v167h65v-153q0 -74 31.5 -107t91.5 -33q84 0 135 81v212h65z" />
    <glyph glyph-name="uni04BA" unicode="&#x4ba;" horiz-adv-x="595" 
d="M149 0h-73v716h73v-311h2q65 87 187 87q100 0 155 -53.5t55 -154.5v-284h-72v273q0 155 -152 155q-82 0 -128.5 -46.5t-46.5 -129.5v-252z" />
    <glyph glyph-name="uni04BB" unicode="&#x4bb;" horiz-adv-x="525" 
d="M302 522q73 0 120 -41.5t47 -122.5v-358h-65v344q0 54 -28 87.5t-90 33.5q-71 0 -116 -42.5t-45 -100.5v-322h-65v715h65v-278h2q59 85 175 85z" />
    <glyph glyph-name="uni04D8" unicode="&#x4d8;" horiz-adv-x="720" 
d="M364 728q140 0 228 -104.5t88 -264.5q0 -166 -89.5 -269.5t-232.5 -103.5q-142 0 -230.5 95.5t-88.5 244.5q0 34 2 50h563q-4 130 -72.5 209t-175.5 79q-88 0 -150 -45t-74 -113h-76q17 99 103.5 160.5t204.5 61.5zM362 50q102 0 165.5 71.5t74.5 190.5h-486
q0 -117 66 -189.5t180 -72.5z" />
    <glyph glyph-name="uni04D9" unicode="&#x4d9;" horiz-adv-x="522" 
d="M261 522q107 0 168 -73t61 -194q0 -122 -61.5 -195t-167.5 -73q-104 0 -166.5 70t-62.5 181q0 15 3 41h385q-5 89 -48 137.5t-111 48.5q-62 0 -102.5 -27t-51.5 -74h-68q14 72 74.5 115t147.5 43zM261 43q70 0 111 45.5t48 133.5h-320q0 -77 42 -128t119 -51z" />
    <glyph glyph-name="uni04E2" unicode="&#x4e2;" horiz-adv-x="723" 
d="M489 822h-249v57h249v-57zM149 0h-73v715h73v-604h2l423 604h72v-715h-72v603h-2z" />
    <glyph glyph-name="uni04E3" unicode="&#x4e3;" horiz-adv-x="556" 
d="M406 617h-249v57h249v-57zM125 0h-65v510h65v-416l306 416h65v-510h-65v416z" />
    <glyph glyph-name="uni04E8" unicode="&#x4e8;" horiz-adv-x="767" 
d="M384 728q153 0 248 -103.5t95 -266.5t-95 -267t-248 -104q-154 0 -249 104t-95 267t95 266.5t249 103.5zM384 664q-120 0 -189 -76.5t-78 -197.5h533q-9 121 -78 197.5t-188 76.5zM384 51q119 0 188 77t78 198h-533q9 -121 78 -198t189 -77z" />
    <glyph glyph-name="uni04E9" unicode="&#x4e9;" horiz-adv-x="554" 
d="M277 523q113 0 179 -74t66 -195q0 -120 -66 -194t-179 -74t-179 74t-66 194q0 121 66 195t179 74zM277 466q-79 0 -124 -50.5t-52 -132.5h352q-7 82 -52 132.5t-124 50.5zM277 43q79 0 124 50.5t52 132.5h-352q7 -82 52 -132.5t124 -50.5z" />
    <glyph glyph-name="uni04EE" unicode="&#x4ee;" horiz-adv-x="578" 
d="M420 822h-249v57h249v-57zM225 0h-73l96 204l-233 511h78l193 -430h2l203 430h75z" />
    <glyph glyph-name="uni04EF" unicode="&#x4ef;" horiz-adv-x="481" 
d="M363 617h-249v57h249v-57zM105 -179q-21 0 -49 4v56q23 -3 39 -3q78 0 115 125l-206 507h72l166 -425h2l158 425h70l-204 -525q-36 -93 -73 -128.5t-90 -35.5z" />
    <glyph glyph-name="uni139A" unicode="&#x139a;" horiz-adv-x="659" 
 />
    <glyph glyph-name="Wgrave" unicode="&#x1e80;" horiz-adv-x="901" 
d="M474 798h-54l-80 132h79zM277 0h-80l-180 715h77l146 -611h2l168 611h81l168 -611h3l146 611h76l-179 -715h-81l-172 629h-3z" />
    <glyph glyph-name="wgrave" unicode="&#x1e81;" horiz-adv-x="737" 
d="M392 593h-54l-80 132h79zM247 0h-72l-162 510h72l127 -436h2l119 436h73l119 -436h2l128 436h70l-163 -510h-73l-120 431h-2z" />
    <glyph glyph-name="Wacute" unicode="&#x1e82;" horiz-adv-x="901" 
d="M471 798h-54l62 132h78zM277 0h-80l-180 715h77l146 -611h2l168 611h81l168 -611h3l146 611h76l-179 -715h-81l-172 629h-3z" />
    <glyph glyph-name="wacute" unicode="&#x1e83;" horiz-adv-x="737" 
d="M389 593h-54l62 132h78zM247 0h-72l-162 510h72l127 -436h2l119 436h73l119 -436h2l128 436h70l-163 -510h-73l-120 431h-2z" />
    <glyph glyph-name="Wdieresis" unicode="&#x1e84;" horiz-adv-x="901" 
d="M418 817h-84v84h84v-84zM567 817h-84v84h84v-84zM277 0h-80l-180 715h77l146 -611h2l168 611h81l168 -611h3l146 611h76l-179 -715h-81l-172 629h-3z" />
    <glyph glyph-name="wdieresis" unicode="&#x1e85;" horiz-adv-x="737" 
d="M337 612h-84v84h84v-84zM486 612h-84v84h84v-84zM247 0h-72l-162 510h72l127 -436h2l119 436h73l119 -436h2l128 436h70l-163 -510h-73l-120 431h-2z" />
    <glyph glyph-name="Ygrave" unicode="&#x1ef2;" horiz-adv-x="618" 
d="M333 798h-54l-80 132h79zM345 0h-73v293l-261 422h79l218 -365h2l219 365h78l-262 -422v-293z" />
    <glyph glyph-name="ygrave" unicode="&#x1ef3;" horiz-adv-x="481" 
d="M262 593h-54l-80 132h79zM105 -179q-21 0 -49 4v56q23 -3 39 -3q78 0 115 125l-206 507h72l166 -425h2l158 425h70l-204 -525q-36 -93 -73 -128.5t-90 -35.5z" />
    <glyph glyph-name="uni2000" unicode="&#x2000;" horiz-adv-x="500" 
 />
    <glyph glyph-name="uni2001" unicode="&#x2001;" horiz-adv-x="1000" 
 />
    <glyph glyph-name="uni2002" unicode="&#x2002;" horiz-adv-x="500" 
 />
    <glyph glyph-name="uni2003" unicode="&#x2003;" horiz-adv-x="1000" 
 />
    <glyph glyph-name="uni2004" unicode="&#x2004;" horiz-adv-x="333" 
 />
    <glyph glyph-name="uni2005" unicode="&#x2005;" horiz-adv-x="250" 
 />
    <glyph glyph-name="uni2006" unicode="&#x2006;" horiz-adv-x="167" 
 />
    <glyph glyph-name="uni2007" unicode="&#x2007;" horiz-adv-x="670" 
 />
    <glyph glyph-name="uni2008" unicode="&#x2008;" horiz-adv-x="183" 
 />
    <glyph glyph-name="uni2009" unicode="&#x2009;" horiz-adv-x="125" 
 />
    <glyph glyph-name="uni200A" unicode="&#x200a;" horiz-adv-x="42" 
 />
    <glyph glyph-name="uni200B" unicode="&#x200b;" 
 />
    <glyph glyph-name="endash" unicode="&#x2013;" horiz-adv-x="583" 
d="M541 223h-500v64h500v-64z" />
    <glyph glyph-name="emdash" unicode="&#x2014;" horiz-adv-x="1081" 
d="M1041 222h-1000v65h1000v-65z" />
    <glyph glyph-name="quoteleft" unicode="&#x2018;" horiz-adv-x="177" 
d="M129 715v-43q-24 -8 -33 -25t-8 -53h41v-84h-84v84q0 47 18 76.5t66 44.5z" />
    <glyph glyph-name="quoteright" unicode="&#x2019;" horiz-adv-x="170" 
d="M49 510v43q24 9 32.5 25.5t8.5 52.5h-41v84h84v-84q0 -46 -18 -76t-66 -45z" />
    <glyph glyph-name="quotesinglbase" unicode="&#x201a;" horiz-adv-x="182" 
d="M49 -121v43q24 9 33 25.5t8 52.5h-41v84h84v-84q0 -47 -18 -76.5t-66 -44.5z" />
    <glyph glyph-name="quotedblleft" unicode="&#x201c;" horiz-adv-x="311" 
d="M45 510v84q0 47 18 76.5t66 44.5v-43q-24 -8 -33 -25t-8 -53h41v-84h-84zM221 594h42v-84h-84v84q0 47 17.5 76.5t65.5 44.5v-43q-24 -8 -32.5 -25t-8.5 -53z" />
    <glyph glyph-name="quotedblright" unicode="&#x201d;" horiz-adv-x="303" 
d="M49 510v43q24 9 32.5 25.5t8.5 52.5h-41v84h84v-84q0 -46 -18 -76t-66 -45zM182 510v43q24 9 33 25.5t8 52.5h-41v84h84v-84q0 -46 -18 -76t-66 -45z" />
    <glyph glyph-name="quotedblbase" unicode="&#x201e;" horiz-adv-x="317" 
d="M49 -121v43q24 9 33 25.5t8 52.5h-41v84h84v-84q0 -47 -18 -76.5t-66 -44.5zM183 -121v43q24 9 33 25.5t8 52.5h-41v84h84v-84q0 -47 -18 -76.5t-66 -44.5z" />
    <glyph glyph-name="dagger" unicode="&#x2020;" horiz-adv-x="467" 
d="M270 -177h-72v617h-185v64h185v211h72v-211h184v-64h-184v-617z" />
    <glyph glyph-name="daggerdbl" unicode="&#x2021;" horiz-adv-x="506" 
d="M289 -177h-73v297h-183v64h183v256h-184v64h184v211h73v-211h183v-64h-183v-256h185v-64h-185v-297z" />
    <glyph glyph-name="bullet" unicode="&#x2022;" horiz-adv-x="349" 
d="M270 205h-190v190h190v-190z" />
    <glyph glyph-name="ellipsis" unicode="&#x2026;" horiz-adv-x="551" 
d="M133 0h-84v84h84v-84zM317 0h-84v84h84v-84zM501 0h-84v84h84v-84z" />
    <glyph glyph-name="perthousand" unicode="&#x2030;" horiz-adv-x="1136" 
d="M181 313q-77 0 -117 54.5t-40 138.5q0 85 40 139.5t117 54.5q76 0 116 -55t40 -139t-39.5 -138.5t-116.5 -54.5zM229 0h-67l393 689h66zM181 368q48 0 72 38.5t24 99.5q0 62 -24 100.5t-72 38.5q-49 0 -73 -38.5t-24 -100.5t24 -100t73 -38zM604 -13q-76 0 -116.5 55
t-40.5 139t40 139t117 55q76 0 116.5 -55t40.5 -139t-40 -139t-117 -55zM957 -13q-76 0 -116.5 55t-40.5 139t40 139t117 55q76 0 116.5 -55t40.5 -139t-40 -139t-117 -55zM604 42q49 0 72.5 38.5t23.5 100.5t-24 100t-72 38t-72 -38t-24 -100t23.5 -100.5t72.5 -38.5z
M957 42q49 0 72.5 38.5t23.5 100.5t-24 100t-72 38t-72 -38t-24 -100t23.5 -100.5t72.5 -38.5z" />
    <glyph glyph-name="guilsinglleft" unicode="&#x2039;" horiz-adv-x="293" 
d="M240 136v-76l-196 161v78l196 160v-75l-157 -123v-2z" />
    <glyph glyph-name="guilsinglright" unicode="&#x203a;" horiz-adv-x="293" 
d="M249 220l-196 -160v75l157 124v2l-157 123v75l196 -160v-79z" />
    <glyph glyph-name="fraction" unicode="&#x2044;" horiz-adv-x="188" 
d="M-97 0h-74l453 715h74z" />
    <glyph glyph-name="uni2070" unicode="&#x2070;" horiz-adv-x="386" 
d="M193 361q-81 0 -122.5 60t-41.5 151t41.5 151t122.5 60t122.5 -60t41.5 -151t-41.5 -151t-122.5 -60zM193 413q98 0 98 159q0 160 -98 160t-98 -160q0 -159 98 -159z" />
    <glyph glyph-name="uni2074" unicode="&#x2074;" horiz-adv-x="357" 
d="M277 364h-63v94h-193v60l193 252h63v-259h59v-53h-59v-94zM214 694l-139 -183h139v183z" />
    <glyph glyph-name="uni2075" unicode="&#x2075;" horiz-adv-x="351" 
d="M177 356q-71 0 -111.5 35.5t-42.5 90.5h65q2 -33 24 -53.5t61 -20.5t62.5 24.5t23.5 69.5q0 42 -22 64t-61 22q-53 0 -83 -38h-61l43 220h229v-52h-181l-24 -116v-1q36 36 94 36q59 0 95 -38t36 -98q0 -67 -41 -106t-106 -39z" />
    <glyph glyph-name="uni2076" unicode="&#x2076;" horiz-adv-x="365" 
d="M191 359q-160 0 -160 206q0 105 42 161t118 56q55 0 91.5 -31t42.5 -79h-65q-7 59 -69 59q-96 0 -96 -145v-9h1q31 59 106 59q60 0 97.5 -38t37.5 -98q0 -61 -40 -101t-106 -40zM188 410q40 0 63 24t23 63q0 41 -22.5 64.5t-60.5 23.5q-39 0 -64 -24.5t-25 -65.5
q0 -37 23 -61t63 -24z" />
    <glyph glyph-name="uni2077" unicode="&#x2077;" horiz-adv-x="307" 
d="M139 364h-66q0 96 42.5 197t106.5 156v1h-215v52h285v-47q-74 -59 -113.5 -158.5t-39.5 -200.5z" />
    <glyph glyph-name="uni2078" unicode="&#x2078;" horiz-adv-x="366" 
d="M183 361q-67 0 -111.5 32t-44.5 90q0 72 79 104v1q-60 29 -60 88q0 50 39 79t98 29q60 0 98.5 -29t38.5 -79q0 -57 -59 -88v-1q78 -33 78 -104q0 -58 -44 -90t-112 -32zM183 609q35 0 55.5 16.5t20.5 46.5t-20.5 47t-55.5 17t-56 -17t-21 -47t20.5 -46.5t56.5 -16.5z
M183 411q42 0 67 21t25 56q0 34 -25 54.5t-67 20.5t-67 -20.5t-25 -54.5q0 -35 25.5 -56t66.5 -21z" />
    <glyph glyph-name="uni2079" unicode="&#x2079;" horiz-adv-x="363" 
d="M173 362q-54 0 -90.5 31t-43.5 79h65q8 -60 69 -60q97 0 97 143v12h-1q-32 -60 -107 -60q-60 0 -97 38t-37 98q0 62 39.5 102t106.5 40q82 0 120.5 -55.5t38.5 -150.5q0 -104 -42 -160.5t-118 -56.5zM173 558q40 0 65.5 25t25.5 66q0 37 -23.5 61t-64.5 24
q-40 0 -62.5 -24t-22.5 -64t22.5 -64t59.5 -24z" />
    <glyph glyph-name="uni2080" unicode="&#x2080;" horiz-adv-x="386" 
d="M193 -108q-81 0 -122.5 60t-41.5 151t41.5 151t122.5 60t122.5 -60t41.5 -151t-41.5 -151t-122.5 -60zM193 -56q98 0 98 159q0 160 -98 160t-98 -160q0 -159 98 -159z" />
    <glyph glyph-name="uni2081" unicode="&#x2081;" horiz-adv-x="210" 
d="M97 -100v303q-21 -20 -85 -20v51q93 1 96 72h53v-406h-64z" />
    <glyph glyph-name="uni2082" unicode="&#x2082;" horiz-adv-x="341" 
d="M310 -100h-289q0 52 25.5 89.5t75.5 70.5q10 7 37 23.5t36.5 24t25 22t21 29.5t5.5 33q0 31 -17 50.5t-53 19.5q-42 0 -63 -25.5t-21 -70.5h-62q0 64 38 106.5t110 42.5q60 0 97 -31.5t37 -87.5q0 -28 -8.5 -50t-28.5 -41.5t-34 -29.5t-44 -30l-31.5 -19.5t-26 -19
t-23.5 -25t-12 -27.5v-2h205v-52z" />
    <glyph glyph-name="uni2083" unicode="&#x2083;" horiz-adv-x="361" 
d="M186 -108q-78 0 -120.5 38.5t-42.5 108.5h63q0 -95 96 -95q84 0 84 71q0 37 -23.5 54.5t-59.5 17.5h-35v49h33q72 0 72 62q0 29 -18 46.5t-53 17.5q-84 0 -84 -77h-63q0 58 39.5 94t110.5 36q55 0 94 -30t39 -81q0 -63 -62 -89v-1q76 -24 76 -101q0 -57 -40 -89t-106 -32
z" />
    <glyph glyph-name="uni2084" unicode="&#x2084;" horiz-adv-x="357" 
d="M277 -100h-63v94h-193v60l193 252h63v-259h59v-53h-59v-94zM214 230l-139 -183h139v183z" />
    <glyph glyph-name="uni2085" unicode="&#x2085;" horiz-adv-x="351" 
d="M177 -108q-71 0 -111.5 35.5t-42.5 90.5h65q2 -33 24 -53.5t61 -20.5t62.5 24.5t23.5 69.5q0 42 -22 64t-61 22q-53 0 -83 -38h-61l43 220h229v-52h-181l-24 -116v-1q36 36 94 36q59 0 95 -38t36 -98q0 -67 -41 -106t-106 -39z" />
    <glyph glyph-name="uni2086" unicode="&#x2086;" horiz-adv-x="365" 
d="M191 -108q-160 0 -160 206q0 105 42 161t118 56q55 0 91.5 -31t42.5 -79h-65q-7 59 -69 59q-96 0 -96 -145v-9h1q31 59 106 59q60 0 97.5 -38t37.5 -98q0 -61 -40 -101t-106 -40zM188 -57q40 0 63 24t23 63q0 41 -22.5 64.5t-60.5 23.5q-39 0 -64 -24.5t-25 -65.5
q0 -37 23 -61t63 -24z" />
    <glyph glyph-name="uni2087" unicode="&#x2087;" horiz-adv-x="307" 
d="M139 -100h-66q0 96 42.5 197t106.5 156v1h-215v52h285v-47q-74 -59 -113.5 -158.5t-39.5 -200.5z" />
    <glyph glyph-name="uni2088" unicode="&#x2088;" horiz-adv-x="366" 
d="M183 -108q-67 0 -111.5 32t-44.5 90q0 72 79 104v1q-60 29 -60 88q0 50 39 79t98 29q60 0 98.5 -29t38.5 -79q0 -57 -59 -88v-1q78 -33 78 -104q0 -58 -44 -90t-112 -32zM183 140q35 0 55.5 16.5t20.5 46.5t-20.5 47t-55.5 17t-56 -17t-21 -47t20.5 -46.5t56.5 -16.5z
M183 -58q42 0 67 21t25 56q0 34 -25 54.5t-67 20.5t-67 -20.5t-25 -54.5q0 -35 25.5 -56t66.5 -21z" />
    <glyph glyph-name="uni2089" unicode="&#x2089;" horiz-adv-x="363" 
d="M173 -108q-54 0 -90.5 31t-43.5 79h65q8 -60 69 -60q97 0 97 143v12h-1q-32 -60 -107 -60q-60 0 -97 38t-37 98q0 62 39.5 102t106.5 40q82 0 120.5 -55.5t38.5 -150.5q0 -104 -42 -160.5t-118 -56.5zM173 88q40 0 65.5 25t25.5 66q0 37 -23.5 61t-64.5 24
q-40 0 -62.5 -24t-22.5 -64t22.5 -64t59.5 -24z" />
    <glyph glyph-name="Euro" unicode="&#x20ac;" horiz-adv-x="652" 
d="M372 51q79 0 119.5 55.5t45.5 138.5h72q-12 -120 -72 -189t-165 -69q-104 0 -172 72.5t-85 198.5h-64v50h59q-1 11 -1 35q0 22 1 33h-59v50h63q17 127 85 199.5t173 72.5q103 0 163.5 -65t73.5 -168h-72q-29 169 -165 169q-79 0 -124.5 -56.5t-59.5 -151.5h212v-50h-217
q-1 -11 -1 -33q0 -24 1 -35h217v-50h-212q13 -94 59.5 -150.5t124.5 -56.5z" />
    <glyph glyph-name="trademark" unicode="&#x2122;" horiz-adv-x="655" 
d="M165 436h-53v233h-92v46h237v-46h-92v-233zM347 436h-51v279h77l70 -213h1l72 213h76v-279h-51v216h-2l-70 -216h-50l-70 216h-2v-216z" />
    <glyph glyph-name="uni2126" unicode="&#x2126;" horiz-adv-x="784" 
d="M322 0h-284v64h167q-70 48 -111 127.5t-41 179.5q0 152 94.5 254.5t244.5 102.5t244.5 -102.5t94.5 -254.5q0 -100 -40.5 -179.5t-110.5 -127.5h166v-64h-284l1 52q91 49 141.5 120.5t50.5 186.5q0 137 -71 220t-192 83q-120 0 -191.5 -83t-71.5 -220q0 -115 50.5 -186.5
t141.5 -120.5z" />
    <glyph glyph-name="oneeighth" unicode="&#x215b;" horiz-adv-x="742" 
d="M106 309v303q-22 -20 -85 -20v51q47 1 71 18t25 54h52v-406h-63zM133 0h-74l453 715h74zM562 -8q-67 0 -111.5 32t-44.5 90q0 72 79 104v1q-60 29 -60 88q0 50 39 79t98 29q60 0 98.5 -29t38.5 -79q0 -57 -59 -88v-1q78 -33 78 -104q0 -58 -44 -90t-112 -32zM562 240
q35 0 55.5 16.5t20.5 46.5t-20.5 47t-55.5 17t-56 -17t-21 -47t20.5 -46.5t56.5 -16.5zM562 42q42 0 67 21t25 56q0 34 -25 54.5t-67 20.5t-67 -20.5t-25 -54.5q0 -35 25.5 -56t66.5 -21z" />
    <glyph glyph-name="threeeighths" unicode="&#x215c;" horiz-adv-x="879" 
d="M194 302q-78 0 -120.5 38.5t-42.5 107.5h63q0 -94 96 -94q84 0 84 70q0 72 -83 72h-35v49h33q72 0 72 63q0 29 -18 46.5t-53 17.5q-84 0 -84 -77h-63q0 58 39.5 94t110.5 36q55 0 94 -30t39 -81q0 -63 -62 -90v-1q76 -23 76 -101q0 -57 -40 -88.5t-106 -31.5zM269 0h-74
l453 715h74zM695 -8q-67 0 -111.5 32t-44.5 90q0 72 79 104v1q-60 29 -60 88q0 50 39 79t98 29q60 0 98.5 -29t38.5 -79q0 -57 -59 -88v-1q78 -33 78 -104q0 -58 -44 -90t-112 -32zM695 240q35 0 55.5 16.5t20.5 46.5t-20.5 47t-55.5 17t-56 -17t-21 -47t20.5 -46.5
t56.5 -16.5zM695 42q42 0 67 21t25 56q0 34 -25 54.5t-67 20.5t-67 -20.5t-25 -54.5q0 -35 25.5 -56t66.5 -21z" />
    <glyph glyph-name="fiveeighths" unicode="&#x215d;" horiz-adv-x="855" 
d="M177 301q-71 0 -111 35.5t-42 90.5h64q3 -33 25 -53.5t61 -20.5t62.5 24.5t23.5 69.5q0 42 -22 64t-61 22q-53 0 -83 -38h-62l44 220h229v-52h-182l-24 -116v-1q36 36 95 36t95 -38t36 -98q0 -67 -41.5 -106t-106.5 -39zM248 0h-74l453 715h74zM675 -8q-68 0 -112 32
t-44 90q0 72 79 104v1q-60 29 -60 88q0 50 38.5 79t98.5 29q59 0 97.5 -29t38.5 -79q0 -59 -59 -88v-1q78 -33 78 -104q0 -58 -44 -90t-111 -32zM675 240q35 0 55 16.5t20 46.5t-20 47t-55 17t-56 -17t-21 -47t20.5 -46.5t56.5 -16.5zM675 42q41 0 66 21t25 56
q0 34 -25 54.5t-66 20.5q-42 0 -67 -20.5t-25 -54.5q0 -35 25.5 -56t66.5 -21z" />
    <glyph glyph-name="seveneighths" unicode="&#x215e;" horiz-adv-x="779" 
d="M150 309h-67q0 96 43 197t107 156v1h-215v52h284v-47q-73 -59 -112.5 -158.5t-39.5 -200.5zM151 0h-74l453 715h74zM598 -8q-68 0 -112 32t-44 90q0 72 79 104v1q-60 29 -60 88q0 50 38.5 79t98.5 29q59 0 97.5 -29t38.5 -79q0 -59 -59 -88v-1q78 -33 78 -104
q0 -58 -44 -90t-111 -32zM598 240q35 0 55 16.5t20 46.5t-20 47t-55 17t-56 -17t-21 -47t20.5 -46.5t56.5 -16.5zM598 42q41 0 66 21t25 56q0 34 -25 54.5t-66 20.5q-42 0 -67 -20.5t-25 -54.5q0 -35 25.5 -56t66.5 -21z" />
    <glyph glyph-name="arrowleft" unicode="&#x2190;" horiz-adv-x="782" 
d="M338 90l-44 -40l-250 270l250 270l44 -41l-186 -200h583v-59h-583z" />
    <glyph glyph-name="arrowup" unicode="&#x2191;" horiz-adv-x="579" 
d="M319 0h-59v584l-200 -187l-40 44l270 250l270 -250l-41 -44l-200 187v-584z" />
    <glyph glyph-name="arrowright" unicode="&#x2192;" horiz-adv-x="782" 
d="M738 320l-250 -270l-44 40l186 200h-583v59h583l-186 200l44 41z" />
    <glyph glyph-name="arrowdown" unicode="&#x2193;" horiz-adv-x="580" 
d="M560 210l-270 -250l-270 250l41 44l200 -187v584h58v-584l201 187z" />
    <glyph glyph-name="arrowboth" unicode="&#x2194;" horiz-adv-x="1152" 
d="M337 90l-44 -40l-250 270l250 270l44 -41l-186 -200h850l-187 200l44 41l250 -270l-250 -270l-44 40l187 200h-850z" />
    <glyph glyph-name="arrowupdn" unicode="&#x2195;" horiz-adv-x="592" 
d="M566 73l-270 -250l-270 250l41 44l200 -187v749l-200 -187l-41 44l270 250l270 -250l-41 -44l-200 187v-749l200 187z" />
    <glyph glyph-name="uni2196" unicode="&#x2196;" horiz-adv-x="589" 
d="M562 122l-41 -42l-412 412l1 -270h-59v370h371v-58h-272z" />
    <glyph glyph-name="uni2197" unicode="&#x2197;" horiz-adv-x="589" 
d="M479 492l-412 -412l-41 42l413 412h-272v58h370v-370h-58v270z" />
    <glyph glyph-name="uni2198" unicode="&#x2198;" horiz-adv-x="595" 
d="M538 53h-371v58h272l-413 412l42 41l412 -412l-1 270h59v-369z" />
    <glyph glyph-name="uni2199" unicode="&#x2199;" horiz-adv-x="595" 
d="M428 53h-370v369h58v-270l412 412l41 -41l-413 -412h272v-58z" />
    <glyph glyph-name="partialdiff" unicode="&#x2202;" horiz-adv-x="515" 
d="M225 -13q-92 0 -147 61.5t-55 164.5q0 105 64.5 181t162.5 76q110 0 158 -95q-20 122 -84.5 190.5t-186.5 93.5v57q172 -29 254.5 -137.5t82.5 -268.5q0 -88 -25.5 -159t-83 -117.5t-140.5 -46.5zM233 45q82 0 128 60.5t46 143.5q0 70 -39.5 116.5t-107.5 46.5
q-77 0 -124.5 -58.5t-47.5 -146.5q0 -73 40 -117.5t105 -44.5z" />
    <glyph glyph-name="emptyset" unicode="&#x2205;" horiz-adv-x="840" 
d="M761 654l-64 -64q91 -99 91 -245q0 -158 -105 -258t-262 -100q-144 0 -244 84l-65 -65l-31 31l64 64q-92 97 -92 244q0 158 105.5 258.5t262.5 100.5q143 0 243 -84l66 66zM97 345q0 -124 79 -213l456 456q-87 73 -211 73q-138 0 -231 -89t-93 -227zM421 30
q137 0 229.5 88.5t92.5 226.5q0 125 -78 213l-457 -456q89 -72 213 -72z" />
    <glyph glyph-name="uni2206" unicode="&#x2206;" horiz-adv-x="629" 
d="M270 715h88l252 -652v-63h-591v63zM318 646h-7l-217 -582h439z" />
    <glyph glyph-name="product" unicode="&#x220f;" horiz-adv-x="701" 
d="M149 -100h-73v815h549v-815h-73v751h-403v-751z" />
    <glyph glyph-name="summation" unicode="&#x2211;" horiz-adv-x="586" 
d="M559 -100h-529v67l288 351v1l-288 330v66h520v-64h-434v-2l264 -308v-41l-270 -334v-2h449v-64z" />
    <glyph glyph-name="minus" unicode="&#x2212;" horiz-adv-x="542" 
d="M493 294h-443v64h443v-64z" />
    <glyph glyph-name="uni2219" unicode="&#x2219;" horiz-adv-x="290" 
d="M187 305h-84v84h84v-84z" />
    <glyph glyph-name="radical" unicode="&#x221a;" horiz-adv-x="611" 
d="M313 -100h-65l-127 345h-77v64h123l112 -317h2l237 723h73z" />
    <glyph glyph-name="infinity" unicode="&#x221e;" horiz-adv-x="737" 
d="M546 476q62 0 102.5 -45.5t40.5 -126.5q0 -79 -40.5 -125t-101.5 -46q-31 0 -57.5 10.5t-50.5 34t-35.5 38t-33.5 44.5q-21 -30 -35 -46.5t-37 -38.5t-49.5 -32t-57.5 -10q-62 0 -103 46.5t-41 124.5q0 79 40.5 125.5t103.5 46.5q40 0 77 -20.5t57 -43t45 -57.5
q26 37 45.5 59t55 42t75.5 20zM203 198q27 0 54 18t42 36.5t37 51.5q-21 31 -36.5 51t-42.5 38.5t-54 18.5q-43 0 -66.5 -28.5t-23.5 -78.5t24 -78.5t66 -28.5zM535 198q42 0 65.5 28.5t23.5 78.5t-23.5 78.5t-66.5 28.5q-21 0 -39.5 -8.5t-37 -28.5t-27 -31.5t-27.5 -38.5
q23 -34 37 -51.5t41 -36.5t54 -19z" />
    <glyph glyph-name="integral" unicode="&#x222b;" horiz-adv-x="360" 
d="M86 -174q-40 0 -70 10v64q28 -5 44 -5q47 0 65.5 29t18.5 93v554q0 76 31.5 121.5t98.5 45.5q41 0 69 -10v-64q-27 5 -44 5q-45 0 -64 -31t-19 -91v-554q0 -76 -31.5 -121.5t-98.5 -45.5z" />
    <glyph glyph-name="approxequal" unicode="&#x2248;" horiz-adv-x="577" 
d="M120 329h-59q2 45 27.5 75.5t81.5 30.5q37 0 116.5 -19.5t115.5 -19.5q32 0 45 11t14 38h59q-2 -45 -27.5 -75.5t-82.5 -30.5q-38 0 -118 19t-114 19q-32 0 -44.5 -11t-13.5 -37zM120 177h-59q2 45 27.5 75.5t81.5 30.5q37 0 116.5 -19t115.5 -19q32 0 45 11t14 38h59
q-2 -45 -27.5 -75.5t-82.5 -30.5q-38 0 -118 19t-114 19q-32 0 -44.5 -11t-13.5 -38z" />
    <glyph glyph-name="notequal" unicode="&#x2260;" horiz-adv-x="540" 
d="M491 428v-63h-170l-37 -78h207v-63h-237l-54 -115h-59l54 115h-140v63h170l37 78h-207v63h237l55 116h58l-55 -116h141z" />
    <glyph glyph-name="lessequal" unicode="&#x2264;" horiz-adv-x="500" 
d="M448 178v-65l-403 164v75l403 166v-66l-347 -136v-2zM448 0h-403v57h403v-57z" />
    <glyph glyph-name="greaterequal" unicode="&#x2265;" horiz-adv-x="499" 
d="M454 279l-402 -166v66l345 135v2l-345 136v66l402 -167v-72zM454 0h-402v57h402v-57z" />
    <glyph glyph-name="uni2266" unicode="&#x2266;" horiz-adv-x="555" 
d="M493 306v-68l-437 160v81l437 162v-68l-374 -133v-2zM493 141h-437v64h437v-64zM493 0h-437v64h437v-64z" />
    <glyph glyph-name="uni2267" unicode="&#x2267;" horiz-adv-x="555" 
d="M498 398l-436 -160v68l373 132v2l-373 133v68l436 -162v-81zM498 141h-436v64h436v-64zM498 0h-436v64h436v-64z" />
    <glyph glyph-name="uni2460" unicode="&#x2460;" horiz-adv-x="846" 
d="M424 -13q-169 0 -271 101t-102 269q0 169 102 270t271 101q168 0 270 -101.5t102 -269.5t-102 -269t-270 -101zM424 44q138 0 222.5 86t84.5 227q0 142 -84.5 228t-222.5 86q-140 0 -224 -86t-84 -228t84.5 -227.5t223.5 -85.5zM401 155v303q-21 -20 -85 -20v51
q93 1 96 72h53v-406h-64z" />
    <glyph glyph-name="uni2461" unicode="&#x2461;" horiz-adv-x="846" 
d="M424 -13q-169 0 -271 101t-102 269q0 169 102 270t271 101q168 0 270 -101.5t102 -269.5t-102 -269t-270 -101zM424 44q138 0 222.5 86t84.5 227q0 142 -84.5 228t-222.5 86q-140 0 -224 -86t-84 -228t84.5 -227.5t223.5 -85.5zM564 155h-288q0 52 25.5 89.5t75.5 70.5
q11 8 37 24t36.5 24t25.5 22t20.5 29t5.5 33q0 30 -17.5 50t-53.5 20q-41 0 -62.5 -26t-21.5 -70h-62q0 64 38.5 106.5t110.5 42.5q60 0 96.5 -31.5t36.5 -87.5q0 -28 -8.5 -50t-28 -41t-34.5 -30t-44 -30q-29 -18 -41.5 -26.5t-29.5 -27t-22 -37.5v-2h205v-52z" />
    <glyph glyph-name="uni2462" unicode="&#x2462;" horiz-adv-x="846" 
d="M424 -13q-169 0 -271 101t-102 269q0 169 102 270t271 101q168 0 270 -101.5t102 -269.5t-102 -269t-270 -101zM424 44q138 0 222.5 86t84.5 227q0 142 -84.5 228t-222.5 86q-140 0 -224 -86t-84 -228t84.5 -227.5t223.5 -85.5zM431 146q-78 0 -120.5 38.5t-42.5 108.5
h63q0 -95 95 -95q85 0 85 71q0 37 -23.5 54.5t-59.5 17.5h-35v49h33q33 0 52.5 15.5t19.5 46.5q0 29 -18.5 46.5t-53.5 17.5q-43 0 -63.5 -21t-20.5 -56h-62q0 58 39 94t111 36q55 0 93.5 -30t38.5 -81q0 -63 -62 -89v-1q77 -24 77 -101q0 -57 -40.5 -89t-105.5 -32z" />
    <glyph glyph-name="uni2463" unicode="&#x2463;" horiz-adv-x="846" 
d="M424 -13q-169 0 -271 101t-102 269q0 169 102 270t271 101q168 0 270 -101.5t102 -269.5t-102 -269t-270 -101zM424 44q138 0 222.5 86t84.5 227q0 142 -84.5 228t-222.5 86q-140 0 -224 -86t-84 -228t84.5 -227.5t223.5 -85.5zM507 154h-64v94h-193v60l193 252h64v-259
h59v-53h-59v-94zM443 484l-138 -183h138v183z" />
    <glyph glyph-name="uni2464" unicode="&#x2464;" horiz-adv-x="846" 
d="M424 -13q-169 0 -271 101t-102 269q0 169 102 270t271 101q168 0 270 -101.5t102 -269.5t-102 -269t-270 -101zM424 44q138 0 222.5 86t84.5 227q0 142 -84.5 228t-222.5 86q-140 0 -224 -86t-84 -228t84.5 -227.5t223.5 -85.5zM427 146q-71 0 -111.5 35.5t-42.5 90.5h65
q2 -33 24 -53.5t61 -20.5t62.5 24.5t23.5 69.5q0 42 -22 64t-61 22q-53 0 -83 -38h-61l43 220h229v-52h-181l-24 -116v-1q36 36 94 36q59 0 95 -38t36 -98q0 -67 -41 -106t-106 -39z" />
    <glyph glyph-name="uni2465" unicode="&#x2465;" horiz-adv-x="846" 
d="M424 -13q-169 0 -271 101t-102 269q0 169 102 270t271 101q168 0 270 -101.5t102 -269.5t-102 -269t-270 -101zM424 44q138 0 222.5 86t84.5 227q0 142 -84.5 228t-222.5 86q-140 0 -224 -86t-84 -228t84.5 -227.5t223.5 -85.5zM430 146q-160 0 -160 206q0 105 42.5 161
t118.5 56q54 0 90.5 -31t43.5 -79h-66q-7 59 -69 59q-96 0 -96 -145v-9h2q30 59 106 59q60 0 97.5 -38t37.5 -98q0 -61 -40 -101t-107 -40zM427 197q40 0 63 24t23 63q0 41 -22.5 64.5t-60.5 23.5q-39 0 -64 -24.5t-25 -65.5q0 -37 23 -61t63 -24z" />
    <glyph glyph-name="uni2466" unicode="&#x2466;" horiz-adv-x="846" 
d="M424 -13q-169 0 -271 101t-102 269q0 169 102 270t271 101q168 0 270 -101.5t102 -269.5t-102 -269t-270 -101zM424 44q138 0 222.5 86t84.5 227q0 142 -84.5 228t-222.5 86q-140 0 -224 -86t-84 -228t84.5 -227.5t223.5 -85.5zM412 143h-66q0 96 42.5 197t106.5 156v1
h-215v52h285v-47q-74 -59 -113.5 -158.5t-39.5 -200.5z" />
    <glyph glyph-name="uni2467" unicode="&#x2467;" horiz-adv-x="846" 
d="M424 -13q-169 0 -271 101t-102 269q0 169 102 270t271 101q168 0 270 -101.5t102 -269.5t-102 -269t-270 -101zM424 44q138 0 222.5 86t84.5 227q0 142 -84.5 228t-222.5 86q-140 0 -224 -86t-84 -228t84.5 -227.5t223.5 -85.5zM423 146q-67 0 -111.5 32t-44.5 90
q0 72 80 104v1q-61 30 -61 88q0 50 39 79t98 29q60 0 98.5 -29t38.5 -79q0 -57 -59 -88v-1q78 -33 78 -104q0 -58 -44 -90t-112 -32zM423 394q36 0 56 16.5t20 46.5t-20.5 47t-55.5 17t-55.5 -17t-20.5 -47t20.5 -46.5t55.5 -16.5zM423 196q42 0 67 21t25 56q0 34 -25 54.5
t-67 20.5t-67 -20.5t-25 -54.5q0 -35 25.5 -56t66.5 -21z" />
    <glyph glyph-name="uni2468" unicode="&#x2468;" horiz-adv-x="846" 
d="M424 -13q-169 0 -271 101t-102 269q0 169 102 270t271 101q168 0 270 -101.5t102 -269.5t-102 -269t-270 -101zM424 44q138 0 222.5 86t84.5 227q0 142 -84.5 228t-222.5 86q-140 0 -224 -86t-84 -228t84.5 -227.5t223.5 -85.5zM415 146q-54 0 -90.5 31t-43.5 79h66
q3 -26 20 -43t49 -17q96 0 96 143v12h-1q-30 -60 -107 -60q-60 0 -97 38t-37 98q0 62 39.5 102t106.5 40q82 0 120.5 -55.5t38.5 -150.5q0 -104 -42 -160.5t-118 -56.5zM416 342q39 0 64.5 25t25.5 66q0 37 -23.5 61t-64.5 24q-40 0 -62.5 -24t-22.5 -64t22.5 -64t60.5 -24z
" />
    <glyph glyph-name="uni24EA" unicode="&#x24ea;" horiz-adv-x="846" 
d="M424 -13q-169 0 -271 101t-102 269q0 169 102 270t271 101q168 0 270 -101.5t102 -269.5t-102 -269t-270 -101zM424 44q138 0 222.5 86t84.5 227q0 142 -84.5 228t-222.5 86q-140 0 -224 -86t-84 -228t84.5 -227.5t223.5 -85.5zM424 146q-81 0 -122.5 60t-41.5 151
t41.5 151t122.5 60q80 0 121.5 -60t41.5 -151t-41.5 -151t-121.5 -60zM424 198q98 0 98 159q0 160 -98 160q-52 0 -75.5 -44t-23.5 -116q0 -159 99 -159z" />
    <glyph glyph-name="upblock" unicode="&#x2580;" horiz-adv-x="843" 
d="M779 357h-715v358h715v-358z" />
    <glyph glyph-name="dnblock" unicode="&#x2584;" horiz-adv-x="845" 
d="M780 0h-715v358h715v-358z" />
    <glyph glyph-name="block" unicode="&#x2588;" horiz-adv-x="868" 
d="M791 0h-715v715h715v-715z" />
    <glyph glyph-name="filledbox" unicode="&#x25a0;" horiz-adv-x="868" 
d="M791 0h-715v715h715v-715z" />
    <glyph glyph-name="uni25A1" unicode="&#x25a1;" horiz-adv-x="868" 
d="M791 0h-715v715h715v-715zM141 650v-585h585v585h-585z" />
    <glyph glyph-name="uni25AA" unicode="&#x25aa;" horiz-adv-x="308" 
d="M249 225h-190v190h190v-190z" />
    <glyph glyph-name="uni25AB" unicode="&#x25ab;" horiz-adv-x="358" 
d="M297 202h-236v236h236v-236zM126 373v-106h106v106h-106z" />
    <glyph glyph-name="triagup" unicode="&#x25b2;" horiz-adv-x="827" 
d="M814 0h-800l400 715z" />
    <glyph glyph-name="triagrt" unicode="&#x25ba;" horiz-adv-x="840" 
d="M803 357l-715 -400v800z" />
    <glyph glyph-name="triagdn" unicode="&#x25bc;" horiz-adv-x="829" 
d="M814 715l-400 -715l-400 715h800z" />
    <glyph glyph-name="triaglf" unicode="&#x25c4;" horiz-adv-x="840" 
d="M752 757v-800l-715 400z" />
    <glyph glyph-name="lozenge" unicode="&#x25ca;" horiz-adv-x="561" 
d="M319 0h-75l-202 358l202 357h74l202 -358zM114 359l167 -294h2l164 290l-166 295h-2z" />
    <glyph glyph-name="circle" unicode="&#x25cb;" horiz-adv-x="846" 
d="M424 -13q-169 0 -271 101t-102 269q0 169 102 270t271 101q168 0 270 -101.5t102 -269.5t-102 -269t-270 -101zM424 44q138 0 222.5 86t84.5 227q0 142 -84.5 228t-222.5 86q-140 0 -224 -86t-84 -228t84.5 -227.5t223.5 -85.5z" />
    <glyph glyph-name="uni25CF" unicode="&#x25cf;" horiz-adv-x="841" 
d="M421 -13q-154 0 -262.5 108.5t-108.5 261.5t108.5 262t262.5 109q153 0 261.5 -109t108.5 -262t-108.5 -261.5t-261.5 -108.5z" />
    <glyph glyph-name="uni2B0E" unicode="&#x2b0e;" horiz-adv-x="644" 
d="M368 111l197 184l40 -44l-270 -250l-270 250l41 44l196 -184v342h-277v59h343v-401z" />
    <glyph glyph-name="uni2B0F" unicode="&#x2b0f;" horiz-adv-x="647" 
d="M67 261l270 250l270 -250l-40 -44l-197 184v-401h-343v59h278v342l-197 -184z" />
    <glyph glyph-name="uni2B10" unicode="&#x2b10;" horiz-adv-x="647" 
d="M619 508v-59h-277v-342l196 184l41 -44l-270 -250l-270 250l40 44l197 -184v401h343z" />
    <glyph glyph-name="uni2B11" unicode="&#x2b11;" horiz-adv-x="645" 
d="M341 399v-342h278v-59h-343v401l-197 -184l-40 44l270 250l270 -250l-41 -44z" />
    <glyph glyph-name="uni2BA0" unicode="&#x2ba0;" horiz-adv-x="603" 
d="M490 286v277h59v-342h-401l184 -197l-44 -41l-250 270l250 270l44 -40l-184 -197h342z" />
    <glyph glyph-name="uni2BA1" unicode="&#x2ba1;" horiz-adv-x="603" 
d="M270 486l44 40l250 -270l-250 -270l-44 41l184 197h-401v342h59v-277h342z" />
    <glyph glyph-name="uni2BA2" unicode="&#x2ba2;" horiz-adv-x="604" 
d="M334 495l-184 -196h401v-343h-59v277h-342l184 -197l-44 -40l-250 270l250 270z" />
    <glyph glyph-name="uni2BA3" unicode="&#x2ba3;" horiz-adv-x="604" 
d="M270 495l44 41l250 -270l-250 -270l-44 40l184 197h-343v-277h-58v343h401z" />
    <glyph glyph-name="uni2BA4" unicode="&#x2ba4;" horiz-adv-x="645" 
d="M341 399v-342h278v-59h-343v401l-197 -184l-40 44l270 250l270 -250l-41 -44z" />
    <glyph glyph-name="uni2BA5" unicode="&#x2ba5;" horiz-adv-x="647" 
d="M67 261l270 250l270 -250l-40 -44l-197 184v-401h-343v59h278v342l-197 -184z" />
    <glyph glyph-name="uni2BA6" unicode="&#x2ba6;" horiz-adv-x="647" 
d="M619 508v-59h-277v-342l196 184l41 -44l-270 -250l-270 250l40 44l197 -184v401h343z" />
    <glyph glyph-name="uni2BA7" unicode="&#x2ba7;" horiz-adv-x="644" 
d="M368 111l197 184l40 -44l-270 -250l-270 250l41 44l196 -184v342h-277v59h343v-401z" />
    <glyph glyph-name="fi" unicode="&#xfb01;" horiz-adv-x="447" 
d="M91 510v75q0 79 28.5 107.5t88.5 28.5q18 0 49 -4v-55q-36 2 -40 2q-37 0 -49 -15.5t-12 -62.5v-76h101v-57h-101v-453h-65v453h-72v57h72zM312 612v84h84v-84h-84zM387 0h-65v510h65v-510z" />
    <glyph glyph-name="fl" unicode="&#xfb02;" horiz-adv-x="447" 
d="M91 510v75q0 79 28.5 107.5t88.5 28.5q18 0 49 -4v-55q-36 2 -40 2q-37 0 -49 -15.5t-12 -62.5v-76h101v-57h-101v-453h-65v453h-72v57h72zM322 0v715h65v-715h-65z" />
    <glyph glyph-name="uniFEFF" unicode="&#xfeff;" 
 />
    <glyph glyph-name="u1F150" unicode="&#x1f150;" horiz-adv-x="579" 
d="M290 286q-94 0 -158.5 63.5t-64.5 159.5q0 95 64.5 158.5t158.5 63.5q93 0 157.5 -63.5t64.5 -158.5q0 -96 -64.5 -159.5t-157.5 -63.5z" />
    <glyph glyph-name="Adieresis.ss02" horiz-adv-x="635" 
d="M242 813q-20 0 -32 13t-12 31q0 19 12 32t32 13q21 0 33 -13t12 -32q0 -18 -12 -31t-33 -13zM390 813q-20 0 -32 13t-12 31q0 19 12 32t32 13q21 0 33 -13t12 -32q0 -18 -12 -31t-33 -13zM84 0h-75l267 715h82l269 -715h-78l-72 198h-321zM316 646l-136 -383h274
l-136 383h-2z" />
    <glyph glyph-name="Cdotaccent.ss02" horiz-adv-x="697" 
d="M369 814q-20 0 -32 12.5t-12 31.5t12 31.5t32 12.5q21 0 33 -12.5t12 -31.5t-12 -31.5t-33 -12.5zM368 -13q-145 0 -236.5 103.5t-91.5 266.5t91.5 267t237.5 104q122 0 201 -68.5t93 -172.5h-76q-6 32 -20.5 61.5t-39 56.5t-66 43t-93.5 16q-83 0 -141.5 -44t-84.5 -112
t-26 -151q0 -129 65 -217.5t187 -88.5q105 0 160 59.5t62 143.5h76q-13 -119 -93 -193t-205 -74z" />
    <glyph glyph-name="Edieresis.ss02" horiz-adv-x="603" 
d="M248 813q-20 0 -32 13t-12 31q0 19 12 32t32 13q21 0 33 -13t12 -32q0 -18 -12 -31t-33 -13zM396 813q-20 0 -32 13t-12 31q0 19 12 32t32 13q21 0 33 -13t12 -32q0 -18 -12 -31t-33 -13zM572 0h-496v715h485v-64h-412v-246h368v-64h-368v-277h423v-64z" />
    <glyph glyph-name="Edotaccent.ss02" horiz-adv-x="603" 
d="M322 814q-20 0 -32 12.5t-12 31.5t12 31.5t32 12.5q21 0 33 -12.5t12 -31.5t-12 -31.5t-33 -12.5zM572 0h-496v715h485v-64h-412v-246h368v-64h-368v-277h423v-64z" />
    <glyph glyph-name="uni0122.ss02" horiz-adv-x="729" 
d="M364 -13q-153 0 -238 102.5t-85 267.5q0 162 91 266.5t241 104.5q125 0 200 -60t94 -165h-75q-16 77 -74 119t-145 42q-64 0 -115 -26.5t-80.5 -71.5t-45 -98t-15.5 -111q0 -47 7.5 -89.5t26 -82.5t46.5 -69.5t70.5 -47t96.5 -17.5q105 0 173.5 70t68.5 181h-237v65h310
v-367h-50l-22 127h-2q-75 -140 -241 -140zM335 -223v37q53 14 54 54q-23 -8 -40.5 3t-17.5 37q0 21 12.5 33.5t32.5 12.5q51 0 51 -65q0 -89 -92 -112z" />
    <glyph glyph-name="Gdotaccent.ss02" horiz-adv-x="729" 
d="M368 814q-20 0 -32 12.5t-12 31.5t12 31.5t32 12.5q21 0 33 -12.5t12 -31.5t-12 -31.5t-33 -12.5zM364 -13q-153 0 -238 102.5t-85 267.5q0 162 91 266.5t241 104.5q125 0 200 -60t94 -165h-75q-16 77 -74 119t-145 42q-64 0 -115 -26.5t-80.5 -71.5t-45 -98t-15.5 -111
q0 -47 7.5 -89.5t26 -82.5t46.5 -69.5t70.5 -47t96.5 -17.5q105 0 173.5 70t68.5 181h-237v65h310v-367h-50l-22 127h-2q-75 -140 -241 -140z" />
    <glyph glyph-name="Idieresis.ss02" horiz-adv-x="225" 
d="M38 813q-20 0 -32 13t-12 31q0 19 12 32t32 13q21 0 33 -13t12 -32q0 -18 -12 -31t-33 -13zM186 813q-20 0 -32 13t-12 31q0 19 12 32t32 13q21 0 33 -13t12 -32q0 -18 -12 -31t-33 -13zM149 0h-73v715h73v-715z" />
    <glyph glyph-name="Idotaccent.ss02" horiz-adv-x="225" 
d="M112 814q-20 0 -32 12.5t-12 31.5t12 31.5t32 12.5q21 0 33 -12.5t12 -31.5t-12 -31.5t-33 -12.5zM149 0h-73v715h73v-715z" />
    <glyph glyph-name="uni0136.ss02" horiz-adv-x="629" 
d="M618 715l-285 -297l308 -418h-85l-270 369l-137 -143v-226h-73v715h73v-404l386 404h83zM334 -46q51 0 51 -65q0 -89 -92 -112v37q53 14 54 54q-23 -8 -40.5 3t-17.5 37q0 21 12.5 33.5t32.5 12.5z" />
    <glyph glyph-name="uni013B.ss02" horiz-adv-x="549" 
d="M535 0h-459v715h73v-651h386v-64zM261 -223v37q53 14 54 54q-23 -8 -40.5 3t-17.5 37q0 21 12.5 33.5t32.5 12.5q51 0 51 -65q0 -89 -92 -112z" />
    <glyph glyph-name="uni0145.ss02" horiz-adv-x="703" 
d="M149 0h-73v715h89l387 -612h2v612h73v-715h-89l-387 612h-2v-612zM304 -223v37q53 14 54 54q-23 -8 -40.5 3t-17.5 37q0 21 12.5 33.5t32.5 12.5q51 0 51 -65q0 -89 -92 -112z" />
    <glyph glyph-name="Odieresis.ss02" horiz-adv-x="767" 
d="M309 813q-20 0 -32 13t-12 31q0 19 12 32t32 13q21 0 33 -13t12 -32q0 -18 -12 -31t-33 -13zM457 813q-20 0 -32 13t-12 31q0 19 12 32t32 13q21 0 33 -13t12 -32q0 -18 -12 -31t-33 -13zM384 -13q-154 0 -249 104t-95 267t95 266.5t249 103.5q153 0 248 -103.5
t95 -266.5t-95 -267t-248 -104zM384 51q127 0 197 87t70 220t-70 219.5t-197 86.5q-128 0 -198 -86.5t-70 -219.5t70 -220t198 -87z" />
    <glyph glyph-name="uni0156.ss02" horiz-adv-x="640" 
d="M149 0h-73v715h280q114 0 174.5 -52t60.5 -150q0 -70 -36.5 -117.5t-96.5 -62.5v-2q46 -9 74 -45t37.5 -81t13 -88.5t7.5 -75.5t14 -35v-6h-78q-8 7 -10.5 41.5t-5.5 76t-13.5 83t-43.5 69t-86 27.5h-218v-297zM149 361h189q86 0 133 38.5t47 112.5q0 70 -42 104.5
t-133 34.5h-194v-290zM286 -223v37q53 14 54 54q-23 -8 -40.5 3t-17.5 37q0 21 12.5 33.5t32.5 12.5q51 0 51 -65q0 -89 -92 -112z" />
    <glyph glyph-name="uni0218.ss02" horiz-adv-x="616" 
d="M333 -13q-132 0 -215.5 66t-90.5 184h76q8 -87 63.5 -136.5t163.5 -49.5q93 0 135 38.5t42 103.5q0 26 -5 46t-20 35t-29 24.5t-44.5 19.5t-53 16t-68.5 16q-53 12 -87 24t-70.5 33.5t-54.5 55.5t-18 81q0 85 64 134.5t174 49.5q117 0 186.5 -57t77.5 -162h-76
q-19 155 -188 155q-78 0 -120 -30.5t-42 -86.5q0 -28 10.5 -49.5t25 -34.5t43.5 -24t50 -16.5t61 -14.5q65 -14 104.5 -27t79 -36.5t58 -60.5t18.5 -89q0 -92 -64 -150t-186 -58zM296 -223v37q53 14 54 54q-23 -8 -40.5 3t-17.5 37q0 21 12.5 33.5t32.5 12.5q51 0 51 -65
q0 -89 -92 -112z" />
    <glyph glyph-name="uni021A.ss02" horiz-adv-x="588" 
d="M330 0h-72v651h-243v64h559v-64h-244v-651zM249 -223v37q53 14 54 54q-23 -8 -40.5 3t-17.5 37q0 21 12.5 33.5t32.5 12.5q51 0 51 -65q0 -89 -92 -112z" />
    <glyph glyph-name="Udieresis.ss02" horiz-adv-x="680" 
d="M266 813q-20 0 -32 13t-12 31q0 19 12 32t32 13q21 0 33 -13t12 -32q0 -18 -12 -31t-33 -13zM414 813q-20 0 -32 13t-12 31q0 19 12 32t32 13q21 0 33 -13t12 -32q0 -18 -12 -31t-33 -13zM340 -13q-136 0 -202.5 67.5t-66.5 186.5v474h73v-474q0 -190 196 -190t196 190
v474h73v-474q0 -119 -66.5 -186.5t-202.5 -67.5z" />
    <glyph glyph-name="Wdieresis.ss02" horiz-adv-x="901" 
d="M376 813q-20 0 -32 13t-12 31q0 19 12 32t32 13q21 0 33 -13t12 -32q0 -18 -12 -31t-33 -13zM524 813q-20 0 -32 13t-12 31q0 19 12 32t32 13q21 0 33 -13t12 -32q0 -18 -12 -31t-33 -13zM277 0h-80l-180 715h77l146 -611h2l168 611h81l168 -611h3l146 611h76l-179 -715
h-81l-172 629h-3z" />
    <glyph glyph-name="Ydieresis.ss02" horiz-adv-x="618" 
d="M235 813q-20 0 -32 13t-12 31q0 19 12 32t32 13q21 0 33 -13t12 -32q0 -18 -12 -31t-33 -13zM383 813q-20 0 -32 13t-12 31q0 19 12 32t32 13q21 0 33 -13t12 -32q0 -18 -12 -31t-33 -13zM345 0h-73v293l-261 422h79l218 -365h2l219 365h78l-262 -422v-293z" />
    <glyph glyph-name="Zdotaccent.ss02" horiz-adv-x="588" 
d="M294 814q-20 0 -32 12.5t-12 31.5t12 31.5t32 12.5q21 0 33 -12.5t12 -31.5t-12 -31.5t-33 -12.5zM566 0h-548v64l449 585v2h-429v64h518v-64l-449 -585v-2h459v-64z" />
    <glyph glyph-name="i.latn_TRK" horiz-adv-x="185" 
d="M135 612h-84v84h84v-84zM125 0h-65v510h65v-510z" />
    <glyph glyph-name="a.ss01" horiz-adv-x="557" 
d="M431 424v86h65v-510h-65v83h-2q-56 -96 -172 -96q-96 0 -160 72.5t-64 195.5q0 122 64 194.5t160 72.5q118 0 172 -98h2zM265 44q74 0 120 57.5t46 153.5q0 95 -46 152.5t-120 57.5q-77 0 -120.5 -60t-43.5 -150t43.5 -150.5t120.5 -60.5z" />
    <glyph glyph-name="aacute.ss01" horiz-adv-x="557" 
d="M301 725h78l-86 -132h-54zM431 424v86h65v-510h-65v83h-2q-56 -96 -172 -96q-96 0 -160 72.5t-64 195.5q0 122 64 194.5t160 72.5q118 0 172 -98h2zM265 44q74 0 120 57.5t46 153.5q0 95 -46 152.5t-120 57.5q-77 0 -120.5 -60t-43.5 -150t43.5 -150.5t120.5 -60.5z" />
    <glyph glyph-name="abreve.ss01" horiz-adv-x="557" 
d="M273 588q-55 0 -88.5 33t-35.5 94h50q8 -78 74 -78q67 0 73 78h51q-3 -60 -36 -93.5t-88 -33.5zM431 424v86h65v-510h-65v83h-2q-56 -96 -172 -96q-96 0 -160 72.5t-64 195.5q0 122 64 194.5t160 72.5q118 0 172 -98h2zM265 44q74 0 120 57.5t46 153.5q0 95 -46 152.5
t-120 57.5q-77 0 -120.5 -60t-43.5 -150t43.5 -150.5t120.5 -60.5z" />
    <glyph glyph-name="acircumflex.ss01" horiz-adv-x="557" 
d="M273 688h-1l-59 -93h-68l91 130h74l90 -130h-68zM431 424v86h65v-510h-65v83h-2q-56 -96 -172 -96q-96 0 -160 72.5t-64 195.5q0 122 64 194.5t160 72.5q118 0 172 -98h2zM265 44q74 0 120 57.5t46 153.5q0 95 -46 152.5t-120 57.5q-77 0 -120.5 -60t-43.5 -150
t43.5 -150.5t120.5 -60.5z" />
    <glyph glyph-name="adieresis.ss01" horiz-adv-x="557" 
d="M156 696h84v-84h-84v84zM305 696h84v-84h-84v84zM431 424v86h65v-510h-65v83h-2q-56 -96 -172 -96q-96 0 -160 72.5t-64 195.5q0 122 64 194.5t160 72.5q118 0 172 -98h2zM265 44q74 0 120 57.5t46 153.5q0 95 -46 152.5t-120 57.5q-77 0 -120.5 -60t-43.5 -150
t43.5 -150.5t120.5 -60.5z" />
    <glyph glyph-name="agrave.ss01" horiz-adv-x="557" 
d="M241 725l55 -132h-54l-80 132h79zM431 424v86h65v-510h-65v83h-2q-56 -96 -172 -96q-96 0 -160 72.5t-64 195.5q0 122 64 194.5t160 72.5q118 0 172 -98h2zM265 44q74 0 120 57.5t46 153.5q0 95 -46 152.5t-120 57.5q-77 0 -120.5 -60t-43.5 -150t43.5 -150.5
t120.5 -60.5z" />
    <glyph glyph-name="amacron.ss01" horiz-adv-x="557" 
d="M148 674h249v-57h-249v57zM431 424v86h65v-510h-65v83h-2q-56 -96 -172 -96q-96 0 -160 72.5t-64 195.5q0 122 64 194.5t160 72.5q118 0 172 -98h2zM265 44q74 0 120 57.5t46 153.5q0 95 -46 152.5t-120 57.5q-77 0 -120.5 -60t-43.5 -150t43.5 -150.5t120.5 -60.5z" />
    <glyph glyph-name="aogonek.ss01" horiz-adv-x="557" 
d="M462 -126q27 0 50 10v-50q-28 -10 -62 -10q-44 0 -67.5 20.5t-23.5 53.5q0 32 23.5 59.5t55.5 42.5h-7v83h-2q-56 -96 -172 -96q-96 0 -160 72.5t-64 195.5q0 122 64 194.5t160 72.5q118 0 172 -98h2v86h65v-510h-7q-72 -51 -72 -89q0 -17 12.5 -27t32.5 -10zM265 44
q74 0 120 57.5t46 153.5q0 95 -46 152.5t-120 57.5q-77 0 -120.5 -60t-43.5 -150t43.5 -150.5t120.5 -60.5z" />
    <glyph glyph-name="aring.ss01" horiz-adv-x="557" 
d="M272 561q-38 0 -62 24t-24 61q0 38 24 61.5t62 23.5t62 -23.5t24 -61.5q0 -37 -24 -61t-62 -24zM272 697q-22 0 -35.5 -14.5t-13.5 -36.5q0 -23 13.5 -37t35.5 -14t36 14t14 37q0 22 -14 36.5t-36 14.5zM431 424v86h65v-510h-65v83h-2q-56 -96 -172 -96q-96 0 -160 72.5
t-64 195.5q0 122 64 194.5t160 72.5q118 0 172 -98h2zM265 44q74 0 120 57.5t46 153.5q0 95 -46 152.5t-120 57.5q-77 0 -120.5 -60t-43.5 -150t43.5 -150.5t120.5 -60.5z" />
    <glyph glyph-name="atilde.ss01" horiz-adv-x="557" 
d="M213 640q-25 0 -27 -40h-51q1 45 21 67.5t51 22.5q28 0 69.5 -20.5t54.5 -20.5q25 0 27 39h51q-1 -45 -21 -67t-51 -22q-27 0 -69 20.5t-55 20.5zM431 424v86h65v-510h-65v83h-2q-56 -96 -172 -96q-96 0 -160 72.5t-64 195.5q0 122 64 194.5t160 72.5q118 0 172 -98h2z
M265 44q74 0 120 57.5t46 153.5q0 95 -46 152.5t-120 57.5q-77 0 -120.5 -60t-43.5 -150t43.5 -150.5t120.5 -60.5z" />
    <glyph glyph-name="adieresis.ss02" horiz-adv-x="514" 
d="M190 608q-20 0 -32 13t-12 31q0 19 12 32t32 13q21 0 33 -13t12 -32q0 -18 -12 -31t-33 -13zM338 608q-20 0 -32 13t-12 31q0 19 12 32t32 13q21 0 33 -13t12 -32q0 -18 -12 -31t-33 -13zM200 -13q-76 0 -121.5 39t-45.5 103q0 78 51 113.5t159 54.5q87 16 108 28
q30 17 30 54q0 87 -116 87q-73 0 -104 -26t-35 -84h-69q4 74 55 120.5t155 46.5q78 0 127.5 -38.5t49.5 -123.5v-255q0 -32 6 -46t23 -14q8 0 14 1v-47q-22 -4 -34 -4q-34 0 -51.5 17.5t-20.5 63.5h-2q-54 -90 -179 -90zM208 44q79 0 126 39.5t47 107.5v95q-18 -25 -130 -43
q-79 -14 -114.5 -37.5t-35.5 -70.5q0 -91 107 -91z" />
    <glyph glyph-name="cdotaccent.ss02" horiz-adv-x="522" 
d="M276 609q-20 0 -32 12.5t-12 31.5t12 31.5t32 12.5q21 0 33 -12.5t12 -31.5t-12 -31.5t-33 -12.5zM276 -13q-109 0 -176.5 74t-67.5 194q0 119 67.5 193t176.5 74q91 0 151 -54t68 -137h-68q-4 51 -41.5 92.5t-109.5 41.5q-87 0 -131.5 -61.5t-44.5 -148.5
q0 -88 44.5 -150t131.5 -62q73 0 110 42t41 97h68q-5 -84 -66 -139.5t-153 -55.5z" />
    <glyph glyph-name="edieresis.ss02" horiz-adv-x="537" 
d="M197 610q-20 0 -32 13t-12 31q0 19 12 32t32 13q21 0 33 -13t12 -32q0 -18 -12 -31t-33 -13zM345 610q-20 0 -32 13t-12 31q0 19 12 32t32 13q21 0 33 -13t12 -32q0 -18 -12 -31t-33 -13zM506 278q0 -28 -1 -36h-404q1 -84 46 -142t130 -58q70 0 108 36t48 78h66
q-20 -76 -76 -123t-147 -47q-114 0 -178.5 74.5t-64.5 194.5q0 122 66.5 195t176.5 73q108 0 169 -68t61 -177zM101 299h336q0 71 -44 119.5t-120 48.5q-73 0 -120.5 -48t-51.5 -120z" />
    <glyph glyph-name="edotaccent.ss02" horiz-adv-x="537" 
d="M271 611q-20 0 -32 12.5t-12 31.5t12 31.5t32 12.5q21 0 33 -12.5t12 -31.5t-12 -31.5t-33 -12.5zM506 278q0 -28 -1 -36h-404q1 -84 46 -142t130 -58q70 0 108 36t48 78h66q-20 -76 -76 -123t-147 -47q-114 0 -178.5 74.5t-64.5 194.5q0 122 66.5 195t176.5 73
q108 0 169 -68t61 -177zM101 299h336q0 71 -44 119.5t-120 48.5q-73 0 -120.5 -48t-51.5 -120z" />
    <glyph glyph-name="uni0123.ss02" horiz-adv-x="557" 
d="M273 599q-25 0 -38.5 17t-13.5 47q0 83 87 110v-36q-49 -14 -49 -61q24 7 41 -2t17 -33q0 -20 -12 -31t-32 -11zM433 430v80h65v-478q0 -106 -61 -160.5t-169 -54.5q-100 0 -156.5 43t-62.5 113h68q18 -99 152 -99q164 0 164 149v95h-2q-53 -94 -172 -94q-97 0 -160.5 64
t-63.5 186q0 120 63.5 184t160.5 64q118 0 172 -92h2zM268 81q74 0 119.5 49t45.5 144q0 93 -45.5 142t-119.5 49q-78 0 -121.5 -52t-43.5 -139q0 -89 43.5 -141t121.5 -52z" />
    <glyph glyph-name="gdotaccent.ss02" horiz-adv-x="557" 
d="M268 609q-20 0 -32 12.5t-12 31.5t12 31.5t32 12.5q21 0 33 -12.5t12 -31.5t-12 -31.5t-33 -12.5zM433 430v80h65v-478q0 -106 -61 -160.5t-169 -54.5q-100 0 -156.5 43t-62.5 113h68q18 -99 152 -99q164 0 164 149v95h-2q-53 -94 -172 -94q-97 0 -160.5 64t-63.5 186
q0 120 63.5 184t160.5 64q118 0 172 -92h2zM268 81q74 0 119.5 49t45.5 144q0 93 -45.5 142t-119.5 49q-78 0 -121.5 -52t-43.5 -139q0 -89 43.5 -141t121.5 -52z" />
    <glyph glyph-name="i.ss02" horiz-adv-x="185" 
d="M93 609q-21 0 -33 12.5t-12 31.5t12 31.5t33 12.5q20 0 32.5 -12.5t12.5 -31.5t-12.5 -31.5t-32.5 -12.5zM125 0h-65v510h65v-510z" />
    <glyph glyph-name="idieresis.ss02" horiz-adv-x="185" 
d="M18 608q-20 0 -32 13t-12 31q0 19 12 32t32 13q21 0 33 -13t12 -32q0 -18 -12 -31t-33 -13zM166 608q-20 0 -32 13t-12 31q0 19 12 32t32 13q21 0 33 -13t12 -32q0 -18 -12 -31t-33 -13zM125 0h-65v510h65v-510z" />
    <glyph glyph-name="iogonek.ss02" horiz-adv-x="185" 
d="M92 609q-20 0 -32 12.5t-12 31.5t12 31.5t32 12.5q21 0 33 -12.5t12 -31.5t-12 -31.5t-33 -12.5zM91 -126q27 0 50 10v-50q-28 -10 -62 -10q-44 0 -67.5 20.5t-23.5 53.5q0 32 23.5 59.5t55.5 42.5h-7v510h65v-510h-7q-72 -51 -72 -89q0 -17 12.5 -27t32.5 -10z" />
    <glyph glyph-name="j.ss02" horiz-adv-x="185" 
d="M92 609q-20 0 -32 12.5t-12 31.5t12 31.5t32 12.5q21 0 33 -12.5t12 -31.5t-12 -31.5t-33 -12.5zM25 -180q-22 0 -49 4v55q30 -2 38 -2q25 0 35.5 17.5t10.5 61.5v554h65v-559q0 -131 -100 -131z" />
    <glyph glyph-name="uni0137.ss02" horiz-adv-x="470" 
d="M458 510l-201 -187l226 -323h-77l-193 282l-88 -82v-200h-65v715h65v-445l253 240h80zM256 -46q51 0 51 -65q0 -89 -92 -112v37q53 14 54 54q-23 -8 -40.5 3t-17.5 37q0 21 12.5 33.5t32.5 12.5z" />
    <glyph glyph-name="uni013C.ss02" horiz-adv-x="185" 
d="M125 0h-65v715h65v-715zM48 -223v37q53 14 54 54q-23 -8 -40.5 3t-17.5 37q0 21 12.5 33.5t32.5 12.5q51 0 51 -65q0 -89 -92 -112z" />
    <glyph glyph-name="uni0146.ss02" horiz-adv-x="525" 
d="M302 522q73 0 120 -41.5t47 -122.5v-358h-65v344q0 54 -28 87.5t-90 33.5q-71 0 -116 -42.5t-45 -100.5v-322h-65v510h65v-73h2q59 85 175 85zM261 -46q51 0 51 -65q0 -89 -92 -112v37q53 14 54 54q-23 -8 -40.5 3t-17.5 37q0 21 12.5 33.5t32.5 12.5z" />
    <glyph glyph-name="odieresis.ss02" horiz-adv-x="554" 
d="M203 609q-20 0 -32 13t-12 31q0 19 12 32t32 13q21 0 33 -13t12 -32q0 -18 -12 -31t-33 -13zM351 609q-20 0 -32 13t-12 31q0 19 12 32t32 13q21 0 33 -13t12 -32q0 -18 -12 -31t-33 -13zM277 -14q-113 0 -179 74t-66 194q0 121 66 195t179 74t179 -74t66 -195
q0 -120 -66 -194t-179 -74zM277 43q86 0 131.5 59.5t45.5 151.5q0 93 -45.5 152.5t-131.5 59.5t-131.5 -59.5t-45.5 -152.5q0 -92 45.5 -151.5t131.5 -59.5z" />
    <glyph glyph-name="uni0157.ss02" horiz-adv-x="325" 
d="M272 522q26 0 44 -3v-64q-15 3 -31 3q-69 0 -114.5 -49.5t-45.5 -123.5v-285h-65v510h65v-104h2q45 116 145 116zM89 -46q51 0 51 -65q0 -89 -92 -112v37q53 14 54 54q-23 -8 -40.5 3t-17.5 37q0 21 12.5 33.5t32.5 12.5z" />
    <glyph glyph-name="uni0219.ss02" horiz-adv-x="472" 
d="M248 -13q-104 0 -163 50.5t-61 129.5h68q3 -56 42 -89.5t115 -33.5q68 0 99 26.5t31 68.5q0 14 -4 25.5t-8.5 19.5t-15.5 15.5t-18.5 11.5t-23.5 9t-24 7t-27 6t-26 6q-39 10 -57 15t-49 18t-45 26t-26 35.5t-12 51.5q0 63 48 100t133 37q94 0 145.5 -43.5t58.5 -111.5
h-68q-20 98 -135 98q-55 0 -84.5 -20t-29.5 -56q0 -10 2 -19t7.5 -16.5t10.5 -12.5t15.5 -10.5t17.5 -8.5t21.5 -7t22 -6t24.5 -6t25 -6q45 -11 72 -20t58 -26.5t46 -44.5t15 -65q0 -70 -53 -112t-147 -42zM198 -223v37q53 14 54 54q-23 -8 -40.5 3t-17.5 37q0 21 12.5 33.5
t32.5 12.5q51 0 51 -65q0 -89 -92 -112z" />
    <glyph glyph-name="uni021B.ss02" horiz-adv-x="280" 
d="M256 510v-57h-103v-322q0 -47 13 -62.5t51 -15.5q9 0 39 2v-55q-27 -4 -48 -4q-61 0 -90.5 29t-29.5 107v321h-75v57h75v170h65v-170h103zM186 -33q51 0 51 -65q0 -89 -92 -112v37q53 14 54 54q-23 -8 -40.5 3t-17.5 37q0 21 12.5 33.5t32.5 12.5z" />
    <glyph glyph-name="udieresis.ss02" horiz-adv-x="525" 
d="M179 608q-20 0 -32 13t-12 31q0 19 12 32t32 13q21 0 33 -13t12 -32q0 -18 -12 -31t-33 -13zM327 608q-20 0 -32 13t-12 31q0 19 12 32t32 13q21 0 33 -13t12 -32q0 -18 -12 -31t-33 -13zM400 188v322h65v-510h-65v72h-2q-58 -84 -175 -84q-73 0 -120 41.5t-47 122.5v358
h65v-344q0 -54 28 -87.5t90 -33.5q71 0 116 42.5t45 100.5z" />
    <glyph glyph-name="wdieresis.ss02" horiz-adv-x="737" 
d="M295 608q-20 0 -32 13t-12 31q0 19 12 32t32 13q21 0 33 -13t12 -32q0 -18 -12 -31t-33 -13zM443 608q-20 0 -32 13t-12 31q0 19 12 32t32 13q21 0 33 -13t12 -32q0 -18 -12 -31t-33 -13zM247 0h-72l-162 510h72l127 -436h2l119 436h73l119 -436h2l128 436h70l-163 -510
h-73l-120 431h-2z" />
    <glyph glyph-name="ydieresis.ss02" horiz-adv-x="481" 
d="M164 608q-20 0 -32 13t-12 31q0 19 12 32t32 13q21 0 33 -13t12 -32q0 -18 -12 -31t-33 -13zM312 608q-20 0 -32 13t-12 31q0 19 12 32t32 13q21 0 33 -13t12 -32q0 -18 -12 -31t-33 -13zM105 -179q-21 0 -49 4v56q23 -3 39 -3q78 0 115 125l-206 507h72l166 -425h2
l158 425h70l-204 -525q-36 -93 -73 -128.5t-90 -35.5z" />
    <glyph glyph-name="zdotaccent.ss02" horiz-adv-x="441" 
d="M219 609q-20 0 -32 12.5t-12 31.5t12 31.5t32 12.5q21 0 33 -12.5t12 -31.5t-12 -31.5t-33 -12.5zM422 0h-404v50l303 401v2h-287v57h377v-41l-309 -410v-2h320v-57z" />
    <glyph glyph-name="i.latn_TRK.ss02" horiz-adv-x="185" 
d="M93 609q-21 0 -33 12.5t-12 31.5t12 31.5t33 12.5q20 0 32.5 -12.5t12.5 -31.5t-12.5 -31.5t-32.5 -12.5zM125 0h-65v510h65v-510z" />
    <glyph glyph-name="adieresis.ss01.ss02" horiz-adv-x="557" 
d="M198 608q-20 0 -32 13t-12 31q0 19 12 32t32 13q21 0 33 -13t12 -32q0 -18 -12 -31t-33 -13zM346 608q-20 0 -32 13t-12 31q0 19 12 32t32 13q21 0 33 -13t12 -32q0 -18 -12 -31t-33 -13zM431 424v86h65v-510h-65v83h-2q-56 -96 -172 -96q-96 0 -160 72.5t-64 195.5
q0 122 64 194.5t160 72.5q118 0 172 -98h2zM265 44q74 0 120 57.5t46 153.5q0 95 -46 152.5t-120 57.5q-77 0 -120.5 -60t-43.5 -150t43.5 -150.5t120.5 -60.5z" />
    <glyph glyph-name="s_s" horiz-adv-x="946" 
d="M247 -13q-103 0 -161.5 48.5t-61.5 131.5h68q3 -51 38.5 -87t116.5 -36q68 0 100 27t32 69q0 44 -31.5 62t-105.5 35q-3 0 -5.5 0.5t-4.5 1.5q-37 9 -54.5 14t-48.5 18t-46 26.5t-27.5 37t-12.5 53.5q0 62 46.5 98t130.5 36q58 0 102.5 -17.5t79 -56t59.5 -83.5t53 -114
q14 -35 22 -52.5t21 -44t23 -39.5t26 -29.5t32.5 -23.5t39 -12.5t49.5 -5.5q126 0 126 93q0 14 -4 26t-8.5 20t-15.5 15.5t-18 12t-23.5 9.5t-23.5 6.5t-27.5 6.5t-26.5 6q-37 9 -57 14.5t-49.5 18t-44.5 26t-26.5 36t-11.5 51.5q0 63 48 100t133 37q94 0 145.5 -43.5
t58.5 -111.5h-68q-22 98 -136 98q-54 0 -83.5 -20t-29.5 -56q0 -13 3.5 -24t13 -19t16 -13.5t24 -11.5t25.5 -8l32 -8l32 -8q37 -9 56.5 -14.5t49.5 -18.5t45 -28t27 -40t12 -57q0 -70 -50 -111t-141 -41q-35 0 -64 7t-50 16.5t-41.5 30.5t-33 37t-29 49t-25.5 54t-26 63
q-49 123 -104.5 172t-135.5 49q-110 0 -110 -74q0 -10 2 -19t8 -16.5t10.5 -13t15.5 -10.5t17.5 -8.5t21 -7.5t22 -6t25.5 -6.5t25 -6.5q35 -9 56 -15t50 -19t45 -28t27.5 -39t11.5 -55q0 -71 -53.5 -112.5t-147.5 -41.5z" />
    <glyph glyph-name="w_w_w" horiz-adv-x="2084" 
d="M1875 74l127 436h70l-162 -510h-73l-120 431h-2l-120 -431h-73l-143 450l-143 -450h-73l-121 431h-2l-119 -431h-73l-143 450l-144 -450h-72l-121 431h-2l-119 -431h-73l-162 510h72l127 -436h2l119 436h73l119 -436h2l128 436h104l127 -436h2l119 436h73l119 -436h2
l128 436h104l127 -436h2l119 436h73l120 -436h2z" />
    <glyph glyph-name="f_f_i.ss02" horiz-adv-x="685" 
d="M156 0h-65v453h-72v57h72v75q0 79 28.5 107.5t88.5 28.5q18 0 49 -4v-55q-36 2 -40 2q-37 0 -49 -15.5t-12 -62.5v-76h173v75q0 79 28.5 107.5t88.5 28.5q18 0 49 -4v-55q-36 2 -40 2q-37 0 -49 -15.5t-12 -62.5v-76h101v-57h-101v-453h-65v453h-173v-453zM592 609
q-20 0 -32 12.5t-12 31.5t12 31.5t32 12.5q21 0 33 -12.5t12 -31.5t-12 -31.5t-33 -12.5zM625 0h-65v510h65v-510z" />
    <glyph glyph-name="f_i.ss02" horiz-adv-x="446" 
d="M91 510v75q0 79 28.5 107.5t88.5 28.5q18 0 49 -4v-55q-36 2 -40 2q-37 0 -49 -15.5t-12 -62.5v-76h101v-57h-101v-453h-65v453h-72v57h72zM354 609q-21 0 -33 12.5t-12 31.5t12 31.5t33 12.5q20 0 32 -12.5t12 -31.5t-12 -31.5t-32 -12.5zM386 0h-65v510h65v-510z" />
    <glyph glyph-name="zero.zero" horiz-adv-x="615" 
d="M307 704q130 0 195.5 -100.5t65.5 -258.5t-65.5 -258t-195.5 -100t-195 100t-65 258t65 258.5t195 100.5zM123 345q0 -161 61 -236l202 512q-36 19 -79 19q-65 0 -107.5 -42t-59.5 -105.5t-17 -147.5zM307 51q96 0 140.5 82t44.5 212q0 157 -57 232l-201 -510
q34 -16 73 -16z" />
    <glyph glyph-name="zero.slash" horiz-adv-x="615" 
d="M307 704q130 0 195.5 -100.5t65.5 -258.5t-65.5 -258t-195.5 -100t-195 100t-65 258t65 258.5t195 100.5zM123 345q0 -161 61 -236l202 512q-36 19 -79 19q-65 0 -107.5 -42t-59.5 -105.5t-17 -147.5zM307 51q96 0 140.5 82t44.5 212q0 157 -57 232l-201 -510
q34 -16 73 -16z" />
    <glyph glyph-name="zero.tf" horiz-adv-x="670" 
d="M335 -13q-130 0 -195.5 100t-65.5 258t65.5 258.5t195.5 100.5t195 -100.5t65 -258.5t-65 -258t-195 -100zM335 51q96 0 140 82t44 212q0 84 -16.5 147.5t-59.5 105.5t-108 42t-108 -42t-60 -105.5t-17 -147.5q0 -83 17 -146.5t60 -105.5t108 -42z" />
    <glyph glyph-name="one.tf" horiz-adv-x="670" 
d="M385 691v-627h150v-64h-359v64h136v481q-23 -24 -56.5 -32t-86.5 -8v61q87 2 119 30.5t38 94.5h59z" />
    <glyph glyph-name="two.tf" horiz-adv-x="670" 
d="M560 0h-468q0 179 204 293q108 62 132 81q59 46 63 114v12q0 59 -33 99.5t-106 40.5q-85 0 -125 -51t-40 -131h-76q0 106 62.5 176t179.5 70q92 0 153 -54.5t61 -148.5q0 -38 -13 -71.5t-29 -55.5t-48 -47t-53 -38t-61 -36q-37 -21 -51.5 -29.5t-44.5 -29.5t-43.5 -37
t-27 -40t-17.5 -51v-2h381v-64z" />
    <glyph glyph-name="three.tf" horiz-adv-x="670" 
d="M344 -13q-126 0 -196 64.5t-70 179.5h76q0 -84 45 -132t140 -48q168 0 168 140q0 72 -44.5 105t-106.5 33h-74v64h70q58 0 93.5 32t35.5 92q0 52 -34.5 87.5t-103.5 35.5q-170 0 -170 -153h-76q0 97 63.5 157t182.5 60q89 0 151.5 -50.5t62.5 -136.5q0 -108 -108 -151v-2
q134 -42 134 -173q0 -96 -65 -150t-174 -54z" />
    <glyph glyph-name="four.tf" horiz-adv-x="670" 
d="M490 0h-73v168h-338v64l338 459h73v-459h98v-64h-98v-168zM417 588l-262 -356h262v356z" />
    <glyph glyph-name="five.tf" horiz-adv-x="670" 
d="M335 -13q-112 0 -175.5 61t-65.5 147h75q6 -64 45.5 -104t117.5 -40q76 0 122 47t46 136q0 82 -43 122t-116 40q-105 0 -159 -73h-78l73 368h363v-64h-304l-47 -231v-2q58 66 168 66q98 0 158.5 -64.5t60.5 -161.5q0 -110 -68 -178.5t-173 -68.5z" />
    <glyph glyph-name="six.tf" horiz-adv-x="670" 
d="M347 -13q-253 0 -253 350q0 175 67 271t192 96q88 0 145.5 -52.5t64.5 -132.5h-75q-7 57 -41.5 89t-93.5 32q-186 0 -186 -293v-20l1 -1q23 60 75.5 91.5t116.5 31.5q99 0 160.5 -63t61.5 -164t-64 -168t-171 -67zM347 51q76 0 117.5 45t41.5 122q0 78 -41 122.5
t-111 44.5q-74 0 -123 -47t-49 -127q0 -69 43.5 -114.5t121.5 -45.5z" />
    <glyph glyph-name="seven.tf" horiz-adv-x="670" 
d="M278 0h-76q0 164 80.5 345t197.5 280v2h-387v64h470v-56q-132 -107 -208.5 -287.5t-76.5 -347.5z" />
    <glyph glyph-name="eight.tf" horiz-adv-x="670" 
d="M335 -13q-110 0 -181.5 54t-71.5 152q0 122 133 176v2q-99 49 -99 150q0 85 61 134t158 49t158 -49t61 -134q0 -101 -99 -150v-2q133 -55 133 -176q0 -98 -71.5 -152t-181.5 -54zM335 402q66 0 104.5 30.5t38.5 88.5t-38.5 88.5t-104.5 30.5t-104.5 -30.5t-38.5 -88.5
t38.5 -88.5t104.5 -30.5zM335 51q80 0 128.5 38t48.5 107q0 66 -48.5 104t-128.5 38t-128.5 -38t-48.5 -104q0 -69 48.5 -107t128.5 -38z" />
    <glyph glyph-name="nine.tf" horiz-adv-x="670" 
d="M318 -13q-89 0 -146.5 52.5t-64.5 132.5h75q7 -57 41.5 -89t94.5 -32q186 0 186 293v20l-2 1q-23 -60 -75 -91.5t-116 -31.5q-100 0 -161.5 63t-61.5 164q0 100 64 167.5t171 67.5q253 0 253 -350q0 -175 -67 -271t-191 -96zM316 307q75 0 123.5 46.5t48.5 126.5
q0 70 -43.5 115t-121.5 45q-75 0 -117 -45.5t-42 -121.5q0 -77 41 -121.5t111 -44.5z" />
    <glyph glyph-name="zero.tf.zero" horiz-adv-x="670" 
d="M335 704q130 0 195 -100.5t65 -258.5t-65 -258t-195 -100t-195.5 100t-65.5 258t65.5 258.5t195.5 100.5zM150 345q0 -159 62 -237l202 513q-36 19 -79 19q-65 0 -108 -42t-60 -105.5t-17 -147.5zM335 51q96 0 140 82t44 212q0 156 -57 232l-201 -509q32 -17 74 -17z" />
    <glyph glyph-name="zero.dnom" horiz-adv-x="386" 
d="M193 -8q-81 0 -122.5 60t-41.5 151t41.5 151t122.5 60t122.5 -60t41.5 -151t-41.5 -151t-122.5 -60zM193 44q98 0 98 159q0 160 -98 160t-98 -160q0 -159 98 -159z" />
    <glyph glyph-name="one.dnom" horiz-adv-x="210" 
d="M97 0v303q-21 -20 -85 -20v51q93 1 96 72h53v-406h-64z" />
    <glyph glyph-name="two.dnom" horiz-adv-x="341" 
d="M310 0h-289q0 52 25.5 89.5t75.5 70.5q10 7 37 23.5t36.5 24t25 22t21 29.5t5.5 33q0 31 -17 50.5t-53 19.5q-42 0 -63 -25.5t-21 -70.5h-62q0 64 38 106.5t110 42.5q60 0 97 -31.5t37 -87.5q0 -28 -8.5 -50t-28.5 -41.5t-34 -29.5t-44 -30l-31.5 -19.5t-26 -19
t-23.5 -25t-12 -27.5v-2h205v-52z" />
    <glyph glyph-name="three.dnom" horiz-adv-x="361" 
d="M186 -8q-78 0 -120.5 38.5t-42.5 108.5h63q0 -95 96 -95q84 0 84 71q0 37 -23.5 54.5t-59.5 17.5h-35v49h33q72 0 72 62q0 29 -18 46.5t-53 17.5q-84 0 -84 -77h-63q0 58 39.5 94t110.5 36q55 0 94 -30t39 -81q0 -63 -62 -89v-1q76 -24 76 -101q0 -57 -40 -89t-106 -32z
" />
    <glyph glyph-name="four.dnom" horiz-adv-x="357" 
d="M277 0h-63v94h-193v60l193 252h63v-259h59v-53h-59v-94zM214 330l-139 -183h139v183z" />
    <glyph glyph-name="five.dnom" horiz-adv-x="351" 
d="M177 -8q-71 0 -111.5 35.5t-42.5 90.5h65q2 -33 24 -53.5t61 -20.5t62.5 24.5t23.5 69.5q0 42 -22 64t-61 22q-53 0 -83 -38h-61l43 220h229v-52h-181l-24 -116v-1q36 36 94 36q59 0 95 -38t36 -98q0 -67 -41 -106t-106 -39z" />
    <glyph glyph-name="six.dnom" horiz-adv-x="365" 
d="M191 -8q-160 0 -160 206q0 105 42 161t118 56q55 0 91.5 -31t42.5 -79h-65q-7 59 -69 59q-96 0 -96 -145v-9h1q31 59 106 59q60 0 97.5 -38t37.5 -98q0 -61 -40 -101t-106 -40zM188 43q40 0 63 24t23 63q0 41 -22.5 64.5t-60.5 23.5q-39 0 -64 -24.5t-25 -65.5
q0 -37 23 -61t63 -24z" />
    <glyph glyph-name="seven.dnom" horiz-adv-x="307" 
d="M139 0h-66q0 96 42.5 197t106.5 156v1h-215v52h285v-47q-74 -59 -113.5 -158.5t-39.5 -200.5z" />
    <glyph glyph-name="eight.dnom" horiz-adv-x="366" 
d="M183 -8q-67 0 -111.5 32t-44.5 90q0 72 79 104v1q-60 29 -60 88q0 50 39 79t98 29q60 0 98.5 -29t38.5 -79q0 -57 -59 -88v-1q78 -33 78 -104q0 -58 -44 -90t-112 -32zM183 240q35 0 55.5 16.5t20.5 46.5t-20.5 47t-55.5 17t-56 -17t-21 -47t20.5 -46.5t56.5 -16.5z
M183 42q42 0 67 21t25 56q0 34 -25 54.5t-67 20.5t-67 -20.5t-25 -54.5q0 -35 25.5 -56t66.5 -21z" />
    <glyph glyph-name="nine.dnom" horiz-adv-x="363" 
d="M173 -8q-54 0 -90.5 31t-43.5 79h65q8 -60 69 -60q97 0 97 143v12h-1q-32 -60 -107 -60q-60 0 -97 38t-37 98q0 62 39.5 102t106.5 40q82 0 120.5 -55.5t38.5 -150.5q0 -104 -42 -160.5t-118 -56.5zM173 188q40 0 65.5 25t25.5 66q0 37 -23.5 61t-64.5 24
q-40 0 -62.5 -24t-22.5 -64t22.5 -64t59.5 -24z" />
    <glyph glyph-name="zero.numr" horiz-adv-x="386" 
d="M193 302q-81 0 -122.5 60t-41.5 151t41.5 151t122.5 60t122.5 -60t41.5 -151t-41.5 -151t-122.5 -60zM193 354q98 0 98 159q0 160 -98 160t-98 -160q0 -159 98 -159z" />
    <glyph glyph-name="one.numr" horiz-adv-x="210" 
d="M97 309v303q-21 -20 -85 -20v51q93 1 96 72h53v-406h-64z" />
    <glyph glyph-name="two.numr" horiz-adv-x="341" 
d="M310 310h-289q0 52 25.5 89.5t75.5 70.5q10 7 37 23.5t36.5 24t25 22t21 29.5t5.5 33q0 31 -17 50.5t-53 19.5q-42 0 -63 -25.5t-21 -70.5h-62q0 64 38 106.5t110 42.5q60 0 97 -31.5t37 -87.5q0 -28 -8.5 -50t-28.5 -41.5t-34 -29.5t-44 -30l-31.5 -19.5t-26 -19
t-23.5 -25t-12 -27.5v-2h205v-52z" />
    <glyph glyph-name="three.numr" horiz-adv-x="361" 
d="M186 302q-78 0 -120.5 38.5t-42.5 108.5h63q0 -95 96 -95q84 0 84 71q0 37 -23.5 54.5t-59.5 17.5h-35v49h33q72 0 72 62q0 29 -18 46.5t-53 17.5q-84 0 -84 -77h-63q0 58 39.5 94t110.5 36q55 0 94 -30t39 -81q0 -63 -62 -89v-1q76 -24 76 -101q0 -57 -40 -89t-106 -32z
" />
    <glyph glyph-name="four.numr" horiz-adv-x="357" 
d="M277 310h-63v94h-193v60l193 252h63v-259h59v-53h-59v-94zM214 640l-139 -183h139v183z" />
    <glyph glyph-name="five.numr" horiz-adv-x="351" 
d="M177 301q-71 0 -111.5 35.5t-42.5 90.5h65q2 -33 24 -53.5t61 -20.5t62.5 24.5t23.5 69.5q0 42 -22 64t-61 22q-53 0 -83 -38h-61l43 220h229v-52h-181l-24 -116v-1q36 36 94 36q59 0 95 -38t36 -98q0 -67 -41 -106t-106 -39z" />
    <glyph glyph-name="six.numr" horiz-adv-x="365" 
d="M191 302q-160 0 -160 206q0 105 42 161t118 56q55 0 91.5 -31t42.5 -79h-65q-7 59 -69 59q-96 0 -96 -145v-9h1q31 59 106 59q60 0 97.5 -38t37.5 -98q0 -61 -40 -101t-106 -40zM188 353q40 0 63 24t23 63q0 41 -22.5 64.5t-60.5 23.5q-39 0 -64 -24.5t-25 -65.5
q0 -37 23 -61t63 -24z" />
    <glyph glyph-name="seven.numr" horiz-adv-x="307" 
d="M139 309h-66q0 96 42.5 197t106.5 156v1h-215v52h285v-47q-74 -59 -113.5 -158.5t-39.5 -200.5z" />
    <glyph glyph-name="eight.numr" horiz-adv-x="366" 
d="M183 302q-67 0 -111.5 32t-44.5 90q0 72 79 104v1q-60 29 -60 88q0 50 39 79t98 29q60 0 98.5 -29t38.5 -79q0 -57 -59 -88v-1q78 -33 78 -104q0 -58 -44 -90t-112 -32zM183 550q35 0 55.5 16.5t20.5 46.5t-20.5 47t-55.5 17t-56 -17t-21 -47t20.5 -46.5t56.5 -16.5z
M183 352q42 0 67 21t25 56q0 34 -25 54.5t-67 20.5t-67 -20.5t-25 -54.5q0 -35 25.5 -56t66.5 -21z" />
    <glyph glyph-name="nine.numr" horiz-adv-x="363" 
d="M173 301q-54 0 -90.5 31t-43.5 79h65q8 -60 69 -60q97 0 97 143v12h-1q-32 -60 -107 -60q-60 0 -97 38t-37 98q0 62 39.5 102t106.5 40q82 0 120.5 -55.5t38.5 -150.5q0 -104 -42 -160.5t-118 -56.5zM173 497q40 0 65.5 25t25.5 66q0 37 -23.5 61t-64.5 24
q-40 0 -62.5 -24t-22.5 -64t22.5 -64t59.5 -24z" />
    <glyph glyph-name="space.frac" horiz-adv-x="38" 
 />
    <glyph glyph-name="uni2007.tf" horiz-adv-x="670" 
 />
    <glyph glyph-name="periodcentered.case" horiz-adv-x="201" 
d="M143 311h-84v84h84v-84z" />
    <glyph glyph-name="bullet.case" horiz-adv-x="351" 
d="M270 263h-190v190h190v-190z" />
    <glyph glyph-name="period.ss02" horiz-adv-x="176" 
d="M88 -5q-22 0 -34.5 13.5t-12.5 32.5q0 20 12.5 33.5t34.5 13.5t34.5 -13.5t12.5 -33.5q0 -19 -12.5 -32.5t-34.5 -13.5z" />
    <glyph glyph-name="comma.ss02" horiz-adv-x="172" 
d="M43 -109v37q53 19 53 70q-23 -7 -40.5 4.5t-17.5 37.5q0 22 12.5 35t32.5 13q51 0 51 -70q0 -43 -23 -78t-68 -49z" />
    <glyph glyph-name="colon.ss02" horiz-adv-x="189" 
d="M94 300q-22 0 -34 13t-12 33t12 33.5t34 13.5t34.5 -13.5t12.5 -33.5t-12.5 -33t-34.5 -13zM94 -5q-21 0 -33.5 13.5t-12.5 32.5q0 20 12 33.5t34 13.5t34.5 -13.5t12.5 -33.5q0 -19 -12.5 -32.5t-34.5 -13.5z" />
    <glyph glyph-name="semicolon.ss02" horiz-adv-x="200" 
d="M101 300q-22 0 -34.5 13.5t-12.5 32.5q0 20 12.5 33.5t34.5 13.5t34 -13.5t12 -33.5q0 -19 -12.5 -32.5t-33.5 -13.5zM58 -109v37q53 19 54 70q-23 -7 -40.5 4.5t-17.5 37.5q0 22 12.5 35t32.5 13q51 0 51 -70q0 -43 -23 -78t-69 -49z" />
    <glyph glyph-name="ellipsis.ss02" horiz-adv-x="544" 
d="M88 -5q-22 0 -34.5 13.5t-12.5 32.5q0 20 12.5 33.5t34.5 13.5t34.5 -13.5t12.5 -33.5q0 -19 -12.5 -32.5t-34.5 -13.5zM272 -5q-22 0 -34.5 13.5t-12.5 32.5q0 20 12.5 33.5t34.5 13.5t34.5 -13.5t12.5 -33.5q0 -19 -12.5 -32.5t-34.5 -13.5zM456 -5q-22 0 -34.5 13.5
t-12.5 32.5q0 20 12.5 33.5t34.5 13.5t34.5 -13.5t12.5 -33.5q0 -19 -12.5 -32.5t-34.5 -13.5z" />
    <glyph glyph-name="exclam.ss02" horiz-adv-x="208" 
d="M124 184h-41l-17 315v216h75v-216zM104 -5q-22 0 -34.5 13.5t-12.5 32.5q0 20 12.5 33.5t34.5 13.5t34.5 -13.5t12.5 -33.5q0 -19 -12.5 -32.5t-34.5 -13.5z" />
    <glyph glyph-name="exclamdown.ss02" horiz-adv-x="205" 
d="M102 496q-21 0 -33.5 13.5t-12.5 32.5q0 20 12 33.5t34 13.5t34.5 -13.5t12.5 -33.5q0 -19 -12.5 -32.5t-34.5 -13.5zM140 -130h-75v216l17 315h41l17 -315v-216z" />
    <glyph glyph-name="question.ss02" horiz-adv-x="477" 
d="M248 180h-73q0 47 8 82t27.5 62.5t35 43t47.5 41.5q35 29 48 40.5t28.5 39t15.5 59.5q0 53 -35.5 84t-99.5 31q-73 0 -117 -42.5t-44 -129.5h-73q0 104 61 170.5t171 66.5q95 0 152.5 -49t57.5 -130q0 -32 -8 -57t-29 -48.5t-31.5 -33t-40.5 -33.5q-51 -43 -66 -63
q-35 -47 -35 -134zM215 -5q-22 0 -34.5 13.5t-12.5 32.5q0 20 12.5 33.5t34.5 13.5t34 -13.5t12 -33.5q0 -19 -12.5 -32.5t-33.5 -13.5z" />
    <glyph glyph-name="questiondown.ss02" horiz-adv-x="478" 
d="M263 496q-22 0 -34.5 13.5t-12.5 32.5q0 20 12.5 33.5t34.5 13.5t34 -13.5t12 -33.5q0 -19 -12.5 -32.5t-33.5 -13.5zM229 -144q-95 0 -152.5 49t-57.5 130q0 39 18 73t32 48t50 43q6 5 9 8q52 43 66 62q36 48 36 135h72q0 -47 -8 -82t-27 -62.5t-35.5 -43.5t-47.5 -41
q-2 -1 -14 -11.5t-14 -12t-12.5 -11t-13 -12.5t-10.5 -11.5t-10 -13.5t-7 -14t-6.5 -16.5t-3 -17t-1.5 -19.5q0 -53 35.5 -84t99.5 -31q73 0 117 42.5t44 129.5h73q0 -104 -61 -170.5t-171 -66.5z" />
    <glyph glyph-name="periodcentered.ss02" horiz-adv-x="194" 
d="M97 205q-22 0 -34.5 13t-12.5 33t12.5 33t34.5 13t34.5 -13t12.5 -33t-12.5 -33t-34.5 -13z" />
    <glyph glyph-name="bullet.ss02" horiz-adv-x="352" 
d="M176 201q-43 0 -71 28t-28 72q0 43 27.5 70.5t71.5 27.5t71.5 -27.5t27.5 -70.5q0 -44 -28 -72t-71 -28z" />
    <glyph glyph-name="periodcentered.case.ss02" horiz-adv-x="205" 
d="M103 307q-22 0 -34.5 13t-12.5 33t12.5 33t34.5 13t34 -13t12 -33t-12 -33t-34 -13z" />
    <glyph glyph-name="bullet.case.ss02" horiz-adv-x="342" 
d="M171 255q-43 0 -71 27.5t-28 71.5t28 71.5t71 27.5t71 -27.5t28 -71.5t-28 -71.5t-71 -27.5z" />
    <glyph glyph-name="hyphen.case" horiz-adv-x="363" 
d="M316 326h-268v64h268v-64z" />
    <glyph glyph-name="uni00AD.case" horiz-adv-x="363" 
d="M316 326h-268v64h268v-64z" />
    <glyph glyph-name="endash.case" horiz-adv-x="595" 
d="M548 326h-500v64h500v-64z" />
    <glyph glyph-name="emdash.case" horiz-adv-x="1095" 
d="M1048 326h-1000v64h1000v-64z" />
    <glyph glyph-name="parenleft.case" horiz-adv-x="260" 
d="M237 -78h-58q-61 83 -99 194.5t-38 239.5q0 251 137 438h58q-59 -103 -91 -206.5t-32 -231.5q0 -126 32 -228.5t91 -205.5z" />
    <glyph glyph-name="parenright.case" horiz-adv-x="260" 
d="M81 -78h-59q59 102 91 205.5t32 232.5q0 126 -32 229t-91 205h59q61 -83 99 -194.5t38 -239.5q0 -251 -137 -438z" />
    <glyph glyph-name="braceleft.case" horiz-adv-x="288" 
d="M258 -78h-16q-82 0 -115.5 40t-33.5 149v118q0 97 -64 97v64q33 -1 48.5 25t15.5 71v123q0 109 33 147t116 38h16v-64h-16q-42 0 -59 -24t-17 -88v-152q0 -73 -60 -107v-2q60 -34 60 -108v-147q0 -66 17 -91t59 -25h16v-64z" />
    <glyph glyph-name="braceright.case" horiz-adv-x="288" 
d="M47 -78h-17v64h17q41 0 58.5 24t17.5 88v152q0 74 60 107v2q-60 33 -60 108v147q0 66 -17.5 91t-58.5 25h-17v64h17q82 0 115 -40t33 -149v-118q0 -97 65 -97v-64q-34 1 -49.5 -25t-15.5 -71v-123q0 -109 -32.5 -147t-115.5 -38z" />
    <glyph glyph-name="bracketleft.case" horiz-adv-x="277" 
d="M251 -78h-175v872h175v-64h-102v-744h102v-64z" />
    <glyph glyph-name="bracketright.case" horiz-adv-x="277" 
d="M200 -78h-174v64h102v744h-102v64h174v-872z" />
    <glyph glyph-name="guillemotleft.case" horiz-adv-x="477" 
d="M248 234v-76l-196 161v79l196 160v-75l-157 -124v-2zM416 234v-76l-196 161v79l196 160v-75l-157 -124v-2z" />
    <glyph glyph-name="guillemotright.case" horiz-adv-x="477" 
d="M257 318l-196 -160v75l157 124v2l-157 123v76l196 -161v-79zM425 318l-196 -160v75l157 124v2l-157 123v76l196 -161v-79z" />
    <glyph glyph-name="guilsinglleft.case" horiz-adv-x="309" 
d="M248 234v-76l-196 161v79l196 160v-75l-157 -124v-2z" />
    <glyph glyph-name="guilsinglright.case" horiz-adv-x="309" 
d="M257 318l-196 -160v75l157 124v2l-157 123v76l196 -161v-79z" />
    <glyph glyph-name="quotesinglbase.ss02" horiz-adv-x="172" 
d="M43 -109v37q53 19 53 70q-23 -7 -40.5 4.5t-17.5 37.5q0 22 12.5 35t32.5 13q51 0 51 -70q0 -43 -23 -78t-68 -49z" />
    <glyph glyph-name="quotedblbase.ss02" horiz-adv-x="306" 
d="M43 -109v37q53 19 53 70q-23 -7 -40.5 4.5t-17.5 37.5q0 22 12.5 35t32.5 13q51 0 51 -70q0 -43 -23 -78t-68 -49zM176 -109v37q53 19 54 70q-23 -7 -40.5 4.5t-17.5 37.5q0 22 12.5 35t32.5 13q51 0 51 -70q0 -43 -23 -78t-69 -49z" />
    <glyph glyph-name="quotedblleft.ss02" horiz-adv-x="308" 
d="M89 511q-54 0 -54 74q0 46 24.5 82.5t72.5 51.5v-40q-57 -19 -58 -74q24 8 43 -3.5t19 -38.5q0 -24 -13 -38t-34 -14zM222 511q-54 0 -54 74q0 46 24.5 82.5t72.5 51.5v-40q-56 -19 -57 -74q24 8 43 -3.5t19 -38.5q0 -24 -13 -38t-35 -14z" />
    <glyph glyph-name="quotedblright.ss02" horiz-adv-x="310" 
d="M49 511v40q56 20 56 74q-23 -8 -42 4t-19 39q0 23 13 37t34 14q54 0 54 -74q0 -45 -24.5 -82t-71.5 -52zM182 511v40q56 19 57 74q-24 -8 -43 4t-19 39q0 23 13 37t35 14q54 0 54 -74q0 -46 -24.5 -82.5t-72.5 -51.5z" />
    <glyph glyph-name="quoteleft.ss02" horiz-adv-x="175" 
d="M89 511q-54 0 -54 74q0 46 24.5 82.5t72.5 51.5v-40q-57 -19 -58 -74q24 8 43 -3.5t19 -38.5q0 -24 -13 -38t-34 -14z" />
    <glyph glyph-name="quoteright.ss02" horiz-adv-x="177" 
d="M49 511v40q56 20 56 74q-23 -8 -42 4t-19 39q0 23 13 37t34 14q54 0 54 -74q0 -45 -24.5 -82t-71.5 -52z" />
    <glyph glyph-name="uni2219.ss02" horiz-adv-x="290" 
d="M146 302q-22 0 -34.5 13.5t-12.5 32.5q0 20 12.5 33.5t34.5 13.5t34.5 -13.5t12.5 -33.5q0 -19 -12.5 -32.5t-34.5 -13.5z" />
    <glyph glyph-name="divide.ss02" horiz-adv-x="542" 
d="M271 445q-22 0 -34 13t-12 33t12 33.5t34 13.5t34.5 -13.5t12.5 -33.5t-12.5 -33t-34.5 -13zM493 295h-443v64h443v-64zM271 117q-22 0 -34 13t-12 33t12 33.5t34 13.5t34.5 -13.5t12.5 -33.5t-12.5 -33t-34.5 -13z" />
    <glyph glyph-name="brevecombcy" 
d="M164 588q-55 0 -88.5 33t-35.5 94h50q8 -78 74 -78q67 0 73 78h51q-3 -60 -36 -93.5t-88 -33.5z" />
    <glyph glyph-name="uni030C.alt" 
d="M79 527h-51l24 188h77z" />
    <glyph glyph-name="uni0308.ss02" 
d="M83 608q-20 0 -32 13t-12 31q0 19 12 32t32 13q21 0 33 -13t12 -32q0 -18 -12 -31t-33 -13zM231 608q-20 0 -32 13t-12 31q0 19 12 32t32 13q21 0 33 -13t12 -32q0 -18 -12 -31t-33 -13z" />
    <glyph glyph-name="uni0307.ss02" 
d="M81 609q-20 0 -32 12.5t-12 31.5t12 31.5t32 12.5q21 0 33 -12.5t12 -31.5t-12 -31.5t-33 -12.5z" />
    <glyph glyph-name="uni0312.ss02" 
d="M85 599q-25 0 -38.5 17t-13.5 47q0 83 87 110v-36q-49 -14 -49 -61q24 7 41 -2t17 -33q0 -20 -12 -31t-32 -11z" />
    <glyph glyph-name="uni0326.ss02" 
d="M37 -223v37q53 14 54 54q-23 -8 -40.5 3t-17.5 37q0 21 12.5 33.5t32.5 12.5q51 0 51 -65q0 -89 -92 -112z" />
    <glyph glyph-name="dieresis.ss02" horiz-adv-x="320" 
d="M86 607q-22 0 -34.5 13t-12.5 33t12.5 33.5t34.5 13.5t34.5 -13.5t12.5 -33.5t-12.5 -33t-34.5 -13zM234 607q-22 0 -34 13t-12 33t12 33.5t34 13.5t34.5 -13.5t12.5 -33.5t-12.5 -33t-34.5 -13z" />
    <glyph glyph-name="dotaccent.ss02" 
d="M81 609q-20 0 -32 12.5t-12 31.5t12 31.5t32 12.5q21 0 33 -12.5t12 -31.5t-12 -31.5t-33 -12.5z" />
    <glyph glyph-name="logo" horiz-adv-x="724" 
d="M630 360q48 -31 48 -88q0 -44 -31 -75t-75 -31h-16l1 -15q3 -41 -28.5 -73.5t-77.5 -32.5q-56 0 -89 48q-33 -48 -89 -48q-46 0 -77.5 32.5t-28.5 73.5l1 15h-16q-44 0 -75 31t-31 75q0 57 48 88q-48 31 -48 88q0 44 31 75t75 31h5h6h5l-1 15q-3 41 28.5 73.5t77.5 32.5
q56 0 89 -48q33 48 89 48q46 0 77.5 -32.5t28.5 -73.5l-1 -15h16q44 0 75 -31t31 -75q0 -57 -48 -88zM79 447q0 -29 19.5 -50t47.5 -21h162q15 0 26 11t11 26v162q0 28 -21.5 47.5t-49.5 19.5q-39 0 -62 -37q-9 -15 -9 -34q0 -17 9 -34q10 -18 23 -25q8 2 13 2
q17 0 29 -12.5t12 -29.5t-12 -29t-29 -12t-29.5 12t-12.5 29q0 2 3 14q-21 32 -59 32q-29 0 -50 -21t-21 -50zM379 575v-162q0 -15 11 -26t26 -11h162q28 0 47.5 21t19.5 50t-21 50t-50 21q-38 0 -59 -32q3 -12 3 -14q0 -17 -12.5 -29t-29.5 -12t-29 12t-12 29t12 29.5
t29 12.5q5 0 13 -2q12 8 23 25q9 17 9 34q0 19 -9 34q-23 37 -62 37q-28 0 -49.5 -19.5t-21.5 -47.5zM345 145v162q0 15 -11 26t-26 11h-162q-28 0 -47.5 -21t-19.5 -50t21 -50t50 -21q38 0 59 32q-3 12 -3 14q0 17 12.5 29t29.5 12t29 -12t12 -29t-12 -29.5t-29 -12.5
q-5 0 -13 2q-13 -8 -23 -25q-9 -17 -9 -34q0 -19 9 -34q23 -37 62 -37q28 0 49.5 19.5t21.5 47.5zM574 202q29 0 50 21t21 50t-19.5 50t-47.5 21h-162q-15 0 -26 -11t-11 -26v-162q0 -28 21.5 -47.5t49.5 -19.5q39 0 62 37q9 15 9 34q0 17 -9 34q-10 18 -23 25q-8 -2 -13 -2
q-17 0 -29 12.5t-12 29.5t12 29t29 12t29.5 -12t12.5 -29q0 -2 -3 -14q21 -32 59 -32z" />
    <glyph glyph-name="smallLogo" horiz-adv-x="478" 
d="M400 546q29 -18 29 -53q0 -27 -19 -45t-54 -18q1 -32 -17 -52.5t-46 -20.5q-35 0 -54 29q-19 -29 -54 -29q-28 0 -46 20.5t-17 52.5q-35 0 -54 18t-19 45q0 35 29 53q-29 18 -29 53q0 27 19 45t54 18q-1 32 17 52.5t46 20.5q35 0 54 -29q19 29 54 29q28 0 46 -20.5
t17 -52.5q35 0 54 -18t19 -45q0 -35 -29 -53zM69 598q0 -17 11.5 -29.5t28.5 -12.5h97q9 0 15.5 6.5t6.5 15.5v97q0 17 -12.5 28.5t-29.5 11.5q-25 0 -37 -22q-6 -12 -6 -20q0 -11 6 -21q5 -10 13 -15q3 1 8 1q10 0 17.5 -7.5t7.5 -17.5t-7.5 -17t-17.5 -7t-17.5 7t-7.5 17
q0 3 2 9q-13 19 -36 19q-17 0 -29.5 -12.5t-12.5 -30.5zM250 675v-97q0 -9 6.5 -15.5t15.5 -6.5h97q17 0 28.5 12.5t11.5 29.5q0 18 -12.5 30.5t-29.5 12.5q-23 0 -36 -19q2 -6 2 -9q0 -10 -7.5 -17t-17.5 -7t-17.5 7t-7.5 17t7.5 17.5t17.5 7.5q5 0 8 -1q8 5 13 15
q6 10 6 21t-6 20q-15 22 -37 22q-17 0 -29.5 -11.5t-12.5 -28.5zM228 417v97q0 9 -6.5 15.5t-15.5 6.5h-97q-17 0 -28.5 -12.5t-11.5 -29.5q0 -18 12.5 -30.5t29.5 -12.5q23 0 36 19q-2 6 -2 9q0 10 7.5 17t17.5 7t17.5 -7t7.5 -17t-7.5 -17.5t-17.5 -7.5q-5 0 -8 1
q-8 -5 -13 -15q-6 -10 -6 -21t6 -20q15 -22 37 -22q17 0 29.5 11.5t12.5 28.5zM367 451q17 0 29.5 12.5t12.5 30.5q0 17 -11.5 29.5t-28.5 12.5h-97q-9 0 -15.5 -6.5t-6.5 -15.5v-97q0 -17 12.5 -28.5t29.5 -11.5q25 0 37 22q6 12 6 20q0 11 -6 21q-5 10 -13 15q-3 -1 -8 -1
q-10 0 -17.5 7.5t-7.5 17.5t7.5 17t17.5 7t17.5 -7t7.5 -17q0 -3 -2 -9q13 -19 36 -19z" />
    <glyph glyph-name="topLogoCircle" horiz-adv-x="540" 
d="M270 286q-93 0 -158 63.5t-65 159.5q0 95 65 158.5t158 63.5t157.5 -63.5t64.5 -158.5q0 -96 -64.5 -159.5t-157.5 -63.5z" />
    </font>
</defs>
</svg>
